%TF.GenerationSoftware,KiCad,Pcbnew,7.0.1*%
%TF.CreationDate,2023-12-30T18:42:19-05:00*%
%TF.ProjectId,Nano2UNO-Adapter-5V,4e616e6f-3255-44e4-9f2d-416461707465,0.0.1*%
%TF.SameCoordinates,PX6486dd0PY8062360*%
%TF.FileFunction,Legend,Top*%
%TF.FilePolarity,Positive*%
%FSLAX46Y46*%
G04 Gerber Fmt 4.6, Leading zero omitted, Abs format (unit mm)*
G04 Created by KiCad (PCBNEW 7.0.1) date 2023-12-30 18:42:19*
%MOMM*%
%LPD*%
G01*
G04 APERTURE LIST*
G04 Aperture macros list*
%AMRoundRect*
0 Rectangle with rounded corners*
0 $1 Rounding radius*
0 $2 $3 $4 $5 $6 $7 $8 $9 X,Y pos of 4 corners*
0 Add a 4 corners polygon primitive as box body*
4,1,4,$2,$3,$4,$5,$6,$7,$8,$9,$2,$3,0*
0 Add four circle primitives for the rounded corners*
1,1,$1+$1,$2,$3*
1,1,$1+$1,$4,$5*
1,1,$1+$1,$6,$7*
1,1,$1+$1,$8,$9*
0 Add four rect primitives between the rounded corners*
20,1,$1+$1,$2,$3,$4,$5,0*
20,1,$1+$1,$4,$5,$6,$7,0*
20,1,$1+$1,$6,$7,$8,$9,0*
20,1,$1+$1,$8,$9,$2,$3,0*%
G04 Aperture macros list end*
%ADD10C,0.150000*%
%ADD11C,0.225000*%
%ADD12C,0.120000*%
%ADD13C,1.700000*%
%ADD14O,2.200000X2.200000*%
%ADD15RoundRect,0.550000X-0.550000X0.550000X-0.550000X-0.550000X0.550000X-0.550000X0.550000X0.550000X0*%
%ADD16C,3.200000*%
%ADD17C,2.600000*%
%ADD18C,2.000000*%
G04 APERTURE END LIST*
D10*
X13970000Y22860000D02*
X31750000Y22860000D01*
X31750000Y15240000D01*
X13970000Y15240000D01*
X13970000Y22860000D01*
X25400000Y19050000D02*
X25400000Y15240000D01*
X13970000Y19050000D02*
X31750000Y19050000D01*
D11*
X15185000Y16879643D02*
X15899286Y16879643D01*
X15042143Y16451072D02*
X15542143Y17951072D01*
X15542143Y17951072D02*
X16042143Y16451072D01*
X16542142Y16451072D02*
X16542142Y17951072D01*
X16542142Y17951072D02*
X16899285Y17951072D01*
X16899285Y17951072D02*
X17113571Y17879643D01*
X17113571Y17879643D02*
X17256428Y17736786D01*
X17256428Y17736786D02*
X17327857Y17593929D01*
X17327857Y17593929D02*
X17399285Y17308215D01*
X17399285Y17308215D02*
X17399285Y17093929D01*
X17399285Y17093929D02*
X17327857Y16808215D01*
X17327857Y16808215D02*
X17256428Y16665358D01*
X17256428Y16665358D02*
X17113571Y16522500D01*
X17113571Y16522500D02*
X16899285Y16451072D01*
X16899285Y16451072D02*
X16542142Y16451072D01*
X17970714Y16879643D02*
X18685000Y16879643D01*
X17827857Y16451072D02*
X18327857Y17951072D01*
X18327857Y17951072D02*
X18827857Y16451072D01*
X19327856Y16451072D02*
X19327856Y17951072D01*
X19327856Y17951072D02*
X19899285Y17951072D01*
X19899285Y17951072D02*
X20042142Y17879643D01*
X20042142Y17879643D02*
X20113571Y17808215D01*
X20113571Y17808215D02*
X20184999Y17665358D01*
X20184999Y17665358D02*
X20184999Y17451072D01*
X20184999Y17451072D02*
X20113571Y17308215D01*
X20113571Y17308215D02*
X20042142Y17236786D01*
X20042142Y17236786D02*
X19899285Y17165358D01*
X19899285Y17165358D02*
X19327856Y17165358D01*
X20613571Y17951072D02*
X21470714Y17951072D01*
X21042142Y16451072D02*
X21042142Y17951072D01*
X21970713Y17236786D02*
X22470713Y17236786D01*
X22684999Y16451072D02*
X21970713Y16451072D01*
X21970713Y16451072D02*
X21970713Y17951072D01*
X21970713Y17951072D02*
X22684999Y17951072D01*
X24184999Y16451072D02*
X23684999Y17165358D01*
X23327856Y16451072D02*
X23327856Y17951072D01*
X23327856Y17951072D02*
X23899285Y17951072D01*
X23899285Y17951072D02*
X24042142Y17879643D01*
X24042142Y17879643D02*
X24113571Y17808215D01*
X24113571Y17808215D02*
X24184999Y17665358D01*
X24184999Y17665358D02*
X24184999Y17451072D01*
X24184999Y17451072D02*
X24113571Y17308215D01*
X24113571Y17308215D02*
X24042142Y17236786D01*
X24042142Y17236786D02*
X23899285Y17165358D01*
X23899285Y17165358D02*
X23327856Y17165358D01*
D10*
X19764762Y13507381D02*
X19431429Y13983572D01*
X19193334Y13507381D02*
X19193334Y14507381D01*
X19193334Y14507381D02*
X19574286Y14507381D01*
X19574286Y14507381D02*
X19669524Y14459762D01*
X19669524Y14459762D02*
X19717143Y14412143D01*
X19717143Y14412143D02*
X19764762Y14316905D01*
X19764762Y14316905D02*
X19764762Y14174048D01*
X19764762Y14174048D02*
X19717143Y14078810D01*
X19717143Y14078810D02*
X19669524Y14031191D01*
X19669524Y14031191D02*
X19574286Y13983572D01*
X19574286Y13983572D02*
X19193334Y13983572D01*
X20193334Y14031191D02*
X20526667Y14031191D01*
X20669524Y13507381D02*
X20193334Y13507381D01*
X20193334Y13507381D02*
X20193334Y14507381D01*
X20193334Y14507381D02*
X20669524Y14507381D01*
X20955239Y14507381D02*
X21288572Y13507381D01*
X21288572Y13507381D02*
X21621905Y14507381D01*
X21955239Y13602620D02*
X22002858Y13555000D01*
X22002858Y13555000D02*
X21955239Y13507381D01*
X21955239Y13507381D02*
X21907620Y13555000D01*
X21907620Y13555000D02*
X21955239Y13602620D01*
X21955239Y13602620D02*
X21955239Y13507381D01*
X21955239Y14126429D02*
X22002858Y14078810D01*
X22002858Y14078810D02*
X21955239Y14031191D01*
X21955239Y14031191D02*
X21907620Y14078810D01*
X21907620Y14078810D02*
X21955239Y14126429D01*
X21955239Y14126429D02*
X21955239Y14031191D01*
X23383810Y14507381D02*
X23479048Y14507381D01*
X23479048Y14507381D02*
X23574286Y14459762D01*
X23574286Y14459762D02*
X23621905Y14412143D01*
X23621905Y14412143D02*
X23669524Y14316905D01*
X23669524Y14316905D02*
X23717143Y14126429D01*
X23717143Y14126429D02*
X23717143Y13888334D01*
X23717143Y13888334D02*
X23669524Y13697858D01*
X23669524Y13697858D02*
X23621905Y13602620D01*
X23621905Y13602620D02*
X23574286Y13555000D01*
X23574286Y13555000D02*
X23479048Y13507381D01*
X23479048Y13507381D02*
X23383810Y13507381D01*
X23383810Y13507381D02*
X23288572Y13555000D01*
X23288572Y13555000D02*
X23240953Y13602620D01*
X23240953Y13602620D02*
X23193334Y13697858D01*
X23193334Y13697858D02*
X23145715Y13888334D01*
X23145715Y13888334D02*
X23145715Y14126429D01*
X23145715Y14126429D02*
X23193334Y14316905D01*
X23193334Y14316905D02*
X23240953Y14412143D01*
X23240953Y14412143D02*
X23288572Y14459762D01*
X23288572Y14459762D02*
X23383810Y14507381D01*
X24145715Y13602620D02*
X24193334Y13555000D01*
X24193334Y13555000D02*
X24145715Y13507381D01*
X24145715Y13507381D02*
X24098096Y13555000D01*
X24098096Y13555000D02*
X24145715Y13602620D01*
X24145715Y13602620D02*
X24145715Y13507381D01*
X24812381Y14507381D02*
X24907619Y14507381D01*
X24907619Y14507381D02*
X25002857Y14459762D01*
X25002857Y14459762D02*
X25050476Y14412143D01*
X25050476Y14412143D02*
X25098095Y14316905D01*
X25098095Y14316905D02*
X25145714Y14126429D01*
X25145714Y14126429D02*
X25145714Y13888334D01*
X25145714Y13888334D02*
X25098095Y13697858D01*
X25098095Y13697858D02*
X25050476Y13602620D01*
X25050476Y13602620D02*
X25002857Y13555000D01*
X25002857Y13555000D02*
X24907619Y13507381D01*
X24907619Y13507381D02*
X24812381Y13507381D01*
X24812381Y13507381D02*
X24717143Y13555000D01*
X24717143Y13555000D02*
X24669524Y13602620D01*
X24669524Y13602620D02*
X24621905Y13697858D01*
X24621905Y13697858D02*
X24574286Y13888334D01*
X24574286Y13888334D02*
X24574286Y14126429D01*
X24574286Y14126429D02*
X24621905Y14316905D01*
X24621905Y14316905D02*
X24669524Y14412143D01*
X24669524Y14412143D02*
X24717143Y14459762D01*
X24717143Y14459762D02*
X24812381Y14507381D01*
X25574286Y13602620D02*
X25621905Y13555000D01*
X25621905Y13555000D02*
X25574286Y13507381D01*
X25574286Y13507381D02*
X25526667Y13555000D01*
X25526667Y13555000D02*
X25574286Y13602620D01*
X25574286Y13602620D02*
X25574286Y13507381D01*
X26574285Y13507381D02*
X26002857Y13507381D01*
X26288571Y13507381D02*
X26288571Y14507381D01*
X26288571Y14507381D02*
X26193333Y14364524D01*
X26193333Y14364524D02*
X26098095Y14269286D01*
X26098095Y14269286D02*
X26002857Y14221667D01*
D11*
G36*
X19203915Y20802143D02*
G01*
X18801799Y20802143D01*
X19002857Y21405316D01*
X19203915Y20802143D01*
G37*
G36*
X28364788Y21597185D02*
G01*
X28472702Y21489271D01*
X28533215Y21247224D01*
X28533215Y20774921D01*
X28472702Y20532873D01*
X28364789Y20424960D01*
X28262014Y20373572D01*
X28029415Y20373572D01*
X27926641Y20424959D01*
X27818726Y20532874D01*
X27758215Y20774920D01*
X27758215Y21247224D01*
X27818726Y21489271D01*
X27926640Y21597185D01*
X28029416Y21648572D01*
X28262014Y21648572D01*
X28364788Y21597185D01*
G37*
G36*
X22221930Y21597185D02*
G01*
X22329844Y21489271D01*
X22390357Y21247224D01*
X22390357Y20774921D01*
X22329844Y20532873D01*
X22221931Y20424960D01*
X22119156Y20373572D01*
X21886557Y20373572D01*
X21783783Y20424959D01*
X21675868Y20532874D01*
X21615357Y20774920D01*
X21615357Y21247224D01*
X21675868Y21489271D01*
X21783782Y21597185D01*
X21886558Y21648572D01*
X22119156Y21648572D01*
X22221930Y21597185D01*
G37*
G36*
X29614466Y19371964D02*
G01*
X16105535Y19371964D01*
X16105535Y21733937D01*
X17031647Y21733937D01*
X17033213Y21731196D01*
X17033213Y20244898D01*
X17047077Y20197682D01*
X17097006Y20154419D01*
X17162399Y20145016D01*
X17222495Y20172461D01*
X17258213Y20228039D01*
X17258213Y21337446D01*
X17898632Y20216712D01*
X17904220Y20197682D01*
X17926965Y20177974D01*
X17948666Y20157097D01*
X17951763Y20156486D01*
X17954149Y20154419D01*
X17983949Y20150134D01*
X18013481Y20144306D01*
X18016415Y20145466D01*
X18019542Y20145016D01*
X18046931Y20157525D01*
X18074924Y20168586D01*
X18076766Y20171150D01*
X18079638Y20172461D01*
X18095910Y20197781D01*
X18113485Y20222230D01*
X18113649Y20225384D01*
X18115356Y20228039D01*
X18115356Y20232126D01*
X18389237Y20232126D01*
X18422923Y20175295D01*
X18481987Y20145695D01*
X18547678Y20152728D01*
X18599138Y20194159D01*
X18726799Y20577143D01*
X19278915Y20577143D01*
X19401245Y20210152D01*
X19429328Y20169743D01*
X19490376Y20144489D01*
X19555387Y20156248D01*
X19603720Y20201289D01*
X19620030Y20265310D01*
X19475142Y20699974D01*
X19476056Y20706329D01*
X19464829Y20730913D01*
X19130487Y21733937D01*
X19888790Y21733937D01*
X19890356Y21731196D01*
X19890356Y20244898D01*
X19904220Y20197682D01*
X19954149Y20154419D01*
X20019542Y20145016D01*
X20079638Y20172461D01*
X20115356Y20228039D01*
X20115356Y21337446D01*
X20755775Y20216712D01*
X20761363Y20197682D01*
X20784108Y20177974D01*
X20805809Y20157097D01*
X20808906Y20156486D01*
X20811292Y20154419D01*
X20841092Y20150134D01*
X20870624Y20144306D01*
X20873558Y20145466D01*
X20876685Y20145016D01*
X20904074Y20157525D01*
X20932067Y20168586D01*
X20933909Y20171150D01*
X20936781Y20172461D01*
X20953053Y20197781D01*
X20970628Y20222230D01*
X20970792Y20225384D01*
X20972499Y20228039D01*
X20972499Y20258146D01*
X20974065Y20288207D01*
X20972499Y20290948D01*
X20972499Y20765834D01*
X21385704Y20765834D01*
X21390357Y20747222D01*
X21390357Y20744898D01*
X21394267Y20731582D01*
X21464721Y20449765D01*
X21471378Y20419166D01*
X21484545Y20405999D01*
X21493968Y20389938D01*
X21507425Y20383119D01*
X21627620Y20262924D01*
X21637286Y20246650D01*
X21665017Y20232785D01*
X21692221Y20217930D01*
X21694412Y20218087D01*
X21804277Y20163155D01*
X21826967Y20148572D01*
X21849958Y20148572D01*
X21872587Y20144500D01*
X21882404Y20148572D01*
X22139658Y20148572D01*
X22166480Y20145676D01*
X22187046Y20155960D01*
X22209104Y20162436D01*
X22216063Y20170468D01*
X22326267Y20225570D01*
X22344763Y20229593D01*
X22359555Y20244386D01*
X22886801Y20244386D01*
X22892092Y20232800D01*
X22893001Y20220098D01*
X22905547Y20203338D01*
X22914246Y20184290D01*
X22924959Y20177405D01*
X22932592Y20167209D01*
X22952210Y20159892D01*
X22969824Y20148572D01*
X22982559Y20148572D01*
X22994493Y20144121D01*
X23014953Y20148572D01*
X23947603Y20148572D01*
X23994819Y20162436D01*
X24038082Y20212365D01*
X24047485Y20277758D01*
X24020040Y20337854D01*
X23964462Y20373572D01*
X23274456Y20373572D01*
X23426904Y20526020D01*
X24458889Y20526020D01*
X24469172Y20505454D01*
X24475649Y20483396D01*
X24483680Y20476437D01*
X24538783Y20366232D01*
X24542807Y20347737D01*
X24564730Y20325814D01*
X24585840Y20303120D01*
X24587968Y20302576D01*
X24627620Y20262924D01*
X24637286Y20246650D01*
X24665013Y20232787D01*
X24692220Y20217930D01*
X24694412Y20218087D01*
X24804277Y20163155D01*
X24826967Y20148572D01*
X24849958Y20148572D01*
X24872587Y20144500D01*
X24882404Y20148572D01*
X25139658Y20148572D01*
X25166480Y20145676D01*
X25187046Y20155960D01*
X25209104Y20162436D01*
X25216063Y20170468D01*
X25326267Y20225570D01*
X25344763Y20229593D01*
X25366686Y20251517D01*
X25389380Y20272626D01*
X25389924Y20274755D01*
X25429576Y20314407D01*
X25445850Y20324072D01*
X25459713Y20351800D01*
X25474570Y20379006D01*
X25474413Y20381199D01*
X25529345Y20491064D01*
X25543928Y20513753D01*
X25543928Y20536744D01*
X25548000Y20559373D01*
X25543928Y20569190D01*
X25543928Y21733937D01*
X26031648Y21733937D01*
X26033214Y21731196D01*
X26033214Y20244898D01*
X26047078Y20197682D01*
X26097007Y20154419D01*
X26162400Y20145016D01*
X26222496Y20172461D01*
X26258214Y20228039D01*
X26258214Y21337446D01*
X26898633Y20216712D01*
X26904221Y20197682D01*
X26926966Y20177974D01*
X26948667Y20157097D01*
X26951764Y20156486D01*
X26954150Y20154419D01*
X26983950Y20150134D01*
X27013482Y20144306D01*
X27016416Y20145466D01*
X27019543Y20145016D01*
X27046932Y20157525D01*
X27074925Y20168586D01*
X27076767Y20171150D01*
X27079639Y20172461D01*
X27095911Y20197781D01*
X27113486Y20222230D01*
X27113650Y20225384D01*
X27115357Y20228039D01*
X27115357Y20258146D01*
X27116923Y20288207D01*
X27115357Y20290948D01*
X27115357Y20765834D01*
X27528562Y20765834D01*
X27533215Y20747222D01*
X27533215Y20744898D01*
X27537125Y20731582D01*
X27607579Y20449765D01*
X27614236Y20419166D01*
X27627403Y20405999D01*
X27636826Y20389938D01*
X27650283Y20383119D01*
X27770478Y20262924D01*
X27780144Y20246650D01*
X27807875Y20232785D01*
X27835079Y20217930D01*
X27837270Y20218087D01*
X27947135Y20163155D01*
X27969825Y20148572D01*
X27992816Y20148572D01*
X28015445Y20144500D01*
X28025262Y20148572D01*
X28282516Y20148572D01*
X28309338Y20145676D01*
X28329904Y20155960D01*
X28351962Y20162436D01*
X28358921Y20170468D01*
X28469125Y20225570D01*
X28487621Y20229593D01*
X28509541Y20251514D01*
X28532238Y20272626D01*
X28532782Y20274755D01*
X28652599Y20394573D01*
X28675415Y20416026D01*
X28679931Y20434093D01*
X28688856Y20450436D01*
X28687779Y20465484D01*
X28750366Y20715826D01*
X28758215Y20728039D01*
X28758215Y20747221D01*
X28758779Y20749477D01*
X28758215Y20763350D01*
X28758215Y21242557D01*
X28762868Y21256311D01*
X28758215Y21274923D01*
X28758215Y21277246D01*
X28754305Y21290560D01*
X28683843Y21572404D01*
X28677193Y21602978D01*
X28664025Y21616146D01*
X28654603Y21632206D01*
X28641146Y21639025D01*
X28520951Y21759220D01*
X28511286Y21775493D01*
X28483558Y21789357D01*
X28456352Y21804213D01*
X28454159Y21804057D01*
X28344302Y21858986D01*
X28321605Y21873572D01*
X28298612Y21873572D01*
X28275986Y21877644D01*
X28266168Y21873572D01*
X28008914Y21873572D01*
X27982092Y21876468D01*
X27961525Y21866185D01*
X27939468Y21859708D01*
X27932508Y21851677D01*
X27822304Y21796574D01*
X27803810Y21792551D01*
X27781883Y21770625D01*
X27759192Y21749517D01*
X27758647Y21747390D01*
X27638808Y21627551D01*
X27616014Y21606118D01*
X27611497Y21588054D01*
X27602573Y21571709D01*
X27603649Y21556661D01*
X27541064Y21306319D01*
X27533215Y21294105D01*
X27533215Y21274922D01*
X27532651Y21272666D01*
X27533215Y21258793D01*
X27533215Y20779588D01*
X27528562Y20765834D01*
X27115357Y20765834D01*
X27115357Y21777246D01*
X27101493Y21824462D01*
X27051564Y21867725D01*
X26986171Y21877128D01*
X26926075Y21849683D01*
X26890357Y21794105D01*
X26890357Y20684698D01*
X26249937Y21805433D01*
X26244350Y21824462D01*
X26221604Y21844171D01*
X26199904Y21865047D01*
X26196806Y21865659D01*
X26194421Y21867725D01*
X26164620Y21872011D01*
X26135089Y21877838D01*
X26132154Y21876679D01*
X26129028Y21877128D01*
X26101635Y21864619D01*
X26073647Y21853558D01*
X26071804Y21850995D01*
X26068932Y21849683D01*
X26052652Y21824353D01*
X26035085Y21799913D01*
X26034920Y21796761D01*
X26033214Y21794105D01*
X26033214Y21763998D01*
X26031648Y21733937D01*
X25543928Y21733937D01*
X25543928Y21777246D01*
X25530064Y21824462D01*
X25480135Y21867725D01*
X25414742Y21877128D01*
X25354646Y21849683D01*
X25318928Y21794105D01*
X25318928Y20573343D01*
X25267541Y20470570D01*
X25221930Y20424959D01*
X25119156Y20373572D01*
X24886557Y20373572D01*
X24783783Y20424959D01*
X24738172Y20470570D01*
X24686785Y20573344D01*
X24686785Y21777246D01*
X24672921Y21824462D01*
X24622992Y21867725D01*
X24557599Y21877128D01*
X24497503Y21849683D01*
X24461785Y21794105D01*
X24461785Y20552842D01*
X24458889Y20526020D01*
X23426904Y20526020D01*
X23935265Y21034382D01*
X23956281Y21051301D01*
X23963552Y21073116D01*
X23974570Y21093292D01*
X23973811Y21103893D01*
X24033694Y21283543D01*
X24043929Y21299467D01*
X24043929Y21330485D01*
X24045049Y21361445D01*
X24043929Y21363335D01*
X24043929Y21469302D01*
X24046825Y21496124D01*
X24036541Y21516691D01*
X24030065Y21538748D01*
X24022033Y21545708D01*
X23966930Y21655914D01*
X23962907Y21674407D01*
X23940983Y21696331D01*
X23919874Y21719024D01*
X23917745Y21719569D01*
X23878094Y21759220D01*
X23868429Y21775493D01*
X23840703Y21789356D01*
X23813495Y21804213D01*
X23811302Y21804057D01*
X23701443Y21858986D01*
X23678747Y21873572D01*
X23655754Y21873572D01*
X23633128Y21877644D01*
X23623310Y21873572D01*
X23294628Y21873572D01*
X23267806Y21876468D01*
X23247239Y21866185D01*
X23225182Y21859708D01*
X23218222Y21851677D01*
X23108016Y21796574D01*
X23089522Y21792550D01*
X23067598Y21770627D01*
X23044905Y21749517D01*
X23044360Y21747389D01*
X22983300Y21686328D01*
X22959716Y21643138D01*
X22964430Y21577241D01*
X23004021Y21524352D01*
X23065922Y21501264D01*
X23130478Y21515308D01*
X23212354Y21597184D01*
X23315130Y21648572D01*
X23619157Y21648572D01*
X23721931Y21597185D01*
X23767541Y21551575D01*
X23818929Y21448800D01*
X23818929Y21350756D01*
X23761672Y21178987D01*
X22943610Y20360925D01*
X22939467Y20359708D01*
X22920470Y20337785D01*
X22911871Y20329185D01*
X22909914Y20325603D01*
X22896204Y20309779D01*
X22894391Y20297175D01*
X22888287Y20285995D01*
X22889781Y20265111D01*
X22886801Y20244386D01*
X22359555Y20244386D01*
X22366683Y20251514D01*
X22389380Y20272626D01*
X22389924Y20274755D01*
X22509741Y20394573D01*
X22532557Y20416026D01*
X22537073Y20434093D01*
X22545998Y20450436D01*
X22544921Y20465484D01*
X22607508Y20715826D01*
X22615357Y20728039D01*
X22615357Y20747221D01*
X22615921Y20749477D01*
X22615357Y20763350D01*
X22615357Y21242557D01*
X22620010Y21256311D01*
X22615357Y21274923D01*
X22615357Y21277246D01*
X22611447Y21290560D01*
X22540985Y21572404D01*
X22534335Y21602978D01*
X22521167Y21616146D01*
X22511745Y21632206D01*
X22498288Y21639025D01*
X22378093Y21759220D01*
X22368428Y21775493D01*
X22340700Y21789357D01*
X22313494Y21804213D01*
X22311301Y21804057D01*
X22201444Y21858986D01*
X22178747Y21873572D01*
X22155754Y21873572D01*
X22133128Y21877644D01*
X22123310Y21873572D01*
X21866056Y21873572D01*
X21839234Y21876468D01*
X21818667Y21866185D01*
X21796610Y21859708D01*
X21789650Y21851677D01*
X21679446Y21796574D01*
X21660952Y21792551D01*
X21639025Y21770625D01*
X21616334Y21749517D01*
X21615789Y21747390D01*
X21495950Y21627551D01*
X21473156Y21606118D01*
X21468639Y21588054D01*
X21459715Y21571709D01*
X21460791Y21556661D01*
X21398206Y21306319D01*
X21390357Y21294105D01*
X21390357Y21274922D01*
X21389793Y21272666D01*
X21390357Y21258793D01*
X21390357Y20779588D01*
X21385704Y20765834D01*
X20972499Y20765834D01*
X20972499Y21777246D01*
X20958635Y21824462D01*
X20908706Y21867725D01*
X20843313Y21877128D01*
X20783217Y21849683D01*
X20747499Y21794105D01*
X20747499Y20684698D01*
X20107079Y21805433D01*
X20101492Y21824462D01*
X20078746Y21844171D01*
X20057046Y21865047D01*
X20053948Y21865659D01*
X20051563Y21867725D01*
X20021762Y21872011D01*
X19992231Y21877838D01*
X19989296Y21876679D01*
X19986170Y21877128D01*
X19958777Y21864619D01*
X19930789Y21853558D01*
X19928946Y21850995D01*
X19926074Y21849683D01*
X19909794Y21824353D01*
X19892227Y21799913D01*
X19892062Y21796761D01*
X19890356Y21794105D01*
X19890356Y21763998D01*
X19888790Y21733937D01*
X19130487Y21733937D01*
X19116018Y21777343D01*
X19116477Y21790018D01*
X19105775Y21808073D01*
X19104469Y21811992D01*
X19097559Y21821935D01*
X19082791Y21846850D01*
X19078881Y21848810D01*
X19076386Y21852400D01*
X19049628Y21863470D01*
X19023727Y21876449D01*
X19019376Y21875984D01*
X19015338Y21877654D01*
X18986846Y21872502D01*
X18958037Y21869417D01*
X18954630Y21866675D01*
X18950327Y21865896D01*
X18929140Y21846153D01*
X18906576Y21827986D01*
X18905192Y21823836D01*
X18901994Y21820855D01*
X18894844Y21792793D01*
X18546053Y20746421D01*
X18539061Y20738350D01*
X18535796Y20715650D01*
X18391015Y20281304D01*
X18389237Y20232126D01*
X18115356Y20232126D01*
X18115356Y20258146D01*
X18116922Y20288207D01*
X18115356Y20290948D01*
X18115356Y21777246D01*
X18101492Y21824462D01*
X18051563Y21867725D01*
X17986170Y21877128D01*
X17926074Y21849683D01*
X17890356Y21794105D01*
X17890356Y20684698D01*
X17249936Y21805433D01*
X17244349Y21824462D01*
X17221603Y21844171D01*
X17199903Y21865047D01*
X17196805Y21865659D01*
X17194420Y21867725D01*
X17164619Y21872011D01*
X17135088Y21877838D01*
X17132153Y21876679D01*
X17129027Y21877128D01*
X17101634Y21864619D01*
X17073646Y21853558D01*
X17071803Y21850995D01*
X17068931Y21849683D01*
X17052651Y21824353D01*
X17035084Y21799913D01*
X17034919Y21796761D01*
X17033213Y21794105D01*
X17033213Y21763998D01*
X17031647Y21733937D01*
X16105535Y21733937D01*
X16105535Y22538036D01*
X29614466Y22538036D01*
X29614466Y19371964D01*
G37*
X28289286Y17951072D02*
X27575000Y17951072D01*
X27575000Y17951072D02*
X27503572Y17236786D01*
X27503572Y17236786D02*
X27575000Y17308215D01*
X27575000Y17308215D02*
X27717858Y17379643D01*
X27717858Y17379643D02*
X28075000Y17379643D01*
X28075000Y17379643D02*
X28217858Y17308215D01*
X28217858Y17308215D02*
X28289286Y17236786D01*
X28289286Y17236786D02*
X28360715Y17093929D01*
X28360715Y17093929D02*
X28360715Y16736786D01*
X28360715Y16736786D02*
X28289286Y16593929D01*
X28289286Y16593929D02*
X28217858Y16522500D01*
X28217858Y16522500D02*
X28075000Y16451072D01*
X28075000Y16451072D02*
X27717858Y16451072D01*
X27717858Y16451072D02*
X27575000Y16522500D01*
X27575000Y16522500D02*
X27503572Y16593929D01*
X28789286Y17951072D02*
X29289286Y16451072D01*
X29289286Y16451072D02*
X29789286Y17951072D01*
D10*
%TO.C,J3*%
G36*
X43012343Y5454210D02*
G01*
X43086455Y5380098D01*
X43124949Y5303112D01*
X43168333Y5129576D01*
X43168333Y5005187D01*
X43124949Y4831655D01*
X43086455Y4754666D01*
X43012343Y4680553D01*
X42897828Y4642381D01*
X42746905Y4642381D01*
X42746905Y5492381D01*
X42897830Y5492381D01*
X43012343Y5454210D01*
G37*
G36*
X43889167Y4077143D02*
G01*
X39930834Y4077143D01*
X39930834Y4999127D01*
X40498565Y4999127D01*
X40501667Y4986719D01*
X40501667Y4985171D01*
X40504271Y4976302D01*
X40548285Y4800247D01*
X40547355Y4791633D01*
X40553521Y4779300D01*
X40554140Y4776827D01*
X40558322Y4769700D01*
X40600617Y4685110D01*
X40603300Y4672778D01*
X40617929Y4658149D01*
X40631989Y4643033D01*
X40633407Y4642671D01*
X40711255Y4564822D01*
X40722534Y4550813D01*
X40737075Y4545966D01*
X40750528Y4538620D01*
X40757596Y4539126D01*
X40877363Y4499203D01*
X40887978Y4492381D01*
X40908657Y4492381D01*
X40929297Y4491635D01*
X40930556Y4492381D01*
X40995836Y4492381D01*
X41008063Y4489266D01*
X41027675Y4495804D01*
X41047498Y4501624D01*
X41048456Y4502731D01*
X41167980Y4542572D01*
X41185557Y4546395D01*
X41196398Y4557238D01*
X41208980Y4565981D01*
X41211687Y4572527D01*
X41239178Y4600020D01*
X41246902Y4603546D01*
X41254450Y4615292D01*
X41256371Y4617212D01*
X41260250Y4624317D01*
X41270714Y4640598D01*
X41270714Y4643479D01*
X41272094Y4646006D01*
X41270714Y4665295D01*
X41270714Y4990593D01*
X41273084Y5007077D01*
X41266164Y5022230D01*
X41261471Y5038213D01*
X41257158Y5041950D01*
X41254788Y5047141D01*
X41240771Y5056149D01*
X41228185Y5067055D01*
X41222538Y5067867D01*
X41217736Y5070953D01*
X41201074Y5070953D01*
X41184590Y5073323D01*
X41179400Y5070953D01*
X40994456Y5070953D01*
X40962978Y5061710D01*
X40934136Y5028424D01*
X40927868Y4984829D01*
X40946164Y4944765D01*
X40983216Y4920953D01*
X41120714Y4920953D01*
X41120714Y4693685D01*
X41107581Y4680553D01*
X40993066Y4642381D01*
X40922170Y4642381D01*
X40807655Y4680553D01*
X40733543Y4754667D01*
X40695050Y4831653D01*
X40651667Y5005187D01*
X40651667Y5129575D01*
X40695050Y5303109D01*
X40733545Y5380098D01*
X40807656Y5454210D01*
X40922171Y5492381D01*
X41035151Y5492381D01*
X41124197Y5447858D01*
X41156486Y5442048D01*
X41197169Y5458921D01*
X41222271Y5495111D01*
X41223824Y5539127D01*
X41217787Y5549291D01*
X41548242Y5549291D01*
X41549286Y5547464D01*
X41549286Y4556599D01*
X41558529Y4525121D01*
X41591815Y4496279D01*
X41635410Y4490011D01*
X41675474Y4508307D01*
X41699286Y4545359D01*
X41699286Y5284964D01*
X42126232Y4537807D01*
X42129957Y4525121D01*
X42145120Y4511982D01*
X42159588Y4498064D01*
X42161653Y4497657D01*
X42163243Y4496279D01*
X42183103Y4493424D01*
X42202798Y4489537D01*
X42204755Y4490311D01*
X42206838Y4490011D01*
X42225093Y4498348D01*
X42243759Y4505724D01*
X42244987Y4507433D01*
X42246902Y4508307D01*
X42257752Y4525192D01*
X42269467Y4541487D01*
X42269576Y4543590D01*
X42270714Y4545359D01*
X42270714Y4556257D01*
X42594535Y4556257D01*
X42601454Y4541105D01*
X42606148Y4525121D01*
X42610460Y4521385D01*
X42612831Y4516193D01*
X42626847Y4507186D01*
X42639434Y4496279D01*
X42645080Y4495468D01*
X42649883Y4492381D01*
X42666545Y4492381D01*
X42683029Y4490011D01*
X42688219Y4492381D01*
X42900598Y4492381D01*
X42912825Y4489266D01*
X42932437Y4495804D01*
X42952260Y4501624D01*
X42953218Y4502731D01*
X43072744Y4542573D01*
X43090318Y4546395D01*
X43101158Y4557236D01*
X43113742Y4565981D01*
X43116449Y4572528D01*
X43194479Y4650558D01*
X43205329Y4657001D01*
X43214579Y4675502D01*
X43224475Y4693625D01*
X43224370Y4695085D01*
X43256822Y4759988D01*
X43263134Y4765922D01*
X43266478Y4779300D01*
X43267618Y4781579D01*
X43269081Y4789712D01*
X43313100Y4965790D01*
X43318333Y4973931D01*
X43318333Y4986719D01*
X43318709Y4988223D01*
X43318333Y4997469D01*
X43318333Y5126467D01*
X43321435Y5135636D01*
X43318333Y5148044D01*
X43318333Y5149592D01*
X43315728Y5158462D01*
X43271714Y5334519D01*
X43272644Y5343130D01*
X43266478Y5355461D01*
X43265860Y5357936D01*
X43261672Y5365075D01*
X43219382Y5449655D01*
X43216700Y5461985D01*
X43202080Y5476605D01*
X43188011Y5491730D01*
X43186592Y5492093D01*
X43108743Y5569942D01*
X43097466Y5583949D01*
X43082924Y5588797D01*
X43069472Y5596142D01*
X43062404Y5595637D01*
X42942637Y5635559D01*
X42932022Y5642381D01*
X42911342Y5642381D01*
X42890703Y5643127D01*
X42889444Y5642381D01*
X42677265Y5642381D01*
X42660781Y5644751D01*
X42645628Y5637832D01*
X42629645Y5633138D01*
X42625908Y5628826D01*
X42620717Y5626455D01*
X42611709Y5612439D01*
X42600803Y5599852D01*
X42599991Y5594206D01*
X42596905Y5589403D01*
X42596905Y5572741D01*
X42594535Y5556257D01*
X42596905Y5551067D01*
X42596905Y4572741D01*
X42594535Y4556257D01*
X42270714Y4556257D01*
X42270714Y4565428D01*
X42271758Y4585471D01*
X42270714Y4587298D01*
X42270714Y5578163D01*
X42261471Y5609641D01*
X42228185Y5638483D01*
X42184590Y5644751D01*
X42144526Y5626455D01*
X42120714Y5589403D01*
X42120714Y4849798D01*
X41693767Y5596956D01*
X41690043Y5609641D01*
X41674879Y5622781D01*
X41660412Y5636698D01*
X41658346Y5637106D01*
X41656757Y5638483D01*
X41636896Y5641339D01*
X41617202Y5645225D01*
X41615244Y5644452D01*
X41613162Y5644751D01*
X41594906Y5636415D01*
X41576241Y5629038D01*
X41575012Y5627330D01*
X41573098Y5626455D01*
X41562247Y5609571D01*
X41550533Y5593275D01*
X41550423Y5591173D01*
X41549286Y5589403D01*
X41549286Y5569334D01*
X41548242Y5549291D01*
X41217787Y5549291D01*
X41201333Y5576996D01*
X41090008Y5632658D01*
X41074879Y5642381D01*
X41059549Y5642381D01*
X41044466Y5645095D01*
X41037922Y5642381D01*
X40919402Y5642381D01*
X40907174Y5645496D01*
X40887554Y5638957D01*
X40867740Y5633138D01*
X40866781Y5632032D01*
X40747252Y5592190D01*
X40729682Y5588367D01*
X40718843Y5577529D01*
X40706257Y5568781D01*
X40703548Y5562234D01*
X40625520Y5484206D01*
X40614671Y5477762D01*
X40605420Y5459262D01*
X40595525Y5441139D01*
X40595629Y5439679D01*
X40563177Y5374775D01*
X40556866Y5368840D01*
X40553521Y5355463D01*
X40552382Y5353183D01*
X40550918Y5345051D01*
X40506899Y5168974D01*
X40501667Y5160832D01*
X40501667Y5148044D01*
X40501291Y5146540D01*
X40501667Y5137294D01*
X40501667Y5008296D01*
X40498565Y4999127D01*
X39930834Y4999127D01*
X39930834Y6187857D01*
X43889167Y6187857D01*
X43889167Y4077143D01*
G37*
X33482619Y5254524D02*
X33006428Y4921191D01*
X33482619Y4683096D02*
X32482619Y4683096D01*
X32482619Y4683096D02*
X32482619Y5064048D01*
X32482619Y5064048D02*
X32530238Y5159286D01*
X32530238Y5159286D02*
X32577857Y5206905D01*
X32577857Y5206905D02*
X32673095Y5254524D01*
X32673095Y5254524D02*
X32815952Y5254524D01*
X32815952Y5254524D02*
X32911190Y5206905D01*
X32911190Y5206905D02*
X32958809Y5159286D01*
X32958809Y5159286D02*
X33006428Y5064048D01*
X33006428Y5064048D02*
X33006428Y4683096D01*
X32958809Y5683096D02*
X32958809Y6016429D01*
X33482619Y6159286D02*
X33482619Y5683096D01*
X33482619Y5683096D02*
X32482619Y5683096D01*
X32482619Y5683096D02*
X32482619Y6159286D01*
X33435000Y6540239D02*
X33482619Y6683096D01*
X33482619Y6683096D02*
X33482619Y6921191D01*
X33482619Y6921191D02*
X33435000Y7016429D01*
X33435000Y7016429D02*
X33387380Y7064048D01*
X33387380Y7064048D02*
X33292142Y7111667D01*
X33292142Y7111667D02*
X33196904Y7111667D01*
X33196904Y7111667D02*
X33101666Y7064048D01*
X33101666Y7064048D02*
X33054047Y7016429D01*
X33054047Y7016429D02*
X33006428Y6921191D01*
X33006428Y6921191D02*
X32958809Y6730715D01*
X32958809Y6730715D02*
X32911190Y6635477D01*
X32911190Y6635477D02*
X32863571Y6587858D01*
X32863571Y6587858D02*
X32768333Y6540239D01*
X32768333Y6540239D02*
X32673095Y6540239D01*
X32673095Y6540239D02*
X32577857Y6587858D01*
X32577857Y6587858D02*
X32530238Y6635477D01*
X32530238Y6635477D02*
X32482619Y6730715D01*
X32482619Y6730715D02*
X32482619Y6968810D01*
X32482619Y6968810D02*
X32530238Y7111667D01*
X32958809Y7540239D02*
X32958809Y7873572D01*
X33482619Y8016429D02*
X33482619Y7540239D01*
X33482619Y7540239D02*
X32482619Y7540239D01*
X32482619Y7540239D02*
X32482619Y8016429D01*
X32482619Y8302144D02*
X32482619Y8873572D01*
X33482619Y8587858D02*
X32482619Y8587858D01*
X37562619Y5159286D02*
X37562619Y4683096D01*
X37562619Y4683096D02*
X38038809Y4635477D01*
X38038809Y4635477D02*
X37991190Y4683096D01*
X37991190Y4683096D02*
X37943571Y4778334D01*
X37943571Y4778334D02*
X37943571Y5016429D01*
X37943571Y5016429D02*
X37991190Y5111667D01*
X37991190Y5111667D02*
X38038809Y5159286D01*
X38038809Y5159286D02*
X38134047Y5206905D01*
X38134047Y5206905D02*
X38372142Y5206905D01*
X38372142Y5206905D02*
X38467380Y5159286D01*
X38467380Y5159286D02*
X38515000Y5111667D01*
X38515000Y5111667D02*
X38562619Y5016429D01*
X38562619Y5016429D02*
X38562619Y4778334D01*
X38562619Y4778334D02*
X38515000Y4683096D01*
X38515000Y4683096D02*
X38467380Y4635477D01*
X37562619Y5492620D02*
X38562619Y5825953D01*
X38562619Y5825953D02*
X37562619Y6159286D01*
X45182619Y4540239D02*
X46182619Y4873572D01*
X46182619Y4873572D02*
X45182619Y5206905D01*
X46182619Y5540239D02*
X45182619Y5540239D01*
X46182619Y6016429D02*
X45182619Y6016429D01*
X45182619Y6016429D02*
X46182619Y6587857D01*
X46182619Y6587857D02*
X45182619Y6587857D01*
X35022619Y4587858D02*
X35022619Y5206905D01*
X35022619Y5206905D02*
X35403571Y4873572D01*
X35403571Y4873572D02*
X35403571Y5016429D01*
X35403571Y5016429D02*
X35451190Y5111667D01*
X35451190Y5111667D02*
X35498809Y5159286D01*
X35498809Y5159286D02*
X35594047Y5206905D01*
X35594047Y5206905D02*
X35832142Y5206905D01*
X35832142Y5206905D02*
X35927380Y5159286D01*
X35927380Y5159286D02*
X35975000Y5111667D01*
X35975000Y5111667D02*
X36022619Y5016429D01*
X36022619Y5016429D02*
X36022619Y4730715D01*
X36022619Y4730715D02*
X35975000Y4635477D01*
X35975000Y4635477D02*
X35927380Y4587858D01*
X35927380Y5635477D02*
X35975000Y5683096D01*
X35975000Y5683096D02*
X36022619Y5635477D01*
X36022619Y5635477D02*
X35975000Y5587858D01*
X35975000Y5587858D02*
X35927380Y5635477D01*
X35927380Y5635477D02*
X36022619Y5635477D01*
X35022619Y6016429D02*
X35022619Y6635476D01*
X35022619Y6635476D02*
X35403571Y6302143D01*
X35403571Y6302143D02*
X35403571Y6445000D01*
X35403571Y6445000D02*
X35451190Y6540238D01*
X35451190Y6540238D02*
X35498809Y6587857D01*
X35498809Y6587857D02*
X35594047Y6635476D01*
X35594047Y6635476D02*
X35832142Y6635476D01*
X35832142Y6635476D02*
X35927380Y6587857D01*
X35927380Y6587857D02*
X35975000Y6540238D01*
X35975000Y6540238D02*
X36022619Y6445000D01*
X36022619Y6445000D02*
X36022619Y6159286D01*
X36022619Y6159286D02*
X35975000Y6064048D01*
X35975000Y6064048D02*
X35927380Y6016429D01*
X35022619Y6921191D02*
X36022619Y7254524D01*
X36022619Y7254524D02*
X35022619Y7587857D01*
X30942619Y4683096D02*
X29942619Y4683096D01*
X29942619Y5349762D02*
X29942619Y5540238D01*
X29942619Y5540238D02*
X29990238Y5635476D01*
X29990238Y5635476D02*
X30085476Y5730714D01*
X30085476Y5730714D02*
X30275952Y5778333D01*
X30275952Y5778333D02*
X30609285Y5778333D01*
X30609285Y5778333D02*
X30799761Y5730714D01*
X30799761Y5730714D02*
X30895000Y5635476D01*
X30895000Y5635476D02*
X30942619Y5540238D01*
X30942619Y5540238D02*
X30942619Y5349762D01*
X30942619Y5349762D02*
X30895000Y5254524D01*
X30895000Y5254524D02*
X30799761Y5159286D01*
X30799761Y5159286D02*
X30609285Y5111667D01*
X30609285Y5111667D02*
X30275952Y5111667D01*
X30275952Y5111667D02*
X30085476Y5159286D01*
X30085476Y5159286D02*
X29990238Y5254524D01*
X29990238Y5254524D02*
X29942619Y5349762D01*
X30942619Y6778333D02*
X30466428Y6445000D01*
X30942619Y6206905D02*
X29942619Y6206905D01*
X29942619Y6206905D02*
X29942619Y6587857D01*
X29942619Y6587857D02*
X29990238Y6683095D01*
X29990238Y6683095D02*
X30037857Y6730714D01*
X30037857Y6730714D02*
X30133095Y6778333D01*
X30133095Y6778333D02*
X30275952Y6778333D01*
X30275952Y6778333D02*
X30371190Y6730714D01*
X30371190Y6730714D02*
X30418809Y6683095D01*
X30418809Y6683095D02*
X30466428Y6587857D01*
X30466428Y6587857D02*
X30466428Y6206905D01*
X30418809Y7206905D02*
X30418809Y7540238D01*
X30942619Y7683095D02*
X30942619Y7206905D01*
X30942619Y7206905D02*
X29942619Y7206905D01*
X29942619Y7206905D02*
X29942619Y7683095D01*
X30418809Y8445000D02*
X30418809Y8111667D01*
X30942619Y8111667D02*
X29942619Y8111667D01*
X29942619Y8111667D02*
X29942619Y8587857D01*
%TO.C,J4*%
X50976904Y4635477D02*
X50976904Y5111667D01*
X51262619Y4540239D02*
X50262619Y4873572D01*
X50262619Y4873572D02*
X51262619Y5206905D01*
X50262619Y5730715D02*
X50262619Y5825953D01*
X50262619Y5825953D02*
X50310238Y5921191D01*
X50310238Y5921191D02*
X50357857Y5968810D01*
X50357857Y5968810D02*
X50453095Y6016429D01*
X50453095Y6016429D02*
X50643571Y6064048D01*
X50643571Y6064048D02*
X50881666Y6064048D01*
X50881666Y6064048D02*
X51072142Y6016429D01*
X51072142Y6016429D02*
X51167380Y5968810D01*
X51167380Y5968810D02*
X51215000Y5921191D01*
X51215000Y5921191D02*
X51262619Y5825953D01*
X51262619Y5825953D02*
X51262619Y5730715D01*
X51262619Y5730715D02*
X51215000Y5635477D01*
X51215000Y5635477D02*
X51167380Y5587858D01*
X51167380Y5587858D02*
X51072142Y5540239D01*
X51072142Y5540239D02*
X50881666Y5492620D01*
X50881666Y5492620D02*
X50643571Y5492620D01*
X50643571Y5492620D02*
X50453095Y5540239D01*
X50453095Y5540239D02*
X50357857Y5587858D01*
X50357857Y5587858D02*
X50310238Y5635477D01*
X50310238Y5635477D02*
X50262619Y5730715D01*
X56056904Y4635477D02*
X56056904Y5111667D01*
X56342619Y4540239D02*
X55342619Y4873572D01*
X55342619Y4873572D02*
X56342619Y5206905D01*
X55437857Y5492620D02*
X55390238Y5540239D01*
X55390238Y5540239D02*
X55342619Y5635477D01*
X55342619Y5635477D02*
X55342619Y5873572D01*
X55342619Y5873572D02*
X55390238Y5968810D01*
X55390238Y5968810D02*
X55437857Y6016429D01*
X55437857Y6016429D02*
X55533095Y6064048D01*
X55533095Y6064048D02*
X55628333Y6064048D01*
X55628333Y6064048D02*
X55771190Y6016429D01*
X55771190Y6016429D02*
X56342619Y5445001D01*
X56342619Y5445001D02*
X56342619Y6064048D01*
X53516904Y4635477D02*
X53516904Y5111667D01*
X53802619Y4540239D02*
X52802619Y4873572D01*
X52802619Y4873572D02*
X53802619Y5206905D01*
X53802619Y6064048D02*
X53802619Y5492620D01*
X53802619Y5778334D02*
X52802619Y5778334D01*
X52802619Y5778334D02*
X52945476Y5683096D01*
X52945476Y5683096D02*
X53040714Y5587858D01*
X53040714Y5587858D02*
X53088333Y5492620D01*
X63676904Y4635477D02*
X63676904Y5111667D01*
X63962619Y4540239D02*
X62962619Y4873572D01*
X62962619Y4873572D02*
X63962619Y5206905D01*
X62962619Y6016429D02*
X62962619Y5540239D01*
X62962619Y5540239D02*
X63438809Y5492620D01*
X63438809Y5492620D02*
X63391190Y5540239D01*
X63391190Y5540239D02*
X63343571Y5635477D01*
X63343571Y5635477D02*
X63343571Y5873572D01*
X63343571Y5873572D02*
X63391190Y5968810D01*
X63391190Y5968810D02*
X63438809Y6016429D01*
X63438809Y6016429D02*
X63534047Y6064048D01*
X63534047Y6064048D02*
X63772142Y6064048D01*
X63772142Y6064048D02*
X63867380Y6016429D01*
X63867380Y6016429D02*
X63915000Y5968810D01*
X63915000Y5968810D02*
X63962619Y5873572D01*
X63962619Y5873572D02*
X63962619Y5635477D01*
X63962619Y5635477D02*
X63915000Y5540239D01*
X63915000Y5540239D02*
X63867380Y5492620D01*
X61136904Y4635477D02*
X61136904Y5111667D01*
X61422619Y4540239D02*
X60422619Y4873572D01*
X60422619Y4873572D02*
X61422619Y5206905D01*
X60755952Y5968810D02*
X61422619Y5968810D01*
X60375000Y5730715D02*
X61089285Y5492620D01*
X61089285Y5492620D02*
X61089285Y6111667D01*
X58596904Y4635477D02*
X58596904Y5111667D01*
X58882619Y4540239D02*
X57882619Y4873572D01*
X57882619Y4873572D02*
X58882619Y5206905D01*
X57882619Y5445001D02*
X57882619Y6064048D01*
X57882619Y6064048D02*
X58263571Y5730715D01*
X58263571Y5730715D02*
X58263571Y5873572D01*
X58263571Y5873572D02*
X58311190Y5968810D01*
X58311190Y5968810D02*
X58358809Y6016429D01*
X58358809Y6016429D02*
X58454047Y6064048D01*
X58454047Y6064048D02*
X58692142Y6064048D01*
X58692142Y6064048D02*
X58787380Y6016429D01*
X58787380Y6016429D02*
X58835000Y5968810D01*
X58835000Y5968810D02*
X58882619Y5873572D01*
X58882619Y5873572D02*
X58882619Y5587858D01*
X58882619Y5587858D02*
X58835000Y5492620D01*
X58835000Y5492620D02*
X58787380Y5445001D01*
%TO.C,J2*%
X41547190Y48323572D02*
X41499571Y48228334D01*
X41499571Y48228334D02*
X41451952Y48180715D01*
X41451952Y48180715D02*
X41356714Y48133096D01*
X41356714Y48133096D02*
X41309095Y48133096D01*
X41309095Y48133096D02*
X41213857Y48180715D01*
X41213857Y48180715D02*
X41166238Y48228334D01*
X41166238Y48228334D02*
X41118619Y48323572D01*
X41118619Y48323572D02*
X41118619Y48514048D01*
X41118619Y48514048D02*
X41166238Y48609286D01*
X41166238Y48609286D02*
X41213857Y48656905D01*
X41213857Y48656905D02*
X41309095Y48704524D01*
X41309095Y48704524D02*
X41356714Y48704524D01*
X41356714Y48704524D02*
X41451952Y48656905D01*
X41451952Y48656905D02*
X41499571Y48609286D01*
X41499571Y48609286D02*
X41547190Y48514048D01*
X41547190Y48514048D02*
X41547190Y48323572D01*
X41547190Y48323572D02*
X41594809Y48228334D01*
X41594809Y48228334D02*
X41642428Y48180715D01*
X41642428Y48180715D02*
X41737666Y48133096D01*
X41737666Y48133096D02*
X41928142Y48133096D01*
X41928142Y48133096D02*
X42023380Y48180715D01*
X42023380Y48180715D02*
X42071000Y48228334D01*
X42071000Y48228334D02*
X42118619Y48323572D01*
X42118619Y48323572D02*
X42118619Y48514048D01*
X42118619Y48514048D02*
X42071000Y48609286D01*
X42071000Y48609286D02*
X42023380Y48656905D01*
X42023380Y48656905D02*
X41928142Y48704524D01*
X41928142Y48704524D02*
X41737666Y48704524D01*
X41737666Y48704524D02*
X41642428Y48656905D01*
X41642428Y48656905D02*
X41594809Y48609286D01*
X41594809Y48609286D02*
X41547190Y48514048D01*
X34498619Y47752143D02*
X34498619Y47180715D01*
X34498619Y47466429D02*
X33498619Y47466429D01*
X33498619Y47466429D02*
X33641476Y47371191D01*
X33641476Y47371191D02*
X33736714Y47275953D01*
X33736714Y47275953D02*
X33784333Y47180715D01*
X34498619Y48704524D02*
X34498619Y48133096D01*
X34498619Y48418810D02*
X33498619Y48418810D01*
X33498619Y48418810D02*
X33641476Y48323572D01*
X33641476Y48323572D02*
X33736714Y48228334D01*
X33736714Y48228334D02*
X33784333Y48133096D01*
X37038619Y47752143D02*
X37038619Y47180715D01*
X37038619Y47466429D02*
X36038619Y47466429D01*
X36038619Y47466429D02*
X36181476Y47371191D01*
X36181476Y47371191D02*
X36276714Y47275953D01*
X36276714Y47275953D02*
X36324333Y47180715D01*
X36038619Y48371191D02*
X36038619Y48466429D01*
X36038619Y48466429D02*
X36086238Y48561667D01*
X36086238Y48561667D02*
X36133857Y48609286D01*
X36133857Y48609286D02*
X36229095Y48656905D01*
X36229095Y48656905D02*
X36419571Y48704524D01*
X36419571Y48704524D02*
X36657666Y48704524D01*
X36657666Y48704524D02*
X36848142Y48656905D01*
X36848142Y48656905D02*
X36943380Y48609286D01*
X36943380Y48609286D02*
X36991000Y48561667D01*
X36991000Y48561667D02*
X37038619Y48466429D01*
X37038619Y48466429D02*
X37038619Y48371191D01*
X37038619Y48371191D02*
X36991000Y48275953D01*
X36991000Y48275953D02*
X36943380Y48228334D01*
X36943380Y48228334D02*
X36848142Y48180715D01*
X36848142Y48180715D02*
X36657666Y48133096D01*
X36657666Y48133096D02*
X36419571Y48133096D01*
X36419571Y48133096D02*
X36229095Y48180715D01*
X36229095Y48180715D02*
X36133857Y48228334D01*
X36133857Y48228334D02*
X36086238Y48275953D01*
X36086238Y48275953D02*
X36038619Y48371191D01*
X31958619Y47752143D02*
X31958619Y47180715D01*
X31958619Y47466429D02*
X30958619Y47466429D01*
X30958619Y47466429D02*
X31101476Y47371191D01*
X31101476Y47371191D02*
X31196714Y47275953D01*
X31196714Y47275953D02*
X31244333Y47180715D01*
X31053857Y48133096D02*
X31006238Y48180715D01*
X31006238Y48180715D02*
X30958619Y48275953D01*
X30958619Y48275953D02*
X30958619Y48514048D01*
X30958619Y48514048D02*
X31006238Y48609286D01*
X31006238Y48609286D02*
X31053857Y48656905D01*
X31053857Y48656905D02*
X31149095Y48704524D01*
X31149095Y48704524D02*
X31244333Y48704524D01*
X31244333Y48704524D02*
X31387190Y48656905D01*
X31387190Y48656905D02*
X31958619Y48085477D01*
X31958619Y48085477D02*
X31958619Y48704524D01*
X24052904Y45466429D02*
X24052904Y45942619D01*
X24338619Y45371191D02*
X23338619Y45704524D01*
X23338619Y45704524D02*
X24338619Y46037857D01*
X24338619Y46942619D02*
X23862428Y46609286D01*
X24338619Y46371191D02*
X23338619Y46371191D01*
X23338619Y46371191D02*
X23338619Y46752143D01*
X23338619Y46752143D02*
X23386238Y46847381D01*
X23386238Y46847381D02*
X23433857Y46895000D01*
X23433857Y46895000D02*
X23529095Y46942619D01*
X23529095Y46942619D02*
X23671952Y46942619D01*
X23671952Y46942619D02*
X23767190Y46895000D01*
X23767190Y46895000D02*
X23814809Y46847381D01*
X23814809Y46847381D02*
X23862428Y46752143D01*
X23862428Y46752143D02*
X23862428Y46371191D01*
X23814809Y47371191D02*
X23814809Y47704524D01*
X24338619Y47847381D02*
X24338619Y47371191D01*
X24338619Y47371191D02*
X23338619Y47371191D01*
X23338619Y47371191D02*
X23338619Y47847381D01*
X23814809Y48609286D02*
X23814809Y48275953D01*
X24338619Y48275953D02*
X23338619Y48275953D01*
X23338619Y48275953D02*
X23338619Y48752143D01*
X29418619Y47752143D02*
X29418619Y47180715D01*
X29418619Y47466429D02*
X28418619Y47466429D01*
X28418619Y47466429D02*
X28561476Y47371191D01*
X28561476Y47371191D02*
X28656714Y47275953D01*
X28656714Y47275953D02*
X28704333Y47180715D01*
X28418619Y48085477D02*
X28418619Y48704524D01*
X28418619Y48704524D02*
X28799571Y48371191D01*
X28799571Y48371191D02*
X28799571Y48514048D01*
X28799571Y48514048D02*
X28847190Y48609286D01*
X28847190Y48609286D02*
X28894809Y48656905D01*
X28894809Y48656905D02*
X28990047Y48704524D01*
X28990047Y48704524D02*
X29228142Y48704524D01*
X29228142Y48704524D02*
X29323380Y48656905D01*
X29323380Y48656905D02*
X29371000Y48609286D01*
X29371000Y48609286D02*
X29418619Y48514048D01*
X29418619Y48514048D02*
X29418619Y48228334D01*
X29418619Y48228334D02*
X29371000Y48133096D01*
X29371000Y48133096D02*
X29323380Y48085477D01*
X19211000Y46323572D02*
X19258619Y46466429D01*
X19258619Y46466429D02*
X19258619Y46704524D01*
X19258619Y46704524D02*
X19211000Y46799762D01*
X19211000Y46799762D02*
X19163380Y46847381D01*
X19163380Y46847381D02*
X19068142Y46895000D01*
X19068142Y46895000D02*
X18972904Y46895000D01*
X18972904Y46895000D02*
X18877666Y46847381D01*
X18877666Y46847381D02*
X18830047Y46799762D01*
X18830047Y46799762D02*
X18782428Y46704524D01*
X18782428Y46704524D02*
X18734809Y46514048D01*
X18734809Y46514048D02*
X18687190Y46418810D01*
X18687190Y46418810D02*
X18639571Y46371191D01*
X18639571Y46371191D02*
X18544333Y46323572D01*
X18544333Y46323572D02*
X18449095Y46323572D01*
X18449095Y46323572D02*
X18353857Y46371191D01*
X18353857Y46371191D02*
X18306238Y46418810D01*
X18306238Y46418810D02*
X18258619Y46514048D01*
X18258619Y46514048D02*
X18258619Y46752143D01*
X18258619Y46752143D02*
X18306238Y46895000D01*
X19163380Y47895000D02*
X19211000Y47847381D01*
X19211000Y47847381D02*
X19258619Y47704524D01*
X19258619Y47704524D02*
X19258619Y47609286D01*
X19258619Y47609286D02*
X19211000Y47466429D01*
X19211000Y47466429D02*
X19115761Y47371191D01*
X19115761Y47371191D02*
X19020523Y47323572D01*
X19020523Y47323572D02*
X18830047Y47275953D01*
X18830047Y47275953D02*
X18687190Y47275953D01*
X18687190Y47275953D02*
X18496714Y47323572D01*
X18496714Y47323572D02*
X18401476Y47371191D01*
X18401476Y47371191D02*
X18306238Y47466429D01*
X18306238Y47466429D02*
X18258619Y47609286D01*
X18258619Y47609286D02*
X18258619Y47704524D01*
X18258619Y47704524D02*
X18306238Y47847381D01*
X18306238Y47847381D02*
X18353857Y47895000D01*
X19258619Y48799762D02*
X19258619Y48323572D01*
X19258619Y48323572D02*
X18258619Y48323572D01*
X39578619Y48228334D02*
X39578619Y48418810D01*
X39578619Y48418810D02*
X39531000Y48514048D01*
X39531000Y48514048D02*
X39483380Y48561667D01*
X39483380Y48561667D02*
X39340523Y48656905D01*
X39340523Y48656905D02*
X39150047Y48704524D01*
X39150047Y48704524D02*
X38769095Y48704524D01*
X38769095Y48704524D02*
X38673857Y48656905D01*
X38673857Y48656905D02*
X38626238Y48609286D01*
X38626238Y48609286D02*
X38578619Y48514048D01*
X38578619Y48514048D02*
X38578619Y48323572D01*
X38578619Y48323572D02*
X38626238Y48228334D01*
X38626238Y48228334D02*
X38673857Y48180715D01*
X38673857Y48180715D02*
X38769095Y48133096D01*
X38769095Y48133096D02*
X39007190Y48133096D01*
X39007190Y48133096D02*
X39102428Y48180715D01*
X39102428Y48180715D02*
X39150047Y48228334D01*
X39150047Y48228334D02*
X39197666Y48323572D01*
X39197666Y48323572D02*
X39197666Y48514048D01*
X39197666Y48514048D02*
X39150047Y48609286D01*
X39150047Y48609286D02*
X39102428Y48656905D01*
X39102428Y48656905D02*
X39007190Y48704524D01*
G36*
X26614345Y48586141D02*
G01*
X26691335Y48547646D01*
X26765447Y48473534D01*
X26803619Y48359020D01*
X26803619Y48208096D01*
X25953619Y48208096D01*
X25953619Y48359021D01*
X25991790Y48473535D01*
X26065902Y48547647D01*
X26142888Y48586141D01*
X26316424Y48629524D01*
X26440812Y48629524D01*
X26614345Y48586141D01*
G37*
G36*
X27471357Y45304524D02*
G01*
X25360643Y45304524D01*
X25360643Y46368366D01*
X25800504Y46368366D01*
X25807041Y46348754D01*
X25812862Y46328931D01*
X25813968Y46327973D01*
X25853810Y46208447D01*
X25857633Y46190873D01*
X25868473Y46180033D01*
X25877219Y46167449D01*
X25883764Y46164742D01*
X25961794Y46086712D01*
X25968238Y46075862D01*
X25986739Y46066612D01*
X26004861Y46056716D01*
X26006321Y46056821D01*
X26071224Y46024369D01*
X26077159Y46018057D01*
X26090536Y46014713D01*
X26092816Y46013573D01*
X26100948Y46012110D01*
X26277026Y45968091D01*
X26285168Y45962858D01*
X26297956Y45962858D01*
X26299460Y45962482D01*
X26308706Y45962858D01*
X26437704Y45962858D01*
X26446873Y45959756D01*
X26459281Y45962858D01*
X26460829Y45962858D01*
X26469698Y45965463D01*
X26645753Y46009477D01*
X26654367Y46008546D01*
X26666700Y46014713D01*
X26669173Y46015331D01*
X26676300Y46019514D01*
X26760890Y46061809D01*
X26773222Y46064491D01*
X26787851Y46079121D01*
X26802967Y46093180D01*
X26803329Y46094599D01*
X26881178Y46172447D01*
X26895187Y46183725D01*
X26900034Y46198267D01*
X26907380Y46211719D01*
X26906874Y46218788D01*
X26946797Y46338555D01*
X26953619Y46349169D01*
X26953619Y46369848D01*
X26954365Y46390488D01*
X26953619Y46391747D01*
X26953619Y46457027D01*
X26956734Y46469255D01*
X26950194Y46488875D01*
X26944376Y46508689D01*
X26943269Y46509648D01*
X26903426Y46629180D01*
X26899604Y46646748D01*
X26888766Y46657586D01*
X26880019Y46670172D01*
X26873470Y46672881D01*
X26845980Y46700371D01*
X26842454Y46708093D01*
X26830711Y46715640D01*
X26828788Y46717563D01*
X26821676Y46721447D01*
X26805402Y46731905D01*
X26802521Y46731905D01*
X26799994Y46733285D01*
X26780705Y46731905D01*
X26455407Y46731905D01*
X26438923Y46734275D01*
X26423770Y46727356D01*
X26407787Y46722662D01*
X26404050Y46718350D01*
X26398859Y46715979D01*
X26389851Y46701963D01*
X26378945Y46689376D01*
X26378133Y46683730D01*
X26375047Y46678927D01*
X26375047Y46662265D01*
X26372677Y46645781D01*
X26375047Y46640591D01*
X26375047Y46455647D01*
X26384290Y46424169D01*
X26417576Y46395327D01*
X26461171Y46389059D01*
X26501235Y46407355D01*
X26525047Y46444407D01*
X26525047Y46581905D01*
X26752315Y46581905D01*
X26765447Y46568773D01*
X26803619Y46454258D01*
X26803619Y46383361D01*
X26765447Y46268847D01*
X26691333Y46194735D01*
X26614347Y46156242D01*
X26440813Y46112858D01*
X26316424Y46112858D01*
X26142891Y46156242D01*
X26065902Y46194736D01*
X25991790Y46268848D01*
X25953619Y46383363D01*
X25953619Y46496342D01*
X25998142Y46585388D01*
X26003952Y46617677D01*
X25987079Y46658360D01*
X25950889Y46683462D01*
X25906873Y46685015D01*
X25869004Y46662524D01*
X25813342Y46551200D01*
X25803619Y46536070D01*
X25803619Y46520740D01*
X25800905Y46505657D01*
X25803619Y46499113D01*
X25803619Y46380593D01*
X25800504Y46368366D01*
X25360643Y46368366D01*
X25360643Y47078393D01*
X25800775Y47078393D01*
X25801548Y47076436D01*
X25801249Y47074353D01*
X25809585Y47056098D01*
X25816962Y47037432D01*
X25818670Y47036204D01*
X25819545Y47034289D01*
X25836429Y47023439D01*
X25852725Y47011724D01*
X25854827Y47011615D01*
X25856597Y47010477D01*
X25876666Y47010477D01*
X25896709Y47009433D01*
X25898536Y47010477D01*
X26889401Y47010477D01*
X26920879Y47019720D01*
X26949721Y47053006D01*
X26955989Y47096601D01*
X26937693Y47136665D01*
X26900641Y47160477D01*
X26161036Y47160477D01*
X26908193Y47587424D01*
X26920879Y47591148D01*
X26934018Y47606312D01*
X26947936Y47620779D01*
X26948343Y47622845D01*
X26949721Y47624434D01*
X26952576Y47644295D01*
X26956463Y47663989D01*
X26955689Y47665947D01*
X26955989Y47668029D01*
X26947652Y47686285D01*
X26940276Y47704950D01*
X26938567Y47706179D01*
X26937693Y47708093D01*
X26920808Y47718944D01*
X26904513Y47730658D01*
X26902410Y47730768D01*
X26900641Y47731905D01*
X26880572Y47731905D01*
X26860529Y47732949D01*
X26858702Y47731905D01*
X25867837Y47731905D01*
X25836359Y47722662D01*
X25807517Y47689376D01*
X25801249Y47645781D01*
X25819545Y47605717D01*
X25856597Y47581905D01*
X26596202Y47581905D01*
X25849044Y47154959D01*
X25836359Y47151234D01*
X25823219Y47136071D01*
X25809302Y47121603D01*
X25808894Y47119538D01*
X25807517Y47117948D01*
X25804661Y47098088D01*
X25800775Y47078393D01*
X25360643Y47078393D01*
X25360643Y48121972D01*
X25801249Y48121972D01*
X25808168Y48106820D01*
X25812862Y48090836D01*
X25817174Y48087100D01*
X25819545Y48081908D01*
X25833561Y48072901D01*
X25846148Y48061994D01*
X25851794Y48061183D01*
X25856597Y48058096D01*
X25873259Y48058096D01*
X25889743Y48055726D01*
X25894933Y48058096D01*
X26873259Y48058096D01*
X26889743Y48055726D01*
X26904895Y48062646D01*
X26920879Y48067339D01*
X26924615Y48071652D01*
X26929807Y48074022D01*
X26938814Y48088039D01*
X26949721Y48100625D01*
X26950532Y48106272D01*
X26953619Y48111074D01*
X26953619Y48127736D01*
X26955989Y48144220D01*
X26953619Y48149410D01*
X26953619Y48361789D01*
X26956734Y48374017D01*
X26950194Y48393637D01*
X26944376Y48413451D01*
X26943269Y48414410D01*
X26903427Y48533939D01*
X26899605Y48551509D01*
X26888766Y48562348D01*
X26880019Y48574934D01*
X26873471Y48577643D01*
X26795442Y48655671D01*
X26788999Y48666520D01*
X26770494Y48675773D01*
X26752375Y48685666D01*
X26750915Y48685562D01*
X26686011Y48718014D01*
X26680077Y48724325D01*
X26666699Y48727670D01*
X26664420Y48728809D01*
X26656287Y48730273D01*
X26480210Y48774292D01*
X26472069Y48779524D01*
X26459281Y48779524D01*
X26457777Y48779900D01*
X26448531Y48779524D01*
X26319533Y48779524D01*
X26310364Y48782626D01*
X26297956Y48779524D01*
X26296408Y48779524D01*
X26287538Y48776920D01*
X26111481Y48732906D01*
X26102870Y48733835D01*
X26090539Y48727670D01*
X26088064Y48727051D01*
X26080925Y48722864D01*
X25996345Y48680574D01*
X25984015Y48677891D01*
X25969395Y48663272D01*
X25954270Y48649202D01*
X25953907Y48647784D01*
X25876058Y48569935D01*
X25862051Y48558657D01*
X25857203Y48544116D01*
X25849858Y48530663D01*
X25850363Y48523596D01*
X25810441Y48403829D01*
X25803619Y48393213D01*
X25803619Y48372533D01*
X25802873Y48351894D01*
X25803619Y48350635D01*
X25803619Y48138456D01*
X25801249Y48121972D01*
X25360643Y48121972D01*
X25360643Y49262857D01*
X27471357Y49262857D01*
X27471357Y45304524D01*
G37*
X21751000Y46275953D02*
X21798619Y46418810D01*
X21798619Y46418810D02*
X21798619Y46656905D01*
X21798619Y46656905D02*
X21751000Y46752143D01*
X21751000Y46752143D02*
X21703380Y46799762D01*
X21703380Y46799762D02*
X21608142Y46847381D01*
X21608142Y46847381D02*
X21512904Y46847381D01*
X21512904Y46847381D02*
X21417666Y46799762D01*
X21417666Y46799762D02*
X21370047Y46752143D01*
X21370047Y46752143D02*
X21322428Y46656905D01*
X21322428Y46656905D02*
X21274809Y46466429D01*
X21274809Y46466429D02*
X21227190Y46371191D01*
X21227190Y46371191D02*
X21179571Y46323572D01*
X21179571Y46323572D02*
X21084333Y46275953D01*
X21084333Y46275953D02*
X20989095Y46275953D01*
X20989095Y46275953D02*
X20893857Y46323572D01*
X20893857Y46323572D02*
X20846238Y46371191D01*
X20846238Y46371191D02*
X20798619Y46466429D01*
X20798619Y46466429D02*
X20798619Y46704524D01*
X20798619Y46704524D02*
X20846238Y46847381D01*
X21798619Y47275953D02*
X20798619Y47275953D01*
X20798619Y47275953D02*
X20798619Y47514048D01*
X20798619Y47514048D02*
X20846238Y47656905D01*
X20846238Y47656905D02*
X20941476Y47752143D01*
X20941476Y47752143D02*
X21036714Y47799762D01*
X21036714Y47799762D02*
X21227190Y47847381D01*
X21227190Y47847381D02*
X21370047Y47847381D01*
X21370047Y47847381D02*
X21560523Y47799762D01*
X21560523Y47799762D02*
X21655761Y47752143D01*
X21655761Y47752143D02*
X21751000Y47656905D01*
X21751000Y47656905D02*
X21798619Y47514048D01*
X21798619Y47514048D02*
X21798619Y47275953D01*
X21512904Y48228334D02*
X21512904Y48704524D01*
X21798619Y48133096D02*
X20798619Y48466429D01*
X20798619Y48466429D02*
X21798619Y48799762D01*
%TO.C,J1*%
X60422619Y45085477D02*
X60422619Y45656905D01*
X61422619Y45371191D02*
X60422619Y45371191D01*
X60422619Y45895001D02*
X61422619Y46561667D01*
X60422619Y46561667D02*
X61422619Y45895001D01*
X61041666Y46942620D02*
X61041666Y47704524D01*
X61232142Y47514048D02*
X61041666Y47704524D01*
X61041666Y47704524D02*
X60851190Y47514048D01*
X61422619Y48704524D02*
X61422619Y48133096D01*
X61422619Y48418810D02*
X60422619Y48418810D01*
X60422619Y48418810D02*
X60565476Y48323572D01*
X60565476Y48323572D02*
X60660714Y48228334D01*
X60660714Y48228334D02*
X60708333Y48133096D01*
X55342619Y48085477D02*
X55342619Y48704524D01*
X55342619Y48704524D02*
X55723571Y48371191D01*
X55723571Y48371191D02*
X55723571Y48514048D01*
X55723571Y48514048D02*
X55771190Y48609286D01*
X55771190Y48609286D02*
X55818809Y48656905D01*
X55818809Y48656905D02*
X55914047Y48704524D01*
X55914047Y48704524D02*
X56152142Y48704524D01*
X56152142Y48704524D02*
X56247380Y48656905D01*
X56247380Y48656905D02*
X56295000Y48609286D01*
X56295000Y48609286D02*
X56342619Y48514048D01*
X56342619Y48514048D02*
X56342619Y48228334D01*
X56342619Y48228334D02*
X56295000Y48133096D01*
X56295000Y48133096D02*
X56247380Y48085477D01*
X45182619Y48085477D02*
X45182619Y48752143D01*
X45182619Y48752143D02*
X46182619Y48323572D01*
X50262619Y48656905D02*
X50262619Y48180715D01*
X50262619Y48180715D02*
X50738809Y48133096D01*
X50738809Y48133096D02*
X50691190Y48180715D01*
X50691190Y48180715D02*
X50643571Y48275953D01*
X50643571Y48275953D02*
X50643571Y48514048D01*
X50643571Y48514048D02*
X50691190Y48609286D01*
X50691190Y48609286D02*
X50738809Y48656905D01*
X50738809Y48656905D02*
X50834047Y48704524D01*
X50834047Y48704524D02*
X51072142Y48704524D01*
X51072142Y48704524D02*
X51167380Y48656905D01*
X51167380Y48656905D02*
X51215000Y48609286D01*
X51215000Y48609286D02*
X51262619Y48514048D01*
X51262619Y48514048D02*
X51262619Y48275953D01*
X51262619Y48275953D02*
X51215000Y48180715D01*
X51215000Y48180715D02*
X51167380Y48133096D01*
X57977857Y48133096D02*
X57930238Y48180715D01*
X57930238Y48180715D02*
X57882619Y48275953D01*
X57882619Y48275953D02*
X57882619Y48514048D01*
X57882619Y48514048D02*
X57930238Y48609286D01*
X57930238Y48609286D02*
X57977857Y48656905D01*
X57977857Y48656905D02*
X58073095Y48704524D01*
X58073095Y48704524D02*
X58168333Y48704524D01*
X58168333Y48704524D02*
X58311190Y48656905D01*
X58311190Y48656905D02*
X58882619Y48085477D01*
X58882619Y48085477D02*
X58882619Y48704524D01*
X47722619Y48609286D02*
X47722619Y48418810D01*
X47722619Y48418810D02*
X47770238Y48323572D01*
X47770238Y48323572D02*
X47817857Y48275953D01*
X47817857Y48275953D02*
X47960714Y48180715D01*
X47960714Y48180715D02*
X48151190Y48133096D01*
X48151190Y48133096D02*
X48532142Y48133096D01*
X48532142Y48133096D02*
X48627380Y48180715D01*
X48627380Y48180715D02*
X48675000Y48228334D01*
X48675000Y48228334D02*
X48722619Y48323572D01*
X48722619Y48323572D02*
X48722619Y48514048D01*
X48722619Y48514048D02*
X48675000Y48609286D01*
X48675000Y48609286D02*
X48627380Y48656905D01*
X48627380Y48656905D02*
X48532142Y48704524D01*
X48532142Y48704524D02*
X48294047Y48704524D01*
X48294047Y48704524D02*
X48198809Y48656905D01*
X48198809Y48656905D02*
X48151190Y48609286D01*
X48151190Y48609286D02*
X48103571Y48514048D01*
X48103571Y48514048D02*
X48103571Y48323572D01*
X48103571Y48323572D02*
X48151190Y48228334D01*
X48151190Y48228334D02*
X48198809Y48180715D01*
X48198809Y48180715D02*
X48294047Y48133096D01*
X63962619Y45561667D02*
X63486428Y45228334D01*
X63962619Y44990239D02*
X62962619Y44990239D01*
X62962619Y44990239D02*
X62962619Y45371191D01*
X62962619Y45371191D02*
X63010238Y45466429D01*
X63010238Y45466429D02*
X63057857Y45514048D01*
X63057857Y45514048D02*
X63153095Y45561667D01*
X63153095Y45561667D02*
X63295952Y45561667D01*
X63295952Y45561667D02*
X63391190Y45514048D01*
X63391190Y45514048D02*
X63438809Y45466429D01*
X63438809Y45466429D02*
X63486428Y45371191D01*
X63486428Y45371191D02*
X63486428Y44990239D01*
X62962619Y45895001D02*
X63962619Y46561667D01*
X62962619Y46561667D02*
X63962619Y45895001D01*
X63581666Y47704524D02*
X63581666Y46942620D01*
X63772142Y47133096D02*
X63581666Y46942620D01*
X63581666Y46942620D02*
X63391190Y47133096D01*
X62962619Y48371191D02*
X62962619Y48466429D01*
X62962619Y48466429D02*
X63010238Y48561667D01*
X63010238Y48561667D02*
X63057857Y48609286D01*
X63057857Y48609286D02*
X63153095Y48656905D01*
X63153095Y48656905D02*
X63343571Y48704524D01*
X63343571Y48704524D02*
X63581666Y48704524D01*
X63581666Y48704524D02*
X63772142Y48656905D01*
X63772142Y48656905D02*
X63867380Y48609286D01*
X63867380Y48609286D02*
X63915000Y48561667D01*
X63915000Y48561667D02*
X63962619Y48466429D01*
X63962619Y48466429D02*
X63962619Y48371191D01*
X63962619Y48371191D02*
X63915000Y48275953D01*
X63915000Y48275953D02*
X63867380Y48228334D01*
X63867380Y48228334D02*
X63772142Y48180715D01*
X63772142Y48180715D02*
X63581666Y48133096D01*
X63581666Y48133096D02*
X63343571Y48133096D01*
X63343571Y48133096D02*
X63153095Y48180715D01*
X63153095Y48180715D02*
X63057857Y48228334D01*
X63057857Y48228334D02*
X63010238Y48275953D01*
X63010238Y48275953D02*
X62962619Y48371191D01*
X53135952Y48609286D02*
X53802619Y48609286D01*
X52755000Y48371191D02*
X53469285Y48133096D01*
X53469285Y48133096D02*
X53469285Y48752143D01*
%TO.C,J7*%
X63415810Y32542381D02*
X63415810Y33542381D01*
X64463428Y32637620D02*
X64415809Y32590000D01*
X64415809Y32590000D02*
X64272952Y32542381D01*
X64272952Y32542381D02*
X64177714Y32542381D01*
X64177714Y32542381D02*
X64034857Y32590000D01*
X64034857Y32590000D02*
X63939619Y32685239D01*
X63939619Y32685239D02*
X63892000Y32780477D01*
X63892000Y32780477D02*
X63844381Y32970953D01*
X63844381Y32970953D02*
X63844381Y33113810D01*
X63844381Y33113810D02*
X63892000Y33304286D01*
X63892000Y33304286D02*
X63939619Y33399524D01*
X63939619Y33399524D02*
X64034857Y33494762D01*
X64034857Y33494762D02*
X64177714Y33542381D01*
X64177714Y33542381D02*
X64272952Y33542381D01*
X64272952Y33542381D02*
X64415809Y33494762D01*
X64415809Y33494762D02*
X64463428Y33447143D01*
X64844381Y32590000D02*
X64987238Y32542381D01*
X64987238Y32542381D02*
X65225333Y32542381D01*
X65225333Y32542381D02*
X65320571Y32590000D01*
X65320571Y32590000D02*
X65368190Y32637620D01*
X65368190Y32637620D02*
X65415809Y32732858D01*
X65415809Y32732858D02*
X65415809Y32828096D01*
X65415809Y32828096D02*
X65368190Y32923334D01*
X65368190Y32923334D02*
X65320571Y32970953D01*
X65320571Y32970953D02*
X65225333Y33018572D01*
X65225333Y33018572D02*
X65034857Y33066191D01*
X65034857Y33066191D02*
X64939619Y33113810D01*
X64939619Y33113810D02*
X64892000Y33161429D01*
X64892000Y33161429D02*
X64844381Y33256667D01*
X64844381Y33256667D02*
X64844381Y33351905D01*
X64844381Y33351905D02*
X64892000Y33447143D01*
X64892000Y33447143D02*
X64939619Y33494762D01*
X64939619Y33494762D02*
X65034857Y33542381D01*
X65034857Y33542381D02*
X65272952Y33542381D01*
X65272952Y33542381D02*
X65415809Y33494762D01*
X65844381Y32542381D02*
X65844381Y33542381D01*
X65844381Y33542381D02*
X66225333Y33542381D01*
X66225333Y33542381D02*
X66320571Y33494762D01*
X66320571Y33494762D02*
X66368190Y33447143D01*
X66368190Y33447143D02*
X66415809Y33351905D01*
X66415809Y33351905D02*
X66415809Y33209048D01*
X66415809Y33209048D02*
X66368190Y33113810D01*
X66368190Y33113810D02*
X66320571Y33066191D01*
X66320571Y33066191D02*
X66225333Y33018572D01*
X66225333Y33018572D02*
X65844381Y33018572D01*
%TO.C,J5*%
X6812619Y38928334D02*
X5812619Y38928334D01*
X5812619Y38928334D02*
X5812619Y39166429D01*
X5812619Y39166429D02*
X5860238Y39309286D01*
X5860238Y39309286D02*
X5955476Y39404524D01*
X5955476Y39404524D02*
X6050714Y39452143D01*
X6050714Y39452143D02*
X6241190Y39499762D01*
X6241190Y39499762D02*
X6384047Y39499762D01*
X6384047Y39499762D02*
X6574523Y39452143D01*
X6574523Y39452143D02*
X6669761Y39404524D01*
X6669761Y39404524D02*
X6765000Y39309286D01*
X6765000Y39309286D02*
X6812619Y39166429D01*
X6812619Y39166429D02*
X6812619Y38928334D01*
X6812619Y40452143D02*
X6812619Y39880715D01*
X6812619Y40166429D02*
X5812619Y40166429D01*
X5812619Y40166429D02*
X5955476Y40071191D01*
X5955476Y40071191D02*
X6050714Y39975953D01*
X6050714Y39975953D02*
X6098333Y39880715D01*
X6812619Y41404524D02*
X6812619Y40833096D01*
X6812619Y41118810D02*
X5812619Y41118810D01*
X5812619Y41118810D02*
X5955476Y41023572D01*
X5955476Y41023572D02*
X6050714Y40928334D01*
X6050714Y40928334D02*
X6098333Y40833096D01*
X22052619Y39880715D02*
X21052619Y39880715D01*
X21052619Y39880715D02*
X21052619Y40118810D01*
X21052619Y40118810D02*
X21100238Y40261667D01*
X21100238Y40261667D02*
X21195476Y40356905D01*
X21195476Y40356905D02*
X21290714Y40404524D01*
X21290714Y40404524D02*
X21481190Y40452143D01*
X21481190Y40452143D02*
X21624047Y40452143D01*
X21624047Y40452143D02*
X21814523Y40404524D01*
X21814523Y40404524D02*
X21909761Y40356905D01*
X21909761Y40356905D02*
X22005000Y40261667D01*
X22005000Y40261667D02*
X22052619Y40118810D01*
X22052619Y40118810D02*
X22052619Y39880715D01*
X21052619Y41356905D02*
X21052619Y40880715D01*
X21052619Y40880715D02*
X21528809Y40833096D01*
X21528809Y40833096D02*
X21481190Y40880715D01*
X21481190Y40880715D02*
X21433571Y40975953D01*
X21433571Y40975953D02*
X21433571Y41214048D01*
X21433571Y41214048D02*
X21481190Y41309286D01*
X21481190Y41309286D02*
X21528809Y41356905D01*
X21528809Y41356905D02*
X21624047Y41404524D01*
X21624047Y41404524D02*
X21862142Y41404524D01*
X21862142Y41404524D02*
X21957380Y41356905D01*
X21957380Y41356905D02*
X22005000Y41309286D01*
X22005000Y41309286D02*
X22052619Y41214048D01*
X22052619Y41214048D02*
X22052619Y40975953D01*
X22052619Y40975953D02*
X22005000Y40880715D01*
X22005000Y40880715D02*
X21957380Y40833096D01*
G36*
X31948345Y41286141D02*
G01*
X32025335Y41247646D01*
X32099447Y41173534D01*
X32137619Y41059020D01*
X32137619Y40908096D01*
X31287619Y40908096D01*
X31287619Y41059021D01*
X31325790Y41173535D01*
X31399902Y41247647D01*
X31476888Y41286141D01*
X31650424Y41329524D01*
X31774812Y41329524D01*
X31948345Y41286141D01*
G37*
G36*
X32805357Y38004524D02*
G01*
X30694643Y38004524D01*
X30694643Y39068366D01*
X31134504Y39068366D01*
X31141041Y39048754D01*
X31146862Y39028931D01*
X31147968Y39027973D01*
X31187810Y38908447D01*
X31191633Y38890873D01*
X31202473Y38880033D01*
X31211219Y38867449D01*
X31217764Y38864742D01*
X31295794Y38786712D01*
X31302238Y38775862D01*
X31320739Y38766612D01*
X31338861Y38756716D01*
X31340321Y38756821D01*
X31405224Y38724369D01*
X31411159Y38718057D01*
X31424536Y38714713D01*
X31426816Y38713573D01*
X31434948Y38712110D01*
X31611026Y38668091D01*
X31619168Y38662858D01*
X31631956Y38662858D01*
X31633460Y38662482D01*
X31642706Y38662858D01*
X31771704Y38662858D01*
X31780873Y38659756D01*
X31793281Y38662858D01*
X31794829Y38662858D01*
X31803698Y38665463D01*
X31979753Y38709477D01*
X31988367Y38708546D01*
X32000700Y38714713D01*
X32003173Y38715331D01*
X32010300Y38719514D01*
X32094890Y38761809D01*
X32107222Y38764491D01*
X32121851Y38779121D01*
X32136967Y38793180D01*
X32137329Y38794599D01*
X32215178Y38872447D01*
X32229187Y38883725D01*
X32234034Y38898267D01*
X32241380Y38911719D01*
X32240874Y38918788D01*
X32280797Y39038555D01*
X32287619Y39049169D01*
X32287619Y39069848D01*
X32288365Y39090488D01*
X32287619Y39091747D01*
X32287619Y39157027D01*
X32290734Y39169255D01*
X32284194Y39188875D01*
X32278376Y39208689D01*
X32277269Y39209648D01*
X32237426Y39329180D01*
X32233604Y39346748D01*
X32222766Y39357586D01*
X32214019Y39370172D01*
X32207470Y39372881D01*
X32179980Y39400371D01*
X32176454Y39408093D01*
X32164711Y39415640D01*
X32162788Y39417563D01*
X32155676Y39421447D01*
X32139402Y39431905D01*
X32136521Y39431905D01*
X32133994Y39433285D01*
X32114705Y39431905D01*
X31789407Y39431905D01*
X31772923Y39434275D01*
X31757770Y39427356D01*
X31741787Y39422662D01*
X31738050Y39418350D01*
X31732859Y39415979D01*
X31723851Y39401963D01*
X31712945Y39389376D01*
X31712133Y39383730D01*
X31709047Y39378927D01*
X31709047Y39362265D01*
X31706677Y39345781D01*
X31709047Y39340591D01*
X31709047Y39155647D01*
X31718290Y39124169D01*
X31751576Y39095327D01*
X31795171Y39089059D01*
X31835235Y39107355D01*
X31859047Y39144407D01*
X31859047Y39281905D01*
X32086315Y39281905D01*
X32099447Y39268773D01*
X32137619Y39154258D01*
X32137619Y39083361D01*
X32099447Y38968847D01*
X32025333Y38894735D01*
X31948347Y38856242D01*
X31774813Y38812858D01*
X31650424Y38812858D01*
X31476891Y38856242D01*
X31399902Y38894736D01*
X31325790Y38968848D01*
X31287619Y39083363D01*
X31287619Y39196342D01*
X31332142Y39285388D01*
X31337952Y39317677D01*
X31321079Y39358360D01*
X31284889Y39383462D01*
X31240873Y39385015D01*
X31203004Y39362524D01*
X31147342Y39251200D01*
X31137619Y39236070D01*
X31137619Y39220740D01*
X31134905Y39205657D01*
X31137619Y39199113D01*
X31137619Y39080593D01*
X31134504Y39068366D01*
X30694643Y39068366D01*
X30694643Y39778393D01*
X31134775Y39778393D01*
X31135548Y39776436D01*
X31135249Y39774353D01*
X31143585Y39756098D01*
X31150962Y39737432D01*
X31152670Y39736204D01*
X31153545Y39734289D01*
X31170429Y39723439D01*
X31186725Y39711724D01*
X31188827Y39711615D01*
X31190597Y39710477D01*
X31210666Y39710477D01*
X31230709Y39709433D01*
X31232536Y39710477D01*
X32223401Y39710477D01*
X32254879Y39719720D01*
X32283721Y39753006D01*
X32289989Y39796601D01*
X32271693Y39836665D01*
X32234641Y39860477D01*
X31495036Y39860477D01*
X32242193Y40287424D01*
X32254879Y40291148D01*
X32268018Y40306312D01*
X32281936Y40320779D01*
X32282343Y40322845D01*
X32283721Y40324434D01*
X32286576Y40344295D01*
X32290463Y40363989D01*
X32289689Y40365947D01*
X32289989Y40368029D01*
X32281652Y40386285D01*
X32274276Y40404950D01*
X32272567Y40406179D01*
X32271693Y40408093D01*
X32254808Y40418944D01*
X32238513Y40430658D01*
X32236410Y40430768D01*
X32234641Y40431905D01*
X32214572Y40431905D01*
X32194529Y40432949D01*
X32192702Y40431905D01*
X31201837Y40431905D01*
X31170359Y40422662D01*
X31141517Y40389376D01*
X31135249Y40345781D01*
X31153545Y40305717D01*
X31190597Y40281905D01*
X31930202Y40281905D01*
X31183044Y39854959D01*
X31170359Y39851234D01*
X31157219Y39836071D01*
X31143302Y39821603D01*
X31142894Y39819538D01*
X31141517Y39817948D01*
X31138661Y39798088D01*
X31134775Y39778393D01*
X30694643Y39778393D01*
X30694643Y40821972D01*
X31135249Y40821972D01*
X31142168Y40806820D01*
X31146862Y40790836D01*
X31151174Y40787100D01*
X31153545Y40781908D01*
X31167561Y40772901D01*
X31180148Y40761994D01*
X31185794Y40761183D01*
X31190597Y40758096D01*
X31207259Y40758096D01*
X31223743Y40755726D01*
X31228933Y40758096D01*
X32207259Y40758096D01*
X32223743Y40755726D01*
X32238895Y40762646D01*
X32254879Y40767339D01*
X32258615Y40771652D01*
X32263807Y40774022D01*
X32272814Y40788039D01*
X32283721Y40800625D01*
X32284532Y40806272D01*
X32287619Y40811074D01*
X32287619Y40827736D01*
X32289989Y40844220D01*
X32287619Y40849410D01*
X32287619Y41061789D01*
X32290734Y41074017D01*
X32284194Y41093637D01*
X32278376Y41113451D01*
X32277269Y41114410D01*
X32237427Y41233939D01*
X32233605Y41251509D01*
X32222766Y41262348D01*
X32214019Y41274934D01*
X32207471Y41277643D01*
X32129442Y41355671D01*
X32122999Y41366520D01*
X32104494Y41375773D01*
X32086375Y41385666D01*
X32084915Y41385562D01*
X32020011Y41418014D01*
X32014077Y41424325D01*
X32000699Y41427670D01*
X31998420Y41428809D01*
X31990287Y41430273D01*
X31814210Y41474292D01*
X31806069Y41479524D01*
X31793281Y41479524D01*
X31791777Y41479900D01*
X31782531Y41479524D01*
X31653533Y41479524D01*
X31644364Y41482626D01*
X31631956Y41479524D01*
X31630408Y41479524D01*
X31621538Y41476920D01*
X31445481Y41432906D01*
X31436870Y41433835D01*
X31424539Y41427670D01*
X31422064Y41427051D01*
X31414925Y41422864D01*
X31330345Y41380574D01*
X31318015Y41377891D01*
X31303395Y41363272D01*
X31288270Y41349202D01*
X31287907Y41347784D01*
X31210058Y41269935D01*
X31196051Y41258657D01*
X31191203Y41244116D01*
X31183858Y41230663D01*
X31184363Y41223596D01*
X31144441Y41103829D01*
X31137619Y41093213D01*
X31137619Y41072533D01*
X31136873Y41051894D01*
X31137619Y41050635D01*
X31137619Y40838456D01*
X31135249Y40821972D01*
X30694643Y40821972D01*
X30694643Y41962857D01*
X32805357Y41962857D01*
X32805357Y38004524D01*
G37*
X27132619Y39880715D02*
X26132619Y39880715D01*
X26132619Y39880715D02*
X26132619Y40118810D01*
X26132619Y40118810D02*
X26180238Y40261667D01*
X26180238Y40261667D02*
X26275476Y40356905D01*
X26275476Y40356905D02*
X26370714Y40404524D01*
X26370714Y40404524D02*
X26561190Y40452143D01*
X26561190Y40452143D02*
X26704047Y40452143D01*
X26704047Y40452143D02*
X26894523Y40404524D01*
X26894523Y40404524D02*
X26989761Y40356905D01*
X26989761Y40356905D02*
X27085000Y40261667D01*
X27085000Y40261667D02*
X27132619Y40118810D01*
X27132619Y40118810D02*
X27132619Y39880715D01*
X26132619Y40785477D02*
X26132619Y41404524D01*
X26132619Y41404524D02*
X26513571Y41071191D01*
X26513571Y41071191D02*
X26513571Y41214048D01*
X26513571Y41214048D02*
X26561190Y41309286D01*
X26561190Y41309286D02*
X26608809Y41356905D01*
X26608809Y41356905D02*
X26704047Y41404524D01*
X26704047Y41404524D02*
X26942142Y41404524D01*
X26942142Y41404524D02*
X27037380Y41356905D01*
X27037380Y41356905D02*
X27085000Y41309286D01*
X27085000Y41309286D02*
X27132619Y41214048D01*
X27132619Y41214048D02*
X27132619Y40928334D01*
X27132619Y40928334D02*
X27085000Y40833096D01*
X27085000Y40833096D02*
X27037380Y40785477D01*
X19512619Y39880715D02*
X18512619Y39880715D01*
X18512619Y39880715D02*
X18512619Y40118810D01*
X18512619Y40118810D02*
X18560238Y40261667D01*
X18560238Y40261667D02*
X18655476Y40356905D01*
X18655476Y40356905D02*
X18750714Y40404524D01*
X18750714Y40404524D02*
X18941190Y40452143D01*
X18941190Y40452143D02*
X19084047Y40452143D01*
X19084047Y40452143D02*
X19274523Y40404524D01*
X19274523Y40404524D02*
X19369761Y40356905D01*
X19369761Y40356905D02*
X19465000Y40261667D01*
X19465000Y40261667D02*
X19512619Y40118810D01*
X19512619Y40118810D02*
X19512619Y39880715D01*
X18512619Y41309286D02*
X18512619Y41118810D01*
X18512619Y41118810D02*
X18560238Y41023572D01*
X18560238Y41023572D02*
X18607857Y40975953D01*
X18607857Y40975953D02*
X18750714Y40880715D01*
X18750714Y40880715D02*
X18941190Y40833096D01*
X18941190Y40833096D02*
X19322142Y40833096D01*
X19322142Y40833096D02*
X19417380Y40880715D01*
X19417380Y40880715D02*
X19465000Y40928334D01*
X19465000Y40928334D02*
X19512619Y41023572D01*
X19512619Y41023572D02*
X19512619Y41214048D01*
X19512619Y41214048D02*
X19465000Y41309286D01*
X19465000Y41309286D02*
X19417380Y41356905D01*
X19417380Y41356905D02*
X19322142Y41404524D01*
X19322142Y41404524D02*
X19084047Y41404524D01*
X19084047Y41404524D02*
X18988809Y41356905D01*
X18988809Y41356905D02*
X18941190Y41309286D01*
X18941190Y41309286D02*
X18893571Y41214048D01*
X18893571Y41214048D02*
X18893571Y41023572D01*
X18893571Y41023572D02*
X18941190Y40928334D01*
X18941190Y40928334D02*
X18988809Y40880715D01*
X18988809Y40880715D02*
X19084047Y40833096D01*
X4272619Y38928334D02*
X3272619Y38928334D01*
X3272619Y38928334D02*
X3272619Y39166429D01*
X3272619Y39166429D02*
X3320238Y39309286D01*
X3320238Y39309286D02*
X3415476Y39404524D01*
X3415476Y39404524D02*
X3510714Y39452143D01*
X3510714Y39452143D02*
X3701190Y39499762D01*
X3701190Y39499762D02*
X3844047Y39499762D01*
X3844047Y39499762D02*
X4034523Y39452143D01*
X4034523Y39452143D02*
X4129761Y39404524D01*
X4129761Y39404524D02*
X4225000Y39309286D01*
X4225000Y39309286D02*
X4272619Y39166429D01*
X4272619Y39166429D02*
X4272619Y38928334D01*
X4272619Y40452143D02*
X4272619Y39880715D01*
X4272619Y40166429D02*
X3272619Y40166429D01*
X3272619Y40166429D02*
X3415476Y40071191D01*
X3415476Y40071191D02*
X3510714Y39975953D01*
X3510714Y39975953D02*
X3558333Y39880715D01*
X3367857Y40833096D02*
X3320238Y40880715D01*
X3320238Y40880715D02*
X3272619Y40975953D01*
X3272619Y40975953D02*
X3272619Y41214048D01*
X3272619Y41214048D02*
X3320238Y41309286D01*
X3320238Y41309286D02*
X3367857Y41356905D01*
X3367857Y41356905D02*
X3463095Y41404524D01*
X3463095Y41404524D02*
X3558333Y41404524D01*
X3558333Y41404524D02*
X3701190Y41356905D01*
X3701190Y41356905D02*
X4272619Y40785477D01*
X4272619Y40785477D02*
X4272619Y41404524D01*
X29672619Y39880715D02*
X28672619Y39880715D01*
X28672619Y39880715D02*
X28672619Y40118810D01*
X28672619Y40118810D02*
X28720238Y40261667D01*
X28720238Y40261667D02*
X28815476Y40356905D01*
X28815476Y40356905D02*
X28910714Y40404524D01*
X28910714Y40404524D02*
X29101190Y40452143D01*
X29101190Y40452143D02*
X29244047Y40452143D01*
X29244047Y40452143D02*
X29434523Y40404524D01*
X29434523Y40404524D02*
X29529761Y40356905D01*
X29529761Y40356905D02*
X29625000Y40261667D01*
X29625000Y40261667D02*
X29672619Y40118810D01*
X29672619Y40118810D02*
X29672619Y39880715D01*
X28767857Y40833096D02*
X28720238Y40880715D01*
X28720238Y40880715D02*
X28672619Y40975953D01*
X28672619Y40975953D02*
X28672619Y41214048D01*
X28672619Y41214048D02*
X28720238Y41309286D01*
X28720238Y41309286D02*
X28767857Y41356905D01*
X28767857Y41356905D02*
X28863095Y41404524D01*
X28863095Y41404524D02*
X28958333Y41404524D01*
X28958333Y41404524D02*
X29101190Y41356905D01*
X29101190Y41356905D02*
X29672619Y40785477D01*
X29672619Y40785477D02*
X29672619Y41404524D01*
X24592619Y39880715D02*
X23592619Y39880715D01*
X23592619Y39880715D02*
X23592619Y40118810D01*
X23592619Y40118810D02*
X23640238Y40261667D01*
X23640238Y40261667D02*
X23735476Y40356905D01*
X23735476Y40356905D02*
X23830714Y40404524D01*
X23830714Y40404524D02*
X24021190Y40452143D01*
X24021190Y40452143D02*
X24164047Y40452143D01*
X24164047Y40452143D02*
X24354523Y40404524D01*
X24354523Y40404524D02*
X24449761Y40356905D01*
X24449761Y40356905D02*
X24545000Y40261667D01*
X24545000Y40261667D02*
X24592619Y40118810D01*
X24592619Y40118810D02*
X24592619Y39880715D01*
X23925952Y41309286D02*
X24592619Y41309286D01*
X23545000Y41071191D02*
X24259285Y40833096D01*
X24259285Y40833096D02*
X24259285Y41452143D01*
X38832619Y39023572D02*
X38832619Y39595000D01*
X39832619Y39309286D02*
X38832619Y39309286D01*
X38832619Y39833096D02*
X39832619Y40499762D01*
X38832619Y40499762D02*
X39832619Y39833096D01*
X39832619Y41404524D02*
X39832619Y40833096D01*
X39832619Y41118810D02*
X38832619Y41118810D01*
X38832619Y41118810D02*
X38975476Y41023572D01*
X38975476Y41023572D02*
X39070714Y40928334D01*
X39070714Y40928334D02*
X39118333Y40833096D01*
X9352619Y38928334D02*
X8352619Y38928334D01*
X8352619Y38928334D02*
X8352619Y39166429D01*
X8352619Y39166429D02*
X8400238Y39309286D01*
X8400238Y39309286D02*
X8495476Y39404524D01*
X8495476Y39404524D02*
X8590714Y39452143D01*
X8590714Y39452143D02*
X8781190Y39499762D01*
X8781190Y39499762D02*
X8924047Y39499762D01*
X8924047Y39499762D02*
X9114523Y39452143D01*
X9114523Y39452143D02*
X9209761Y39404524D01*
X9209761Y39404524D02*
X9305000Y39309286D01*
X9305000Y39309286D02*
X9352619Y39166429D01*
X9352619Y39166429D02*
X9352619Y38928334D01*
X9352619Y40452143D02*
X9352619Y39880715D01*
X9352619Y40166429D02*
X8352619Y40166429D01*
X8352619Y40166429D02*
X8495476Y40071191D01*
X8495476Y40071191D02*
X8590714Y39975953D01*
X8590714Y39975953D02*
X8638333Y39880715D01*
X8352619Y41071191D02*
X8352619Y41166429D01*
X8352619Y41166429D02*
X8400238Y41261667D01*
X8400238Y41261667D02*
X8447857Y41309286D01*
X8447857Y41309286D02*
X8543095Y41356905D01*
X8543095Y41356905D02*
X8733571Y41404524D01*
X8733571Y41404524D02*
X8971666Y41404524D01*
X8971666Y41404524D02*
X9162142Y41356905D01*
X9162142Y41356905D02*
X9257380Y41309286D01*
X9257380Y41309286D02*
X9305000Y41261667D01*
X9305000Y41261667D02*
X9352619Y41166429D01*
X9352619Y41166429D02*
X9352619Y41071191D01*
X9352619Y41071191D02*
X9305000Y40975953D01*
X9305000Y40975953D02*
X9257380Y40928334D01*
X9257380Y40928334D02*
X9162142Y40880715D01*
X9162142Y40880715D02*
X8971666Y40833096D01*
X8971666Y40833096D02*
X8733571Y40833096D01*
X8733571Y40833096D02*
X8543095Y40880715D01*
X8543095Y40880715D02*
X8447857Y40928334D01*
X8447857Y40928334D02*
X8400238Y40975953D01*
X8400238Y40975953D02*
X8352619Y41071191D01*
X16972619Y39880715D02*
X15972619Y39880715D01*
X15972619Y39880715D02*
X15972619Y40118810D01*
X15972619Y40118810D02*
X16020238Y40261667D01*
X16020238Y40261667D02*
X16115476Y40356905D01*
X16115476Y40356905D02*
X16210714Y40404524D01*
X16210714Y40404524D02*
X16401190Y40452143D01*
X16401190Y40452143D02*
X16544047Y40452143D01*
X16544047Y40452143D02*
X16734523Y40404524D01*
X16734523Y40404524D02*
X16829761Y40356905D01*
X16829761Y40356905D02*
X16925000Y40261667D01*
X16925000Y40261667D02*
X16972619Y40118810D01*
X16972619Y40118810D02*
X16972619Y39880715D01*
X15972619Y40785477D02*
X15972619Y41452143D01*
X15972619Y41452143D02*
X16972619Y41023572D01*
X11892619Y39880715D02*
X10892619Y39880715D01*
X10892619Y39880715D02*
X10892619Y40118810D01*
X10892619Y40118810D02*
X10940238Y40261667D01*
X10940238Y40261667D02*
X11035476Y40356905D01*
X11035476Y40356905D02*
X11130714Y40404524D01*
X11130714Y40404524D02*
X11321190Y40452143D01*
X11321190Y40452143D02*
X11464047Y40452143D01*
X11464047Y40452143D02*
X11654523Y40404524D01*
X11654523Y40404524D02*
X11749761Y40356905D01*
X11749761Y40356905D02*
X11845000Y40261667D01*
X11845000Y40261667D02*
X11892619Y40118810D01*
X11892619Y40118810D02*
X11892619Y39880715D01*
X11892619Y40928334D02*
X11892619Y41118810D01*
X11892619Y41118810D02*
X11845000Y41214048D01*
X11845000Y41214048D02*
X11797380Y41261667D01*
X11797380Y41261667D02*
X11654523Y41356905D01*
X11654523Y41356905D02*
X11464047Y41404524D01*
X11464047Y41404524D02*
X11083095Y41404524D01*
X11083095Y41404524D02*
X10987857Y41356905D01*
X10987857Y41356905D02*
X10940238Y41309286D01*
X10940238Y41309286D02*
X10892619Y41214048D01*
X10892619Y41214048D02*
X10892619Y41023572D01*
X10892619Y41023572D02*
X10940238Y40928334D01*
X10940238Y40928334D02*
X10987857Y40880715D01*
X10987857Y40880715D02*
X11083095Y40833096D01*
X11083095Y40833096D02*
X11321190Y40833096D01*
X11321190Y40833096D02*
X11416428Y40880715D01*
X11416428Y40880715D02*
X11464047Y40928334D01*
X11464047Y40928334D02*
X11511666Y41023572D01*
X11511666Y41023572D02*
X11511666Y41214048D01*
X11511666Y41214048D02*
X11464047Y41309286D01*
X11464047Y41309286D02*
X11416428Y41356905D01*
X11416428Y41356905D02*
X11321190Y41404524D01*
X14432619Y39880715D02*
X13432619Y39880715D01*
X13432619Y39880715D02*
X13432619Y40118810D01*
X13432619Y40118810D02*
X13480238Y40261667D01*
X13480238Y40261667D02*
X13575476Y40356905D01*
X13575476Y40356905D02*
X13670714Y40404524D01*
X13670714Y40404524D02*
X13861190Y40452143D01*
X13861190Y40452143D02*
X14004047Y40452143D01*
X14004047Y40452143D02*
X14194523Y40404524D01*
X14194523Y40404524D02*
X14289761Y40356905D01*
X14289761Y40356905D02*
X14385000Y40261667D01*
X14385000Y40261667D02*
X14432619Y40118810D01*
X14432619Y40118810D02*
X14432619Y39880715D01*
X13861190Y41023572D02*
X13813571Y40928334D01*
X13813571Y40928334D02*
X13765952Y40880715D01*
X13765952Y40880715D02*
X13670714Y40833096D01*
X13670714Y40833096D02*
X13623095Y40833096D01*
X13623095Y40833096D02*
X13527857Y40880715D01*
X13527857Y40880715D02*
X13480238Y40928334D01*
X13480238Y40928334D02*
X13432619Y41023572D01*
X13432619Y41023572D02*
X13432619Y41214048D01*
X13432619Y41214048D02*
X13480238Y41309286D01*
X13480238Y41309286D02*
X13527857Y41356905D01*
X13527857Y41356905D02*
X13623095Y41404524D01*
X13623095Y41404524D02*
X13670714Y41404524D01*
X13670714Y41404524D02*
X13765952Y41356905D01*
X13765952Y41356905D02*
X13813571Y41309286D01*
X13813571Y41309286D02*
X13861190Y41214048D01*
X13861190Y41214048D02*
X13861190Y41023572D01*
X13861190Y41023572D02*
X13908809Y40928334D01*
X13908809Y40928334D02*
X13956428Y40880715D01*
X13956428Y40880715D02*
X14051666Y40833096D01*
X14051666Y40833096D02*
X14242142Y40833096D01*
X14242142Y40833096D02*
X14337380Y40880715D01*
X14337380Y40880715D02*
X14385000Y40928334D01*
X14385000Y40928334D02*
X14432619Y41023572D01*
X14432619Y41023572D02*
X14432619Y41214048D01*
X14432619Y41214048D02*
X14385000Y41309286D01*
X14385000Y41309286D02*
X14337380Y41356905D01*
X14337380Y41356905D02*
X14242142Y41404524D01*
X14242142Y41404524D02*
X14051666Y41404524D01*
X14051666Y41404524D02*
X13956428Y41356905D01*
X13956428Y41356905D02*
X13908809Y41309286D01*
X13908809Y41309286D02*
X13861190Y41214048D01*
X37292619Y39499762D02*
X36816428Y39166429D01*
X37292619Y38928334D02*
X36292619Y38928334D01*
X36292619Y38928334D02*
X36292619Y39309286D01*
X36292619Y39309286D02*
X36340238Y39404524D01*
X36340238Y39404524D02*
X36387857Y39452143D01*
X36387857Y39452143D02*
X36483095Y39499762D01*
X36483095Y39499762D02*
X36625952Y39499762D01*
X36625952Y39499762D02*
X36721190Y39452143D01*
X36721190Y39452143D02*
X36768809Y39404524D01*
X36768809Y39404524D02*
X36816428Y39309286D01*
X36816428Y39309286D02*
X36816428Y38928334D01*
X36292619Y39833096D02*
X37292619Y40499762D01*
X36292619Y40499762D02*
X37292619Y39833096D01*
X36292619Y41071191D02*
X36292619Y41166429D01*
X36292619Y41166429D02*
X36340238Y41261667D01*
X36340238Y41261667D02*
X36387857Y41309286D01*
X36387857Y41309286D02*
X36483095Y41356905D01*
X36483095Y41356905D02*
X36673571Y41404524D01*
X36673571Y41404524D02*
X36911666Y41404524D01*
X36911666Y41404524D02*
X37102142Y41356905D01*
X37102142Y41356905D02*
X37197380Y41309286D01*
X37197380Y41309286D02*
X37245000Y41261667D01*
X37245000Y41261667D02*
X37292619Y41166429D01*
X37292619Y41166429D02*
X37292619Y41071191D01*
X37292619Y41071191D02*
X37245000Y40975953D01*
X37245000Y40975953D02*
X37197380Y40928334D01*
X37197380Y40928334D02*
X37102142Y40880715D01*
X37102142Y40880715D02*
X36911666Y40833096D01*
X36911666Y40833096D02*
X36673571Y40833096D01*
X36673571Y40833096D02*
X36483095Y40880715D01*
X36483095Y40880715D02*
X36387857Y40928334D01*
X36387857Y40928334D02*
X36340238Y40975953D01*
X36340238Y40975953D02*
X36292619Y41071191D01*
X34752619Y39690238D02*
X34276428Y39356905D01*
X34752619Y39118810D02*
X33752619Y39118810D01*
X33752619Y39118810D02*
X33752619Y39499762D01*
X33752619Y39499762D02*
X33800238Y39595000D01*
X33800238Y39595000D02*
X33847857Y39642619D01*
X33847857Y39642619D02*
X33943095Y39690238D01*
X33943095Y39690238D02*
X34085952Y39690238D01*
X34085952Y39690238D02*
X34181190Y39642619D01*
X34181190Y39642619D02*
X34228809Y39595000D01*
X34228809Y39595000D02*
X34276428Y39499762D01*
X34276428Y39499762D02*
X34276428Y39118810D01*
X34705000Y40071191D02*
X34752619Y40214048D01*
X34752619Y40214048D02*
X34752619Y40452143D01*
X34752619Y40452143D02*
X34705000Y40547381D01*
X34705000Y40547381D02*
X34657380Y40595000D01*
X34657380Y40595000D02*
X34562142Y40642619D01*
X34562142Y40642619D02*
X34466904Y40642619D01*
X34466904Y40642619D02*
X34371666Y40595000D01*
X34371666Y40595000D02*
X34324047Y40547381D01*
X34324047Y40547381D02*
X34276428Y40452143D01*
X34276428Y40452143D02*
X34228809Y40261667D01*
X34228809Y40261667D02*
X34181190Y40166429D01*
X34181190Y40166429D02*
X34133571Y40118810D01*
X34133571Y40118810D02*
X34038333Y40071191D01*
X34038333Y40071191D02*
X33943095Y40071191D01*
X33943095Y40071191D02*
X33847857Y40118810D01*
X33847857Y40118810D02*
X33800238Y40166429D01*
X33800238Y40166429D02*
X33752619Y40261667D01*
X33752619Y40261667D02*
X33752619Y40499762D01*
X33752619Y40499762D02*
X33800238Y40642619D01*
X33752619Y40928334D02*
X33752619Y41499762D01*
X34752619Y41214048D02*
X33752619Y41214048D01*
%TO.C,J6*%
X31212619Y30879286D02*
X31212619Y30403096D01*
X31212619Y30403096D02*
X31688809Y30355477D01*
X31688809Y30355477D02*
X31641190Y30403096D01*
X31641190Y30403096D02*
X31593571Y30498334D01*
X31593571Y30498334D02*
X31593571Y30736429D01*
X31593571Y30736429D02*
X31641190Y30831667D01*
X31641190Y30831667D02*
X31688809Y30879286D01*
X31688809Y30879286D02*
X31784047Y30926905D01*
X31784047Y30926905D02*
X32022142Y30926905D01*
X32022142Y30926905D02*
X32117380Y30879286D01*
X32117380Y30879286D02*
X32165000Y30831667D01*
X32165000Y30831667D02*
X32212619Y30736429D01*
X32212619Y30736429D02*
X32212619Y30498334D01*
X32212619Y30498334D02*
X32165000Y30403096D01*
X32165000Y30403096D02*
X32117380Y30355477D01*
X31212619Y31212620D02*
X32212619Y31545953D01*
X32212619Y31545953D02*
X31212619Y31879286D01*
X5812619Y30307858D02*
X5812619Y30926905D01*
X5812619Y30926905D02*
X6193571Y30593572D01*
X6193571Y30593572D02*
X6193571Y30736429D01*
X6193571Y30736429D02*
X6241190Y30831667D01*
X6241190Y30831667D02*
X6288809Y30879286D01*
X6288809Y30879286D02*
X6384047Y30926905D01*
X6384047Y30926905D02*
X6622142Y30926905D01*
X6622142Y30926905D02*
X6717380Y30879286D01*
X6717380Y30879286D02*
X6765000Y30831667D01*
X6765000Y30831667D02*
X6812619Y30736429D01*
X6812619Y30736429D02*
X6812619Y30450715D01*
X6812619Y30450715D02*
X6765000Y30355477D01*
X6765000Y30355477D02*
X6717380Y30307858D01*
X6717380Y31355477D02*
X6765000Y31403096D01*
X6765000Y31403096D02*
X6812619Y31355477D01*
X6812619Y31355477D02*
X6765000Y31307858D01*
X6765000Y31307858D02*
X6717380Y31355477D01*
X6717380Y31355477D02*
X6812619Y31355477D01*
X5812619Y31736429D02*
X5812619Y32355476D01*
X5812619Y32355476D02*
X6193571Y32022143D01*
X6193571Y32022143D02*
X6193571Y32165000D01*
X6193571Y32165000D02*
X6241190Y32260238D01*
X6241190Y32260238D02*
X6288809Y32307857D01*
X6288809Y32307857D02*
X6384047Y32355476D01*
X6384047Y32355476D02*
X6622142Y32355476D01*
X6622142Y32355476D02*
X6717380Y32307857D01*
X6717380Y32307857D02*
X6765000Y32260238D01*
X6765000Y32260238D02*
X6812619Y32165000D01*
X6812619Y32165000D02*
X6812619Y31879286D01*
X6812619Y31879286D02*
X6765000Y31784048D01*
X6765000Y31784048D02*
X6717380Y31736429D01*
X5812619Y32641191D02*
X6812619Y32974524D01*
X6812619Y32974524D02*
X5812619Y33307857D01*
X11606904Y30355477D02*
X11606904Y30831667D01*
X11892619Y30260239D02*
X10892619Y30593572D01*
X10892619Y30593572D02*
X11892619Y30926905D01*
X10892619Y31450715D02*
X10892619Y31545953D01*
X10892619Y31545953D02*
X10940238Y31641191D01*
X10940238Y31641191D02*
X10987857Y31688810D01*
X10987857Y31688810D02*
X11083095Y31736429D01*
X11083095Y31736429D02*
X11273571Y31784048D01*
X11273571Y31784048D02*
X11511666Y31784048D01*
X11511666Y31784048D02*
X11702142Y31736429D01*
X11702142Y31736429D02*
X11797380Y31688810D01*
X11797380Y31688810D02*
X11845000Y31641191D01*
X11845000Y31641191D02*
X11892619Y31545953D01*
X11892619Y31545953D02*
X11892619Y31450715D01*
X11892619Y31450715D02*
X11845000Y31355477D01*
X11845000Y31355477D02*
X11797380Y31307858D01*
X11797380Y31307858D02*
X11702142Y31260239D01*
X11702142Y31260239D02*
X11511666Y31212620D01*
X11511666Y31212620D02*
X11273571Y31212620D01*
X11273571Y31212620D02*
X11083095Y31260239D01*
X11083095Y31260239D02*
X10987857Y31307858D01*
X10987857Y31307858D02*
X10940238Y31355477D01*
X10940238Y31355477D02*
X10892619Y31450715D01*
X29386904Y30355477D02*
X29386904Y30831667D01*
X29672619Y30260239D02*
X28672619Y30593572D01*
X28672619Y30593572D02*
X29672619Y30926905D01*
X28672619Y31165001D02*
X28672619Y31831667D01*
X28672619Y31831667D02*
X29672619Y31403096D01*
X34752619Y30974524D02*
X34276428Y30641191D01*
X34752619Y30403096D02*
X33752619Y30403096D01*
X33752619Y30403096D02*
X33752619Y30784048D01*
X33752619Y30784048D02*
X33800238Y30879286D01*
X33800238Y30879286D02*
X33847857Y30926905D01*
X33847857Y30926905D02*
X33943095Y30974524D01*
X33943095Y30974524D02*
X34085952Y30974524D01*
X34085952Y30974524D02*
X34181190Y30926905D01*
X34181190Y30926905D02*
X34228809Y30879286D01*
X34228809Y30879286D02*
X34276428Y30784048D01*
X34276428Y30784048D02*
X34276428Y30403096D01*
X34705000Y31355477D02*
X34752619Y31498334D01*
X34752619Y31498334D02*
X34752619Y31736429D01*
X34752619Y31736429D02*
X34705000Y31831667D01*
X34705000Y31831667D02*
X34657380Y31879286D01*
X34657380Y31879286D02*
X34562142Y31926905D01*
X34562142Y31926905D02*
X34466904Y31926905D01*
X34466904Y31926905D02*
X34371666Y31879286D01*
X34371666Y31879286D02*
X34324047Y31831667D01*
X34324047Y31831667D02*
X34276428Y31736429D01*
X34276428Y31736429D02*
X34228809Y31545953D01*
X34228809Y31545953D02*
X34181190Y31450715D01*
X34181190Y31450715D02*
X34133571Y31403096D01*
X34133571Y31403096D02*
X34038333Y31355477D01*
X34038333Y31355477D02*
X33943095Y31355477D01*
X33943095Y31355477D02*
X33847857Y31403096D01*
X33847857Y31403096D02*
X33800238Y31450715D01*
X33800238Y31450715D02*
X33752619Y31545953D01*
X33752619Y31545953D02*
X33752619Y31784048D01*
X33752619Y31784048D02*
X33800238Y31926905D01*
X33752619Y32212620D02*
X33752619Y32784048D01*
X34752619Y32498334D02*
X33752619Y32498334D01*
X26846904Y30355477D02*
X26846904Y30831667D01*
X27132619Y30260239D02*
X26132619Y30593572D01*
X26132619Y30593572D02*
X27132619Y30926905D01*
X26132619Y31688810D02*
X26132619Y31498334D01*
X26132619Y31498334D02*
X26180238Y31403096D01*
X26180238Y31403096D02*
X26227857Y31355477D01*
X26227857Y31355477D02*
X26370714Y31260239D01*
X26370714Y31260239D02*
X26561190Y31212620D01*
X26561190Y31212620D02*
X26942142Y31212620D01*
X26942142Y31212620D02*
X27037380Y31260239D01*
X27037380Y31260239D02*
X27085000Y31307858D01*
X27085000Y31307858D02*
X27132619Y31403096D01*
X27132619Y31403096D02*
X27132619Y31593572D01*
X27132619Y31593572D02*
X27085000Y31688810D01*
X27085000Y31688810D02*
X27037380Y31736429D01*
X27037380Y31736429D02*
X26942142Y31784048D01*
X26942142Y31784048D02*
X26704047Y31784048D01*
X26704047Y31784048D02*
X26608809Y31736429D01*
X26608809Y31736429D02*
X26561190Y31688810D01*
X26561190Y31688810D02*
X26513571Y31593572D01*
X26513571Y31593572D02*
X26513571Y31403096D01*
X26513571Y31403096D02*
X26561190Y31307858D01*
X26561190Y31307858D02*
X26608809Y31260239D01*
X26608809Y31260239D02*
X26704047Y31212620D01*
X19226904Y30355477D02*
X19226904Y30831667D01*
X19512619Y30260239D02*
X18512619Y30593572D01*
X18512619Y30593572D02*
X19512619Y30926905D01*
X18512619Y31165001D02*
X18512619Y31784048D01*
X18512619Y31784048D02*
X18893571Y31450715D01*
X18893571Y31450715D02*
X18893571Y31593572D01*
X18893571Y31593572D02*
X18941190Y31688810D01*
X18941190Y31688810D02*
X18988809Y31736429D01*
X18988809Y31736429D02*
X19084047Y31784048D01*
X19084047Y31784048D02*
X19322142Y31784048D01*
X19322142Y31784048D02*
X19417380Y31736429D01*
X19417380Y31736429D02*
X19465000Y31688810D01*
X19465000Y31688810D02*
X19512619Y31593572D01*
X19512619Y31593572D02*
X19512619Y31307858D01*
X19512619Y31307858D02*
X19465000Y31212620D01*
X19465000Y31212620D02*
X19417380Y31165001D01*
G36*
X37028345Y32903760D02*
G01*
X37105335Y32865265D01*
X37179447Y32791153D01*
X37217619Y32676639D01*
X37217619Y32525715D01*
X36367619Y32525715D01*
X36367619Y32676640D01*
X36405790Y32791154D01*
X36479902Y32865266D01*
X36556888Y32903760D01*
X36730424Y32947143D01*
X36854812Y32947143D01*
X37028345Y32903760D01*
G37*
G36*
X37885357Y29797143D02*
G01*
X35774643Y29797143D01*
X35774643Y30685985D01*
X36214504Y30685985D01*
X36221041Y30666373D01*
X36226862Y30646550D01*
X36227968Y30645592D01*
X36267810Y30526066D01*
X36271633Y30508492D01*
X36282473Y30497652D01*
X36291219Y30485068D01*
X36297764Y30482361D01*
X36375794Y30404331D01*
X36382238Y30393481D01*
X36400739Y30384231D01*
X36418861Y30374335D01*
X36420321Y30374440D01*
X36485224Y30341988D01*
X36491159Y30335676D01*
X36504536Y30332332D01*
X36506816Y30331192D01*
X36514948Y30329729D01*
X36691026Y30285710D01*
X36699168Y30280477D01*
X36711956Y30280477D01*
X36713460Y30280101D01*
X36722706Y30280477D01*
X36851704Y30280477D01*
X36860873Y30277375D01*
X36873281Y30280477D01*
X36874829Y30280477D01*
X36883698Y30283082D01*
X37059753Y30327096D01*
X37068367Y30326165D01*
X37080700Y30332332D01*
X37083173Y30332950D01*
X37090300Y30337133D01*
X37174890Y30379428D01*
X37187222Y30382110D01*
X37201851Y30396740D01*
X37216967Y30410799D01*
X37217329Y30412218D01*
X37295178Y30490066D01*
X37309187Y30501344D01*
X37314034Y30515886D01*
X37321380Y30529338D01*
X37320874Y30536407D01*
X37360797Y30656174D01*
X37367619Y30666788D01*
X37367619Y30687467D01*
X37368365Y30708107D01*
X37367619Y30709366D01*
X37367619Y30774646D01*
X37370734Y30786874D01*
X37364194Y30806494D01*
X37358376Y30826308D01*
X37357269Y30827267D01*
X37317426Y30946799D01*
X37313604Y30964367D01*
X37302766Y30975205D01*
X37294019Y30987791D01*
X37287470Y30990500D01*
X37259980Y31017990D01*
X37256454Y31025712D01*
X37244711Y31033259D01*
X37242788Y31035182D01*
X37235676Y31039066D01*
X37219402Y31049524D01*
X37216521Y31049524D01*
X37213994Y31050904D01*
X37194705Y31049524D01*
X36869407Y31049524D01*
X36852923Y31051894D01*
X36837770Y31044975D01*
X36821787Y31040281D01*
X36818050Y31035969D01*
X36812859Y31033598D01*
X36803851Y31019582D01*
X36792945Y31006995D01*
X36792133Y31001349D01*
X36789047Y30996546D01*
X36789047Y30979884D01*
X36786677Y30963400D01*
X36789047Y30958210D01*
X36789047Y30773266D01*
X36798290Y30741788D01*
X36831576Y30712946D01*
X36875171Y30706678D01*
X36915235Y30724974D01*
X36939047Y30762026D01*
X36939047Y30899524D01*
X37166315Y30899524D01*
X37179447Y30886392D01*
X37217619Y30771877D01*
X37217619Y30700980D01*
X37179447Y30586466D01*
X37105333Y30512354D01*
X37028347Y30473861D01*
X36854813Y30430477D01*
X36730424Y30430477D01*
X36556891Y30473861D01*
X36479902Y30512355D01*
X36405790Y30586467D01*
X36367619Y30700982D01*
X36367619Y30813961D01*
X36412142Y30903007D01*
X36417952Y30935296D01*
X36401079Y30975979D01*
X36364889Y31001081D01*
X36320873Y31002634D01*
X36283004Y30980143D01*
X36227342Y30868819D01*
X36217619Y30853689D01*
X36217619Y30838359D01*
X36214905Y30823276D01*
X36217619Y30816732D01*
X36217619Y30698212D01*
X36214504Y30685985D01*
X35774643Y30685985D01*
X35774643Y31396012D01*
X36214775Y31396012D01*
X36215548Y31394055D01*
X36215249Y31391972D01*
X36223585Y31373717D01*
X36230962Y31355051D01*
X36232670Y31353823D01*
X36233545Y31351908D01*
X36250429Y31341058D01*
X36266725Y31329343D01*
X36268827Y31329234D01*
X36270597Y31328096D01*
X36290666Y31328096D01*
X36310709Y31327052D01*
X36312536Y31328096D01*
X37303401Y31328096D01*
X37334879Y31337339D01*
X37363721Y31370625D01*
X37369989Y31414220D01*
X37351693Y31454284D01*
X37314641Y31478096D01*
X36575036Y31478096D01*
X37322193Y31905043D01*
X37334879Y31908767D01*
X37348018Y31923931D01*
X37361936Y31938398D01*
X37362343Y31940464D01*
X37363721Y31942053D01*
X37366576Y31961914D01*
X37370463Y31981608D01*
X37369689Y31983566D01*
X37369989Y31985648D01*
X37361652Y32003904D01*
X37354276Y32022569D01*
X37352567Y32023798D01*
X37351693Y32025712D01*
X37334808Y32036563D01*
X37318513Y32048277D01*
X37316410Y32048387D01*
X37314641Y32049524D01*
X37294572Y32049524D01*
X37274529Y32050568D01*
X37272702Y32049524D01*
X36281837Y32049524D01*
X36250359Y32040281D01*
X36221517Y32006995D01*
X36215249Y31963400D01*
X36233545Y31923336D01*
X36270597Y31899524D01*
X37010202Y31899524D01*
X36263044Y31472578D01*
X36250359Y31468853D01*
X36237219Y31453690D01*
X36223302Y31439222D01*
X36222894Y31437157D01*
X36221517Y31435567D01*
X36218661Y31415707D01*
X36214775Y31396012D01*
X35774643Y31396012D01*
X35774643Y32439591D01*
X36215249Y32439591D01*
X36222168Y32424439D01*
X36226862Y32408455D01*
X36231174Y32404719D01*
X36233545Y32399527D01*
X36247561Y32390520D01*
X36260148Y32379613D01*
X36265794Y32378802D01*
X36270597Y32375715D01*
X36287259Y32375715D01*
X36303743Y32373345D01*
X36308933Y32375715D01*
X37287259Y32375715D01*
X37303743Y32373345D01*
X37318895Y32380265D01*
X37334879Y32384958D01*
X37338615Y32389271D01*
X37343807Y32391641D01*
X37352814Y32405658D01*
X37363721Y32418244D01*
X37364532Y32423891D01*
X37367619Y32428693D01*
X37367619Y32445355D01*
X37369989Y32461839D01*
X37367619Y32467029D01*
X37367619Y32679408D01*
X37370734Y32691636D01*
X37364194Y32711256D01*
X37358376Y32731070D01*
X37357269Y32732029D01*
X37317427Y32851558D01*
X37313605Y32869128D01*
X37302766Y32879967D01*
X37294019Y32892553D01*
X37287471Y32895262D01*
X37209442Y32973290D01*
X37202999Y32984139D01*
X37184494Y32993392D01*
X37166375Y33003285D01*
X37164915Y33003181D01*
X37100011Y33035633D01*
X37094077Y33041944D01*
X37080699Y33045289D01*
X37078420Y33046428D01*
X37070287Y33047892D01*
X36894210Y33091911D01*
X36886069Y33097143D01*
X36873281Y33097143D01*
X36871777Y33097519D01*
X36862531Y33097143D01*
X36733533Y33097143D01*
X36724364Y33100245D01*
X36711956Y33097143D01*
X36710408Y33097143D01*
X36701538Y33094539D01*
X36525481Y33050525D01*
X36516870Y33051454D01*
X36504539Y33045289D01*
X36502064Y33044670D01*
X36494925Y33040483D01*
X36410345Y32998193D01*
X36398015Y32995510D01*
X36383395Y32980891D01*
X36368270Y32966821D01*
X36367907Y32965403D01*
X36290058Y32887554D01*
X36276051Y32876276D01*
X36271203Y32861735D01*
X36263858Y32848282D01*
X36264363Y32841215D01*
X36224441Y32721448D01*
X36217619Y32710832D01*
X36217619Y32690152D01*
X36216873Y32669513D01*
X36217619Y32668254D01*
X36217619Y32456075D01*
X36215249Y32439591D01*
X35774643Y32439591D01*
X35774643Y33755476D01*
X37885357Y33755476D01*
X37885357Y29797143D01*
G37*
X24306904Y30355477D02*
X24306904Y30831667D01*
X24592619Y30260239D02*
X23592619Y30593572D01*
X23592619Y30593572D02*
X24592619Y30926905D01*
X23592619Y31736429D02*
X23592619Y31260239D01*
X23592619Y31260239D02*
X24068809Y31212620D01*
X24068809Y31212620D02*
X24021190Y31260239D01*
X24021190Y31260239D02*
X23973571Y31355477D01*
X23973571Y31355477D02*
X23973571Y31593572D01*
X23973571Y31593572D02*
X24021190Y31688810D01*
X24021190Y31688810D02*
X24068809Y31736429D01*
X24068809Y31736429D02*
X24164047Y31784048D01*
X24164047Y31784048D02*
X24402142Y31784048D01*
X24402142Y31784048D02*
X24497380Y31736429D01*
X24497380Y31736429D02*
X24545000Y31688810D01*
X24545000Y31688810D02*
X24592619Y31593572D01*
X24592619Y31593572D02*
X24592619Y31355477D01*
X24592619Y31355477D02*
X24545000Y31260239D01*
X24545000Y31260239D02*
X24497380Y31212620D01*
X9352619Y30974524D02*
X8876428Y30641191D01*
X9352619Y30403096D02*
X8352619Y30403096D01*
X8352619Y30403096D02*
X8352619Y30784048D01*
X8352619Y30784048D02*
X8400238Y30879286D01*
X8400238Y30879286D02*
X8447857Y30926905D01*
X8447857Y30926905D02*
X8543095Y30974524D01*
X8543095Y30974524D02*
X8685952Y30974524D01*
X8685952Y30974524D02*
X8781190Y30926905D01*
X8781190Y30926905D02*
X8828809Y30879286D01*
X8828809Y30879286D02*
X8876428Y30784048D01*
X8876428Y30784048D02*
X8876428Y30403096D01*
X8828809Y31403096D02*
X8828809Y31736429D01*
X9352619Y31879286D02*
X9352619Y31403096D01*
X9352619Y31403096D02*
X8352619Y31403096D01*
X8352619Y31403096D02*
X8352619Y31879286D01*
X8828809Y32641191D02*
X8828809Y32307858D01*
X9352619Y32307858D02*
X8352619Y32307858D01*
X8352619Y32307858D02*
X8352619Y32784048D01*
X16686904Y30355477D02*
X16686904Y30831667D01*
X16972619Y30260239D02*
X15972619Y30593572D01*
X15972619Y30593572D02*
X16972619Y30926905D01*
X16067857Y31212620D02*
X16020238Y31260239D01*
X16020238Y31260239D02*
X15972619Y31355477D01*
X15972619Y31355477D02*
X15972619Y31593572D01*
X15972619Y31593572D02*
X16020238Y31688810D01*
X16020238Y31688810D02*
X16067857Y31736429D01*
X16067857Y31736429D02*
X16163095Y31784048D01*
X16163095Y31784048D02*
X16258333Y31784048D01*
X16258333Y31784048D02*
X16401190Y31736429D01*
X16401190Y31736429D02*
X16972619Y31165001D01*
X16972619Y31165001D02*
X16972619Y31784048D01*
X14146904Y30355477D02*
X14146904Y30831667D01*
X14432619Y30260239D02*
X13432619Y30593572D01*
X13432619Y30593572D02*
X14432619Y30926905D01*
X14432619Y31784048D02*
X14432619Y31212620D01*
X14432619Y31498334D02*
X13432619Y31498334D01*
X13432619Y31498334D02*
X13575476Y31403096D01*
X13575476Y31403096D02*
X13670714Y31307858D01*
X13670714Y31307858D02*
X13718333Y31212620D01*
X4272619Y30403096D02*
X3272619Y30403096D01*
X3272619Y30403096D02*
X3272619Y30641191D01*
X3272619Y30641191D02*
X3320238Y30784048D01*
X3320238Y30784048D02*
X3415476Y30879286D01*
X3415476Y30879286D02*
X3510714Y30926905D01*
X3510714Y30926905D02*
X3701190Y30974524D01*
X3701190Y30974524D02*
X3844047Y30974524D01*
X3844047Y30974524D02*
X4034523Y30926905D01*
X4034523Y30926905D02*
X4129761Y30879286D01*
X4129761Y30879286D02*
X4225000Y30784048D01*
X4225000Y30784048D02*
X4272619Y30641191D01*
X4272619Y30641191D02*
X4272619Y30403096D01*
X4272619Y31926905D02*
X4272619Y31355477D01*
X4272619Y31641191D02*
X3272619Y31641191D01*
X3272619Y31641191D02*
X3415476Y31545953D01*
X3415476Y31545953D02*
X3510714Y31450715D01*
X3510714Y31450715D02*
X3558333Y31355477D01*
X3272619Y32260239D02*
X3272619Y32879286D01*
X3272619Y32879286D02*
X3653571Y32545953D01*
X3653571Y32545953D02*
X3653571Y32688810D01*
X3653571Y32688810D02*
X3701190Y32784048D01*
X3701190Y32784048D02*
X3748809Y32831667D01*
X3748809Y32831667D02*
X3844047Y32879286D01*
X3844047Y32879286D02*
X4082142Y32879286D01*
X4082142Y32879286D02*
X4177380Y32831667D01*
X4177380Y32831667D02*
X4225000Y32784048D01*
X4225000Y32784048D02*
X4272619Y32688810D01*
X4272619Y32688810D02*
X4272619Y32403096D01*
X4272619Y32403096D02*
X4225000Y32307858D01*
X4225000Y32307858D02*
X4177380Y32260239D01*
X21766904Y30355477D02*
X21766904Y30831667D01*
X22052619Y30260239D02*
X21052619Y30593572D01*
X21052619Y30593572D02*
X22052619Y30926905D01*
X21385952Y31688810D02*
X22052619Y31688810D01*
X21005000Y31450715D02*
X21719285Y31212620D01*
X21719285Y31212620D02*
X21719285Y31831667D01*
X38832619Y30260239D02*
X39832619Y30593572D01*
X39832619Y30593572D02*
X38832619Y30926905D01*
X39832619Y31260239D02*
X38832619Y31260239D01*
X39832619Y31736429D02*
X38832619Y31736429D01*
X38832619Y31736429D02*
X39832619Y32307857D01*
X39832619Y32307857D02*
X38832619Y32307857D01*
%TO.C,SW1*%
X12477619Y47847619D02*
X12001428Y47514286D01*
X12477619Y47276191D02*
X11477619Y47276191D01*
X11477619Y47276191D02*
X11477619Y47657143D01*
X11477619Y47657143D02*
X11525238Y47752381D01*
X11525238Y47752381D02*
X11572857Y47800000D01*
X11572857Y47800000D02*
X11668095Y47847619D01*
X11668095Y47847619D02*
X11810952Y47847619D01*
X11810952Y47847619D02*
X11906190Y47800000D01*
X11906190Y47800000D02*
X11953809Y47752381D01*
X11953809Y47752381D02*
X12001428Y47657143D01*
X12001428Y47657143D02*
X12001428Y47276191D01*
X11953809Y48276191D02*
X11953809Y48609524D01*
X12477619Y48752381D02*
X12477619Y48276191D01*
X12477619Y48276191D02*
X11477619Y48276191D01*
X11477619Y48276191D02*
X11477619Y48752381D01*
X12430000Y49133334D02*
X12477619Y49276191D01*
X12477619Y49276191D02*
X12477619Y49514286D01*
X12477619Y49514286D02*
X12430000Y49609524D01*
X12430000Y49609524D02*
X12382380Y49657143D01*
X12382380Y49657143D02*
X12287142Y49704762D01*
X12287142Y49704762D02*
X12191904Y49704762D01*
X12191904Y49704762D02*
X12096666Y49657143D01*
X12096666Y49657143D02*
X12049047Y49609524D01*
X12049047Y49609524D02*
X12001428Y49514286D01*
X12001428Y49514286D02*
X11953809Y49323810D01*
X11953809Y49323810D02*
X11906190Y49228572D01*
X11906190Y49228572D02*
X11858571Y49180953D01*
X11858571Y49180953D02*
X11763333Y49133334D01*
X11763333Y49133334D02*
X11668095Y49133334D01*
X11668095Y49133334D02*
X11572857Y49180953D01*
X11572857Y49180953D02*
X11525238Y49228572D01*
X11525238Y49228572D02*
X11477619Y49323810D01*
X11477619Y49323810D02*
X11477619Y49561905D01*
X11477619Y49561905D02*
X11525238Y49704762D01*
X11953809Y50133334D02*
X11953809Y50466667D01*
X12477619Y50609524D02*
X12477619Y50133334D01*
X12477619Y50133334D02*
X11477619Y50133334D01*
X11477619Y50133334D02*
X11477619Y50609524D01*
X11477619Y50895239D02*
X11477619Y51466667D01*
X12477619Y51180953D02*
X11477619Y51180953D01*
D12*
%TO.C,J3*%
X26356000Y1210000D02*
X47304000Y1210000D01*
X26356000Y1210000D02*
X26356000Y3870000D01*
X47304000Y1210000D02*
X47304000Y3870000D01*
X26356000Y3870000D02*
X47304000Y3870000D01*
%TO.C,J4*%
X49216000Y1210000D02*
X65084000Y1210000D01*
X49216000Y1210000D02*
X49216000Y3870000D01*
X65084000Y1210000D02*
X65084000Y3870000D01*
X49216000Y3870000D02*
X65084000Y3870000D01*
%TO.C,J2*%
X43240000Y52130000D02*
X17212000Y52130000D01*
X43240000Y52130000D02*
X43240000Y49470000D01*
X17212000Y52130000D02*
X17212000Y49470000D01*
X43240000Y49470000D02*
X17212000Y49470000D01*
%TO.C,J1*%
X65084000Y52130000D02*
X44136000Y52130000D01*
X65084000Y52130000D02*
X65084000Y49470000D01*
X44136000Y52130000D02*
X44136000Y49470000D01*
X65084000Y49470000D02*
X44136000Y49470000D01*
%TO.C,D1*%
X39370000Y15310000D02*
X39370000Y16330000D01*
X37900000Y16330000D02*
X40840000Y16330000D01*
X40840000Y16330000D02*
X40840000Y21770000D01*
X40840000Y20750000D02*
X37900000Y20750000D01*
X40840000Y20870000D02*
X37900000Y20870000D01*
X40840000Y20990000D02*
X37900000Y20990000D01*
X37900000Y21770000D02*
X37900000Y16330000D01*
X40840000Y21770000D02*
X37900000Y21770000D01*
X39370000Y22790000D02*
X39370000Y21770000D01*
%TO.C,J7*%
X62292000Y31795000D02*
X62292000Y24055000D01*
X62292000Y31795000D02*
X67492000Y31795000D01*
X62292000Y24055000D02*
X67492000Y24055000D01*
X67492000Y31795000D02*
X67492000Y24055000D01*
%TO.C,J8*%
X11784000Y12402000D02*
X11784000Y9602000D01*
X0Y12402000D02*
X11784000Y12402000D01*
X11784000Y6002000D02*
X11784000Y3202000D01*
X11784000Y3202000D02*
X9784000Y3202000D01*
X6184000Y3202000D02*
X0Y3202000D01*
%TO.C,J5*%
X40954000Y44830000D02*
X2226000Y44830000D01*
X40954000Y44830000D02*
X40954000Y42170000D01*
X2226000Y44830000D02*
X2226000Y42170000D01*
X40954000Y42170000D02*
X2226000Y42170000D01*
%TO.C,J6*%
X2226000Y26930000D02*
X40954000Y26930000D01*
X2226000Y26930000D02*
X2226000Y29590000D01*
X40954000Y26930000D02*
X40954000Y29590000D01*
X2226000Y29590000D02*
X40954000Y29590000D01*
%TO.C,SW1*%
X2800000Y50050000D02*
X2800000Y48550000D01*
X4050000Y46050000D02*
X8550000Y46050000D01*
X8550000Y52550000D02*
X4050000Y52550000D01*
X9800000Y48550000D02*
X9800000Y50050000D01*
%TD*%
G36*
X68581000Y26655414D02*
G01*
X68581000Y24114586D01*
X68580414Y24114000D01*
X64891586Y24114000D01*
X64891000Y24114586D01*
X64891000Y26655414D01*
X64891586Y26656000D01*
X68580414Y26656000D01*
X68581000Y26655414D01*
G37*
G36*
X38101000Y33975414D02*
G01*
X38101000Y26989586D01*
X38100414Y26989000D01*
X35559586Y26989000D01*
X35559000Y26989586D01*
X35559000Y33529476D01*
X36000643Y33529476D01*
X36000643Y30023143D01*
X37659357Y30023143D01*
X37659357Y33529476D01*
X36000643Y33529476D01*
X35559000Y33529476D01*
X35559000Y33975414D01*
X35559586Y33976000D01*
X38100414Y33976000D01*
X38101000Y33975414D01*
G37*
G36*
X33021000Y44770414D02*
G01*
X33021000Y37784586D01*
X33020414Y37784000D01*
X30479586Y37784000D01*
X30479000Y37784586D01*
X30479000Y41736857D01*
X30920643Y41736857D01*
X30920643Y38230524D01*
X32579357Y38230524D01*
X32579357Y41736857D01*
X30920643Y41736857D01*
X30479000Y41736857D01*
X30479000Y44770414D01*
X30479586Y44771000D01*
X33020414Y44771000D01*
X33021000Y44770414D01*
G37*
G36*
X44451000Y6350414D02*
G01*
X44451000Y-414D01*
X44450414Y-1000D01*
X39369586Y-1000D01*
X39369000Y-414D01*
X39369000Y5961857D01*
X40156834Y5961857D01*
X40156834Y4303143D01*
X43663167Y4303143D01*
X43663167Y5961857D01*
X40156834Y5961857D01*
X39369000Y5961857D01*
X39369000Y6350414D01*
X39369586Y6351000D01*
X44450414Y6351000D01*
X44451000Y6350414D01*
G37*
G36*
X31751000Y22860414D02*
G01*
X31751000Y19049586D01*
X31750414Y19049000D01*
X13969586Y19049000D01*
X13969000Y19049586D01*
X13969000Y22199536D01*
X16444035Y22199536D01*
X16444035Y19710464D01*
X29275966Y19710464D01*
X29275966Y22199536D01*
X16444035Y22199536D01*
X13969000Y22199536D01*
X13969000Y22860414D01*
X13969586Y22861000D01*
X31750414Y22861000D01*
X31751000Y22860414D01*
G37*
G36*
X27687000Y53340414D02*
G01*
X27687000Y45084586D01*
X27686414Y45084000D01*
X25145586Y45084000D01*
X25145000Y45084586D01*
X25145000Y49036857D01*
X25586643Y49036857D01*
X25586643Y45530524D01*
X27245357Y45530524D01*
X27245357Y49036857D01*
X25586643Y49036857D01*
X25145000Y49036857D01*
X25145000Y53340414D01*
X25145586Y53341000D01*
X27686414Y53341000D01*
X27687000Y53340414D01*
G37*
%LPC*%
D13*
%TO.C,J3*%
X27940000Y2540000D03*
X30480000Y2540000D03*
X33020000Y2540000D03*
X35560000Y2540000D03*
X38100000Y2540000D03*
X40640000Y2540000D03*
X43180000Y2540000D03*
X45720000Y2540000D03*
%TD*%
%TO.C,J4*%
X50800000Y2540000D03*
X53340000Y2540000D03*
X55880000Y2540000D03*
X58420000Y2540000D03*
X60960000Y2540000D03*
X63500000Y2540000D03*
%TD*%
%TO.C,J2*%
X41656000Y50800000D03*
X39116000Y50800000D03*
X36576000Y50800000D03*
X34036000Y50800000D03*
X31496000Y50800000D03*
X28956000Y50800000D03*
X26416000Y50800000D03*
X23876000Y50800000D03*
X21336000Y50800000D03*
X18796000Y50800000D03*
%TD*%
%TO.C,J1*%
X63500000Y50800000D03*
X60960000Y50800000D03*
X58420000Y50800000D03*
X55880000Y50800000D03*
X53340000Y50800000D03*
X50800000Y50800000D03*
X48260000Y50800000D03*
X45720000Y50800000D03*
%TD*%
D14*
%TO.C,D1*%
X39370000Y13970000D03*
D15*
X39370000Y24130000D03*
%TD*%
D16*
%TO.C,MH1*%
X15240000Y50800000D03*
%TD*%
D13*
%TO.C,J7*%
X63622000Y30465000D03*
X66162000Y30465000D03*
X63622000Y27925000D03*
X66162000Y27925000D03*
X63622000Y25385000D03*
X66162000Y25385000D03*
%TD*%
D17*
%TO.C,J8*%
X10984000Y7802000D03*
X4984000Y7802000D03*
X7984000Y3102000D03*
%TD*%
D13*
%TO.C,J5*%
X39370000Y43500000D03*
X36830000Y43500000D03*
X34290000Y43500000D03*
X31750000Y43500000D03*
X29210000Y43500000D03*
X26670000Y43500000D03*
X24130000Y43500000D03*
X21590000Y43500000D03*
X19050000Y43500000D03*
X16510000Y43500000D03*
X13970000Y43500000D03*
X11430000Y43500000D03*
X8890000Y43500000D03*
X6350000Y43500000D03*
X3810000Y43500000D03*
%TD*%
%TO.C,J6*%
X3810000Y28260000D03*
X6350000Y28260000D03*
X8890000Y28260000D03*
X11430000Y28260000D03*
X13970000Y28260000D03*
X16510000Y28260000D03*
X19050000Y28260000D03*
X21590000Y28260000D03*
X24130000Y28260000D03*
X26670000Y28260000D03*
X29210000Y28260000D03*
X31750000Y28260000D03*
X34290000Y28260000D03*
X36830000Y28260000D03*
X39370000Y28260000D03*
%TD*%
D18*
%TO.C,SW1*%
X3050000Y51550000D03*
X9550000Y51550000D03*
X3050000Y47050000D03*
X9550000Y47050000D03*
%TD*%
D16*
%TO.C,MH2*%
X13970000Y2540000D03*
%TD*%
%TO.C,MH3*%
X66040000Y35560000D03*
%TD*%
%TO.C,MH4*%
X66040000Y7620000D03*
%TD*%
M02*
