M48
; DRILL file {KiCad 7.0.1} date Sun Dec 31 00:59:51 2023
; FORMAT={-:-/ absolute / metric / decimal}
; #@! TF.CreationDate,2023-12-31T00:59:51-05:00
; #@! TF.GenerationSoftware,Kicad,Pcbnew,7.0.1
; #@! TF.FileFunction,Plated,1,2,PTH
FMAT,2
METRIC
; #@! TA.AperFunction,Plated,PTH,ComponentDrill
T1C1.000
; #@! TA.AperFunction,Plated,PTH,ComponentDrill
T2C1.100
; #@! TA.AperFunction,Plated,PTH,ComponentDrill
T3C1.600
%
G90
G05
T1
X3.81Y43.5
X3.81Y28.26
X6.35Y43.5
X6.35Y28.26
X8.89Y43.5
X8.89Y28.26
X11.43Y43.5
X11.43Y28.26
X13.97Y43.5
X13.97Y28.26
X16.51Y43.5
X16.51Y28.26
X18.796Y50.8
X19.05Y43.5
X19.05Y28.26
X21.336Y50.8
X21.59Y43.5
X21.59Y28.26
X23.876Y50.8
X24.13Y43.5
X24.13Y28.26
X26.416Y50.8
X26.67Y43.5
X26.67Y28.26
X27.94Y2.54
X28.956Y50.8
X29.21Y43.5
X29.21Y28.26
X30.48Y2.54
X31.496Y50.8
X31.75Y43.5
X31.75Y28.26
X33.02Y2.54
X34.036Y50.8
X34.29Y43.5
X34.29Y28.26
X35.56Y2.54
X36.576Y50.8
X36.83Y43.5
X36.83Y28.26
X38.1Y2.54
X39.116Y50.8
X39.37Y43.5
X39.37Y28.26
X40.64Y2.54
X41.656Y50.8
X43.18Y2.54
X45.72Y50.8
X45.72Y2.54
X48.26Y50.8
X50.8Y50.8
X50.8Y2.54
X53.34Y50.8
X53.34Y2.54
X55.88Y50.8
X55.88Y2.54
X58.42Y50.8
X58.42Y2.54
X60.96Y50.8
X60.96Y2.54
X63.5Y50.8
X63.5Y2.54
X63.622Y30.465
X63.622Y27.925
X63.622Y25.385
X66.162Y30.465
X66.162Y27.925
X66.162Y25.385
T2
X3.05Y51.55
X3.05Y47.05
X9.55Y51.55
X9.55Y47.05
X39.37Y24.13
X39.37Y13.97
T3
X4.984Y7.802
X7.984Y3.102
X10.984Y7.802
T0
M30
