%TF.GenerationSoftware,KiCad,Pcbnew,7.0.1*%
%TF.CreationDate,2023-12-30T18:42:19-05:00*%
%TF.ProjectId,Nano2UNO-Adapter-5V,4e616e6f-3255-44e4-9f2d-416461707465,0.0.1*%
%TF.SameCoordinates,PX6486dd0PY8062360*%
%TF.FileFunction,Copper,L2,Bot*%
%TF.FilePolarity,Positive*%
%FSLAX46Y46*%
G04 Gerber Fmt 4.6, Leading zero omitted, Abs format (unit mm)*
G04 Created by KiCad (PCBNEW 7.0.1) date 2023-12-30 18:42:19*
%MOMM*%
%LPD*%
G01*
G04 APERTURE LIST*
G04 Aperture macros list*
%AMRoundRect*
0 Rectangle with rounded corners*
0 $1 Rounding radius*
0 $2 $3 $4 $5 $6 $7 $8 $9 X,Y pos of 4 corners*
0 Add a 4 corners polygon primitive as box body*
4,1,4,$2,$3,$4,$5,$6,$7,$8,$9,$2,$3,0*
0 Add four circle primitives for the rounded corners*
1,1,$1+$1,$2,$3*
1,1,$1+$1,$4,$5*
1,1,$1+$1,$6,$7*
1,1,$1+$1,$8,$9*
0 Add four rect primitives between the rounded corners*
20,1,$1+$1,$2,$3,$4,$5,0*
20,1,$1+$1,$4,$5,$6,$7,0*
20,1,$1+$1,$6,$7,$8,$9,0*
20,1,$1+$1,$8,$9,$2,$3,0*%
G04 Aperture macros list end*
%TA.AperFunction,ComponentPad*%
%ADD10C,1.700000*%
%TD*%
%TA.AperFunction,ComponentPad*%
%ADD11O,2.200000X2.200000*%
%TD*%
%TA.AperFunction,ComponentPad*%
%ADD12RoundRect,0.550000X-0.550000X0.550000X-0.550000X-0.550000X0.550000X-0.550000X0.550000X0.550000X0*%
%TD*%
%TA.AperFunction,ComponentPad*%
%ADD13C,2.600000*%
%TD*%
%TA.AperFunction,ComponentPad*%
%ADD14C,2.000000*%
%TD*%
%TA.AperFunction,Conductor*%
%ADD15C,0.400000*%
%TD*%
%TA.AperFunction,Conductor*%
%ADD16C,0.600000*%
%TD*%
%TA.AperFunction,Conductor*%
%ADD17C,0.200000*%
%TD*%
G04 APERTURE END LIST*
D10*
%TO.P,J3,1,BOOT*%
%TO.N,unconnected-(J3-BOOT-Pad1)*%
X27940000Y2540000D03*
%TO.P,J3,2,IOREF*%
%TO.N,+5V*%
X30480000Y2540000D03*
%TO.P,J3,3,RESET*%
%TO.N,/~{RESET}*%
X33020000Y2540000D03*
%TO.P,J3,4,3.3V*%
%TO.N,+3V3*%
X35560000Y2540000D03*
%TO.P,J3,5,5V*%
%TO.N,+5V*%
X38100000Y2540000D03*
%TO.P,J3,6,GND*%
%TO.N,GND*%
X40640000Y2540000D03*
%TO.P,J3,7,GND*%
X43180000Y2540000D03*
%TO.P,J3,8,VIN*%
%TO.N,/VIN*%
X45720000Y2540000D03*
%TD*%
%TO.P,J4,1,A0*%
%TO.N,/A0*%
X50800000Y2540000D03*
%TO.P,J4,2,A1*%
%TO.N,/A1*%
X53340000Y2540000D03*
%TO.P,J4,3,A2*%
%TO.N,/A2*%
X55880000Y2540000D03*
%TO.P,J4,4,A3*%
%TO.N,/A3*%
X58420000Y2540000D03*
%TO.P,J4,5,A4*%
%TO.N,/A4{slash}SDA*%
X60960000Y2540000D03*
%TO.P,J4,6,A5*%
%TO.N,/A5{slash}SCL*%
X63500000Y2540000D03*
%TD*%
%TO.P,J2,1,8*%
%TO.N,/D8*%
X41656000Y50800000D03*
%TO.P,J2,2,9*%
%TO.N,/D9*%
X39116000Y50800000D03*
%TO.P,J2,3,10*%
%TO.N,/D10*%
X36576000Y50800000D03*
%TO.P,J2,4,11*%
%TO.N,/D11{slash}COPI*%
X34036000Y50800000D03*
%TO.P,J2,5,12*%
%TO.N,/D12{slash}CIPO*%
X31496000Y50800000D03*
%TO.P,J2,6,13*%
%TO.N,/D13{slash}SCK*%
X28956000Y50800000D03*
%TO.P,J2,7,GND*%
%TO.N,GND*%
X26416000Y50800000D03*
%TO.P,J2,8,AREF*%
%TO.N,/AREF*%
X23876000Y50800000D03*
%TO.P,J2,9,SDA*%
%TO.N,/A4{slash}SDA*%
X21336000Y50800000D03*
%TO.P,J2,10,SCL*%
%TO.N,/A5{slash}SCL*%
X18796000Y50800000D03*
%TD*%
%TO.P,J1,1,RX\u21900*%
%TO.N,/D0{slash}RX*%
X63500000Y50800000D03*
%TO.P,J1,2,TX\u21921*%
%TO.N,/D1{slash}TX*%
X60960000Y50800000D03*
%TO.P,J1,3,2*%
%TO.N,/D2*%
X58420000Y50800000D03*
%TO.P,J1,4,3*%
%TO.N,/D3*%
X55880000Y50800000D03*
%TO.P,J1,5,4*%
%TO.N,/D4*%
X53340000Y50800000D03*
%TO.P,J1,6,5*%
%TO.N,/D5*%
X50800000Y50800000D03*
%TO.P,J1,7,6*%
%TO.N,/D6*%
X48260000Y50800000D03*
%TO.P,J1,8,7*%
%TO.N,/D7*%
X45720000Y50800000D03*
%TD*%
D11*
%TO.P,D1,2,A*%
%TO.N,/VIN*%
X39370000Y13970000D03*
D12*
%TO.P,D1,1,K*%
%TO.N,Net-(D1-K)*%
X39370000Y24130000D03*
%TD*%
D10*
%TO.P,J7,1,MISO*%
%TO.N,/D12{slash}CIPO*%
X63622000Y30465000D03*
%TO.P,J7,2,VCC*%
%TO.N,+5V*%
X66162000Y30465000D03*
%TO.P,J7,3,SCK*%
%TO.N,/D13{slash}SCK*%
X63622000Y27925000D03*
%TO.P,J7,4,MOSI*%
%TO.N,/D11{slash}COPI*%
X66162000Y27925000D03*
%TO.P,J7,5,~{RST}*%
%TO.N,/~{RESET}*%
X63622000Y25385000D03*
%TO.P,J7,6,GND*%
%TO.N,GND*%
X66162000Y25385000D03*
%TD*%
D13*
%TO.P,J8,1*%
%TO.N,/VIN*%
X10984000Y7802000D03*
%TO.P,J8,2*%
%TO.N,GND*%
X4984000Y7802000D03*
%TO.P,J8,3*%
X7984000Y3102000D03*
%TD*%
D10*
%TO.P,J5,1,TX1*%
%TO.N,/D1{slash}TX*%
X39370000Y43500000D03*
%TO.P,J5,2,RX0*%
%TO.N,/D0{slash}RX*%
X36830000Y43500000D03*
%TO.P,J5,3,RST*%
%TO.N,/~{RESET}*%
X34290000Y43500000D03*
%TO.P,J5,4,GND*%
%TO.N,GND*%
X31750000Y43500000D03*
%TO.P,J5,5,D2*%
%TO.N,/D2*%
X29210000Y43500000D03*
%TO.P,J5,6,D3*%
%TO.N,/D3*%
X26670000Y43500000D03*
%TO.P,J5,7,D4*%
%TO.N,/D4*%
X24130000Y43500000D03*
%TO.P,J5,8,D5*%
%TO.N,/D5*%
X21590000Y43500000D03*
%TO.P,J5,9,D6*%
%TO.N,/D6*%
X19050000Y43500000D03*
%TO.P,J5,10,D7*%
%TO.N,/D7*%
X16510000Y43500000D03*
%TO.P,J5,11,D8*%
%TO.N,/D8*%
X13970000Y43500000D03*
%TO.P,J5,12,D9*%
%TO.N,/D9*%
X11430000Y43500000D03*
%TO.P,J5,13,D10*%
%TO.N,/D10*%
X8890000Y43500000D03*
%TO.P,J5,14,D11*%
%TO.N,/D11{slash}COPI*%
X6350000Y43500000D03*
%TO.P,J5,15,D12*%
%TO.N,/D12{slash}CIPO*%
X3810000Y43500000D03*
%TD*%
%TO.P,J6,1,D13*%
%TO.N,/D13{slash}SCK*%
X3810000Y28260000D03*
%TO.P,J6,2,3.3V*%
%TO.N,+3V3*%
X6350000Y28260000D03*
%TO.P,J6,3,REF*%
%TO.N,/AREF*%
X8890000Y28260000D03*
%TO.P,J6,4,A0*%
%TO.N,/A0*%
X11430000Y28260000D03*
%TO.P,J6,5,A1*%
%TO.N,/A1*%
X13970000Y28260000D03*
%TO.P,J6,6,A2*%
%TO.N,/A2*%
X16510000Y28260000D03*
%TO.P,J6,7,A3*%
%TO.N,/A3*%
X19050000Y28260000D03*
%TO.P,J6,8,A4*%
%TO.N,/A4{slash}SDA*%
X21590000Y28260000D03*
%TO.P,J6,9,A5*%
%TO.N,/A5{slash}SCL*%
X24130000Y28260000D03*
%TO.P,J6,10,A6*%
%TO.N,unconnected-(J6-A6-Pad10)*%
X26670000Y28260000D03*
%TO.P,J6,11,A7*%
%TO.N,unconnected-(J6-A7-Pad11)*%
X29210000Y28260000D03*
%TO.P,J6,12,5V*%
%TO.N,+5V*%
X31750000Y28260000D03*
%TO.P,J6,13,RST*%
%TO.N,unconnected-(J6-RST-Pad13)*%
X34290000Y28260000D03*
%TO.P,J6,14,GND*%
%TO.N,GND*%
X36830000Y28260000D03*
%TO.P,J6,15,VIN*%
%TO.N,Net-(D1-K)*%
X39370000Y28260000D03*
%TD*%
D14*
%TO.P,SW1,1,1*%
%TO.N,GND*%
X3050000Y51550000D03*
X9550000Y51550000D03*
%TO.P,SW1,2,2*%
%TO.N,/~{RESET}*%
X3050000Y47050000D03*
X9550000Y47050000D03*
%TD*%
D15*
%TO.N,+3V3*%
X30165000Y4445000D02*
X33655000Y4445000D01*
X33655000Y4445000D02*
X35560000Y2540000D01*
X6350000Y28260000D02*
X30165000Y4445000D01*
D16*
%TO.N,/VIN*%
X26750000Y1190000D02*
X44370000Y1190000D01*
X20138000Y7802000D02*
X26750000Y1190000D01*
X44370000Y1190000D02*
X45720000Y2540000D01*
X10984000Y7802000D02*
X20138000Y7802000D01*
X45720000Y7620000D02*
X45720000Y2540000D01*
X39370000Y13970000D02*
X45720000Y7620000D01*
%TO.N,Net-(D1-K)*%
X39370000Y28260000D02*
X39370000Y24130000D01*
D17*
%TO.N,/A5{slash}SCL*%
X46355000Y22225000D02*
X30165000Y22225000D01*
X63500000Y5080000D02*
X46355000Y22225000D01*
X30165000Y22225000D02*
X24130000Y28260000D01*
X63500000Y2540000D02*
X63500000Y5080000D01*
%TO.N,/A4{slash}SDA*%
X28895000Y20955000D02*
X21590000Y28260000D01*
X60960000Y5080000D02*
X45085000Y20955000D01*
X45085000Y20955000D02*
X28895000Y20955000D01*
X60960000Y2540000D02*
X60960000Y5080000D01*
%TO.N,/A3*%
X27625000Y19685000D02*
X19050000Y28260000D01*
X43815000Y19685000D02*
X27625000Y19685000D01*
X58420000Y5080000D02*
X43815000Y19685000D01*
X58420000Y2540000D02*
X58420000Y5080000D01*
%TO.N,/A2*%
X26355000Y18415000D02*
X16510000Y28260000D01*
X42545000Y18415000D02*
X26355000Y18415000D01*
X55880000Y5080000D02*
X42545000Y18415000D01*
X55880000Y2540000D02*
X55880000Y5080000D01*
%TO.N,/A1*%
X25085000Y17145000D02*
X13970000Y28260000D01*
X41275000Y17145000D02*
X25085000Y17145000D01*
X53340000Y5080000D02*
X41275000Y17145000D01*
X53340000Y2540000D02*
X53340000Y5080000D01*
%TO.N,/A0*%
X23815000Y15875000D02*
X11430000Y28260000D01*
X40005000Y15875000D02*
X23815000Y15875000D01*
X50800000Y5080000D02*
X40005000Y15875000D01*
X50800000Y2540000D02*
X50800000Y5080000D01*
%TO.N,/~{RESET}*%
X45405000Y32385000D02*
X34290000Y43500000D01*
X67712000Y27656200D02*
X67712000Y31398800D01*
X66725800Y32385000D02*
X45405000Y32385000D01*
X64907000Y26670000D02*
X66725800Y26670000D01*
X67712000Y31398800D02*
X66725800Y32385000D01*
X63622000Y25385000D02*
X64907000Y26670000D01*
X66725800Y26670000D02*
X67712000Y27656200D01*
%TO.N,/D11{slash}COPI*%
X18100000Y31750000D02*
X6350000Y43500000D01*
X67312000Y31087600D02*
X66649600Y31750000D01*
X67312000Y29075000D02*
X67312000Y31087600D01*
X66162000Y27925000D02*
X67312000Y29075000D01*
X66649600Y31750000D02*
X18100000Y31750000D01*
D15*
%TO.N,+5V*%
X33335000Y29845000D02*
X31750000Y28260000D01*
X64134767Y26670000D02*
X62987117Y26670000D01*
X64872000Y29175000D02*
X64872000Y27407233D01*
X64872000Y27407233D02*
X64134767Y26670000D01*
X59812117Y29845000D02*
X33335000Y29845000D01*
X66162000Y30465000D02*
X64872000Y29175000D01*
X62987117Y26670000D02*
X59812117Y29845000D01*
D17*
%TO.N,/D12{slash}CIPO*%
X16195000Y31115000D02*
X3810000Y43500000D01*
X61595000Y31115000D02*
X16195000Y31115000D01*
X62245000Y30465000D02*
X61595000Y31115000D01*
X63622000Y30465000D02*
X62245000Y30465000D01*
%TO.N,/D13{slash}SCK*%
X6030000Y30480000D02*
X61067000Y30480000D01*
X61067000Y30480000D02*
X63622000Y27925000D01*
X3810000Y28260000D02*
X6030000Y30480000D01*
%TO.N,/D1{slash}TX*%
X39370000Y43500000D02*
X53660000Y43500000D01*
X53660000Y43500000D02*
X60960000Y50800000D01*
%TO.N,/D0{slash}RX*%
X36830000Y43500000D02*
X37980000Y42350000D01*
X55050000Y42350000D02*
X63500000Y50800000D01*
X37980000Y42350000D02*
X55050000Y42350000D01*
%TO.N,/D2*%
X52496000Y44876000D02*
X30586000Y44876000D01*
X30586000Y44876000D02*
X29210000Y43500000D01*
X58420000Y50800000D02*
X52496000Y44876000D01*
%TO.N,/D3*%
X50356000Y45276000D02*
X28446000Y45276000D01*
X28446000Y45276000D02*
X26670000Y43500000D01*
X55880000Y50800000D02*
X50356000Y45276000D01*
%TO.N,/D4*%
X26306000Y45676000D02*
X24130000Y43500000D01*
X48216000Y45676000D02*
X26306000Y45676000D01*
X53340000Y50800000D02*
X48216000Y45676000D01*
%TO.N,/D5*%
X24166000Y46076000D02*
X21590000Y43500000D01*
X46076000Y46076000D02*
X24166000Y46076000D01*
X50800000Y50800000D02*
X46076000Y46076000D01*
%TO.N,/D6*%
X48260000Y50800000D02*
X43936000Y46476000D01*
X22026000Y46476000D02*
X19050000Y43500000D01*
X43936000Y46476000D02*
X22026000Y46476000D01*
%TO.N,/D7*%
X45720000Y50800000D02*
X41796000Y46876000D01*
X19886000Y46876000D02*
X16510000Y43500000D01*
X41796000Y46876000D02*
X19886000Y46876000D01*
%TO.N,/D8*%
X41656000Y50800000D02*
X38132000Y47276000D01*
X16437800Y45967800D02*
X13970000Y43500000D01*
X19720311Y47276000D02*
X18412111Y45967800D01*
X18412111Y45967800D02*
X16437800Y45967800D01*
X38132000Y47276000D02*
X19720311Y47276000D01*
%TO.N,/D9*%
X19554626Y47676000D02*
X18246426Y46367800D01*
X35992000Y47676000D02*
X19554626Y47676000D01*
X39116000Y50800000D02*
X35992000Y47676000D01*
X14297800Y46367800D02*
X11430000Y43500000D01*
X18246426Y46367800D02*
X14297800Y46367800D01*
%TO.N,/D10*%
X19388941Y48076000D02*
X18080741Y46767800D01*
X12157800Y46767800D02*
X8890000Y43500000D01*
X36576000Y50800000D02*
X33852000Y48076000D01*
X18080741Y46767800D02*
X12157800Y46767800D01*
X33852000Y48076000D02*
X19388941Y48076000D01*
%TO.N,/D11{slash}COPI*%
X19223256Y48476000D02*
X17915056Y47167800D01*
X11270678Y47167800D02*
X10076878Y48361600D01*
X17915056Y47167800D02*
X11270678Y47167800D01*
X6350000Y45770800D02*
X6350000Y43500000D01*
X34036000Y50800000D02*
X31712000Y48476000D01*
X31712000Y48476000D02*
X19223256Y48476000D01*
X10076878Y48361600D02*
X8940800Y48361600D01*
X8940800Y48361600D02*
X6350000Y45770800D01*
%TO.N,/D12{slash}CIPO*%
X29572000Y48876000D02*
X19057570Y48876000D01*
X19057570Y48876000D02*
X17749370Y47567800D01*
X3810000Y43796486D02*
X3810000Y43500000D01*
X10242563Y48761600D02*
X8775114Y48761600D01*
X17749370Y47567800D02*
X11436363Y47567800D01*
X11436363Y47567800D02*
X10242563Y48761600D01*
X8775114Y48761600D02*
X3810000Y43796486D01*
X31496000Y50800000D02*
X29572000Y48876000D01*
%TO.N,/D13{slash}SCK*%
X18891884Y49276000D02*
X17583684Y47967800D01*
X2540000Y43856346D02*
X2540000Y29530000D01*
X11602048Y47967800D02*
X10408248Y49161600D01*
X27432000Y49276000D02*
X18891884Y49276000D01*
X17583684Y47967800D02*
X11602048Y47967800D01*
X10408248Y49161600D02*
X7845254Y49161600D01*
X28956000Y50800000D02*
X27432000Y49276000D01*
X7845254Y49161600D02*
X2540000Y43856346D01*
X2540000Y29530000D02*
X3810000Y28260000D01*
%TO.N,/~{RESET}*%
X33030200Y42240200D02*
X34290000Y43500000D01*
X7620000Y43143654D02*
X8523454Y42240200D01*
X7620000Y45120000D02*
X7620000Y43143654D01*
X8523454Y42240200D02*
X33030200Y42240200D01*
X9550000Y47050000D02*
X7620000Y45120000D01*
%TD*%
%TA.AperFunction,Conductor*%
%TO.N,GND*%
G36*
X2773693Y53249555D02*
G01*
X2818484Y53208321D01*
X2838251Y53150740D01*
X2828231Y53090690D01*
X2790837Y53042646D01*
X2735084Y53018191D01*
X2680507Y53009084D01*
X2445393Y52928369D01*
X2226764Y52810054D01*
X2179942Y52773612D01*
X2179942Y52773610D01*
X3050000Y51903553D01*
X3050001Y51903553D01*
X3920057Y52773610D01*
X3920056Y52773612D01*
X3873235Y52810053D01*
X3654606Y52928369D01*
X3419492Y53009084D01*
X3364916Y53018191D01*
X3309163Y53042646D01*
X3271769Y53090690D01*
X3261749Y53150740D01*
X3281516Y53208321D01*
X3326307Y53249555D01*
X3385325Y53264500D01*
X9214675Y53264500D01*
X9273693Y53249555D01*
X9318484Y53208321D01*
X9338251Y53150740D01*
X9328231Y53090690D01*
X9290837Y53042646D01*
X9235084Y53018191D01*
X9180507Y53009084D01*
X8945393Y52928369D01*
X8726764Y52810054D01*
X8679942Y52773612D01*
X8679942Y52773610D01*
X9550000Y51903553D01*
X9550001Y51903553D01*
X10420057Y52773610D01*
X10420056Y52773612D01*
X10373235Y52810053D01*
X10154606Y52928369D01*
X9919492Y53009084D01*
X9864916Y53018191D01*
X9809163Y53042646D01*
X9771769Y53090690D01*
X9761749Y53150740D01*
X9781516Y53208321D01*
X9826307Y53249555D01*
X9885325Y53264500D01*
X64433365Y53264500D01*
X64480818Y53255061D01*
X64521046Y53228181D01*
X65928181Y51821046D01*
X65955061Y51780818D01*
X65964500Y51733365D01*
X65964500Y40430985D01*
X65961962Y40411713D01*
X65964028Y40388104D01*
X65964500Y40377297D01*
X65964500Y40364884D01*
X65967075Y40353267D01*
X65967182Y40352044D01*
X65971651Y40342459D01*
X65978451Y40334356D01*
X65978452Y40334355D01*
X65979500Y40333750D01*
X66005185Y40314042D01*
X68468181Y37851046D01*
X68495061Y37810818D01*
X68504500Y37763365D01*
X68504500Y31699013D01*
X68486227Y31634223D01*
X68436795Y31588528D01*
X68370771Y31575395D01*
X68307614Y31598695D01*
X68265939Y31651561D01*
X68243524Y31705675D01*
X68209513Y31749999D01*
X68209512Y31750000D01*
X68165529Y31807320D01*
X68165530Y31807318D01*
X68165528Y31807320D01*
X68145987Y31832787D01*
X68120512Y31852335D01*
X68108326Y31863023D01*
X67190025Y32781324D01*
X67179331Y32793518D01*
X67159789Y32818985D01*
X67159787Y32818986D01*
X67159787Y32818987D01*
X67134319Y32838530D01*
X67032676Y32916524D01*
X66884651Y32977838D01*
X66865256Y32980392D01*
X66852695Y32982046D01*
X66757633Y32994561D01*
X66757620Y32994561D01*
X66725800Y32998751D01*
X66693980Y32994561D01*
X66677795Y32993500D01*
X45708411Y32993500D01*
X45660958Y33002939D01*
X45620730Y33029819D01*
X36720730Y41929819D01*
X36690480Y41979182D01*
X36685938Y42036898D01*
X36708093Y42090385D01*
X36752116Y42127985D01*
X36808411Y42141500D01*
X36942569Y42141500D01*
X37164635Y42178556D01*
X37185412Y42185690D01*
X37253625Y42189220D01*
X37313360Y42156091D01*
X37515777Y41953674D01*
X37526472Y41941479D01*
X37546013Y41916012D01*
X37577925Y41891525D01*
X37577928Y41891523D01*
X37577929Y41891522D01*
X37673124Y41818476D01*
X37821149Y41757162D01*
X37980000Y41736249D01*
X38011828Y41740439D01*
X38028013Y41741500D01*
X55001995Y41741500D01*
X55018179Y41740440D01*
X55050000Y41736250D01*
X55081821Y41740440D01*
X55081833Y41740440D01*
X55089884Y41741500D01*
X55089885Y41741500D01*
X55189456Y41754609D01*
X55208851Y41757162D01*
X55356876Y41818476D01*
X55452072Y41891523D01*
X55452072Y41891524D01*
X55468366Y41904026D01*
X55468368Y41904029D01*
X55483987Y41916013D01*
X55503536Y41941491D01*
X55514216Y41953669D01*
X63016640Y49456093D01*
X63076371Y49489219D01*
X63144584Y49485691D01*
X63148051Y49484500D01*
X63165364Y49478556D01*
X63387431Y49441500D01*
X63612569Y49441500D01*
X63834635Y49478556D01*
X64047574Y49551658D01*
X64245576Y49658811D01*
X64423240Y49797094D01*
X64575722Y49962732D01*
X64698860Y50151209D01*
X64789296Y50357384D01*
X64844564Y50575632D01*
X64863156Y50800000D01*
X64844564Y51024368D01*
X64789296Y51242616D01*
X64698860Y51448791D01*
X64575722Y51637268D01*
X64423240Y51802906D01*
X64245576Y51941189D01*
X64047574Y52048342D01*
X64047573Y52048343D01*
X64047572Y52048343D01*
X63834636Y52121444D01*
X63612569Y52158500D01*
X63387431Y52158500D01*
X63165363Y52121444D01*
X62952427Y52048343D01*
X62754424Y51941189D01*
X62576760Y51802906D01*
X62424279Y51637270D01*
X62333809Y51498795D01*
X62289017Y51457562D01*
X62230000Y51442617D01*
X62170983Y51457562D01*
X62126191Y51498795D01*
X62106043Y51529633D01*
X62035722Y51637268D01*
X61883240Y51802906D01*
X61705576Y51941189D01*
X61507574Y52048342D01*
X61507573Y52048343D01*
X61507572Y52048343D01*
X61294636Y52121444D01*
X61072569Y52158500D01*
X60847431Y52158500D01*
X60625363Y52121444D01*
X60412427Y52048343D01*
X60214424Y51941189D01*
X60036760Y51802906D01*
X59884279Y51637270D01*
X59793809Y51498795D01*
X59749017Y51457562D01*
X59690000Y51442617D01*
X59630983Y51457562D01*
X59586191Y51498795D01*
X59566043Y51529633D01*
X59495722Y51637268D01*
X59343240Y51802906D01*
X59165576Y51941189D01*
X58967574Y52048342D01*
X58967573Y52048343D01*
X58967572Y52048343D01*
X58754636Y52121444D01*
X58532569Y52158500D01*
X58307431Y52158500D01*
X58085363Y52121444D01*
X57872427Y52048343D01*
X57674424Y51941189D01*
X57496760Y51802906D01*
X57344279Y51637270D01*
X57253809Y51498795D01*
X57209017Y51457562D01*
X57150000Y51442617D01*
X57090983Y51457562D01*
X57046191Y51498795D01*
X57026043Y51529633D01*
X56955722Y51637268D01*
X56803240Y51802906D01*
X56625576Y51941189D01*
X56427574Y52048342D01*
X56427573Y52048343D01*
X56427572Y52048343D01*
X56214636Y52121444D01*
X55992569Y52158500D01*
X55767431Y52158500D01*
X55545363Y52121444D01*
X55332427Y52048343D01*
X55134424Y51941189D01*
X54956760Y51802906D01*
X54804279Y51637270D01*
X54713809Y51498795D01*
X54669017Y51457562D01*
X54610000Y51442617D01*
X54550983Y51457562D01*
X54506191Y51498795D01*
X54486043Y51529633D01*
X54415722Y51637268D01*
X54263240Y51802906D01*
X54085576Y51941189D01*
X53887574Y52048342D01*
X53887573Y52048343D01*
X53887572Y52048343D01*
X53674636Y52121444D01*
X53452569Y52158500D01*
X53227431Y52158500D01*
X53005363Y52121444D01*
X52792427Y52048343D01*
X52594424Y51941189D01*
X52416760Y51802906D01*
X52264279Y51637270D01*
X52173809Y51498795D01*
X52129017Y51457562D01*
X52070000Y51442617D01*
X52010983Y51457562D01*
X51966191Y51498795D01*
X51946043Y51529633D01*
X51875722Y51637268D01*
X51723240Y51802906D01*
X51545576Y51941189D01*
X51347574Y52048342D01*
X51347573Y52048343D01*
X51347572Y52048343D01*
X51134636Y52121444D01*
X50912569Y52158500D01*
X50687431Y52158500D01*
X50465363Y52121444D01*
X50252427Y52048343D01*
X50054424Y51941189D01*
X49876760Y51802906D01*
X49724279Y51637270D01*
X49633809Y51498795D01*
X49589017Y51457562D01*
X49530000Y51442617D01*
X49470983Y51457562D01*
X49426191Y51498795D01*
X49406043Y51529633D01*
X49335722Y51637268D01*
X49183240Y51802906D01*
X49005576Y51941189D01*
X48807574Y52048342D01*
X48807573Y52048343D01*
X48807572Y52048343D01*
X48594636Y52121444D01*
X48372569Y52158500D01*
X48147431Y52158500D01*
X47925363Y52121444D01*
X47712427Y52048343D01*
X47514424Y51941189D01*
X47336760Y51802906D01*
X47184279Y51637270D01*
X47093809Y51498795D01*
X47049017Y51457562D01*
X46990000Y51442617D01*
X46930983Y51457562D01*
X46886191Y51498795D01*
X46866043Y51529633D01*
X46795722Y51637268D01*
X46643240Y51802906D01*
X46465576Y51941189D01*
X46267574Y52048342D01*
X46267573Y52048343D01*
X46267572Y52048343D01*
X46054636Y52121444D01*
X45832569Y52158500D01*
X45607431Y52158500D01*
X45385363Y52121444D01*
X45172427Y52048343D01*
X44974424Y51941189D01*
X44796760Y51802906D01*
X44644279Y51637270D01*
X44521138Y51448789D01*
X44450000Y51286607D01*
X44430704Y51242616D01*
X44408150Y51153553D01*
X44375435Y51024364D01*
X44356843Y50800001D01*
X44375435Y50575637D01*
X44410605Y50436752D01*
X44409950Y50373394D01*
X44378080Y50318631D01*
X41580270Y47520819D01*
X41540042Y47493939D01*
X41492589Y47484500D01*
X39500411Y47484500D01*
X39444116Y47498015D01*
X39400093Y47535615D01*
X39377938Y47589102D01*
X39382480Y47646818D01*
X39412730Y47696181D01*
X39836518Y48119969D01*
X41172640Y49456093D01*
X41232371Y49489219D01*
X41300584Y49485691D01*
X41304051Y49484500D01*
X41321364Y49478556D01*
X41543431Y49441500D01*
X41768569Y49441500D01*
X41990635Y49478556D01*
X42203574Y49551658D01*
X42401576Y49658811D01*
X42579240Y49797094D01*
X42731722Y49962732D01*
X42854860Y50151209D01*
X42945296Y50357384D01*
X43000564Y50575632D01*
X43019156Y50800000D01*
X43000564Y51024368D01*
X42945296Y51242616D01*
X42854860Y51448791D01*
X42731722Y51637268D01*
X42579240Y51802906D01*
X42401576Y51941189D01*
X42203574Y52048342D01*
X42203573Y52048343D01*
X42203572Y52048343D01*
X41990636Y52121444D01*
X41768569Y52158500D01*
X41543431Y52158500D01*
X41321363Y52121444D01*
X41108427Y52048343D01*
X40910424Y51941189D01*
X40732760Y51802906D01*
X40580279Y51637270D01*
X40489809Y51498795D01*
X40445017Y51457562D01*
X40386000Y51442617D01*
X40326983Y51457562D01*
X40282191Y51498795D01*
X40262043Y51529633D01*
X40191722Y51637268D01*
X40039240Y51802906D01*
X39861576Y51941189D01*
X39663574Y52048342D01*
X39663573Y52048343D01*
X39663572Y52048343D01*
X39450636Y52121444D01*
X39228569Y52158500D01*
X39003431Y52158500D01*
X38781363Y52121444D01*
X38568427Y52048343D01*
X38370424Y51941189D01*
X38192760Y51802906D01*
X38040279Y51637270D01*
X37949809Y51498795D01*
X37905017Y51457562D01*
X37846000Y51442617D01*
X37786983Y51457562D01*
X37742191Y51498795D01*
X37722043Y51529633D01*
X37651722Y51637268D01*
X37499240Y51802906D01*
X37321576Y51941189D01*
X37123574Y52048342D01*
X37123573Y52048343D01*
X37123572Y52048343D01*
X36910636Y52121444D01*
X36688569Y52158500D01*
X36463431Y52158500D01*
X36241363Y52121444D01*
X36028427Y52048343D01*
X35830424Y51941189D01*
X35652760Y51802906D01*
X35500279Y51637270D01*
X35409809Y51498795D01*
X35365017Y51457562D01*
X35306000Y51442617D01*
X35246983Y51457562D01*
X35202191Y51498795D01*
X35182043Y51529633D01*
X35111722Y51637268D01*
X34959240Y51802906D01*
X34781576Y51941189D01*
X34583574Y52048342D01*
X34583573Y52048343D01*
X34583572Y52048343D01*
X34370636Y52121444D01*
X34148569Y52158500D01*
X33923431Y52158500D01*
X33701363Y52121444D01*
X33488427Y52048343D01*
X33290424Y51941189D01*
X33112760Y51802906D01*
X32960279Y51637270D01*
X32869809Y51498795D01*
X32825017Y51457562D01*
X32766000Y51442617D01*
X32706983Y51457562D01*
X32662191Y51498795D01*
X32642043Y51529633D01*
X32571722Y51637268D01*
X32419240Y51802906D01*
X32241576Y51941189D01*
X32043574Y52048342D01*
X32043573Y52048343D01*
X32043572Y52048343D01*
X31830636Y52121444D01*
X31608569Y52158500D01*
X31383431Y52158500D01*
X31161363Y52121444D01*
X30948427Y52048343D01*
X30750424Y51941189D01*
X30572760Y51802906D01*
X30420279Y51637270D01*
X30329809Y51498795D01*
X30285017Y51457562D01*
X30226000Y51442617D01*
X30166983Y51457562D01*
X30122191Y51498795D01*
X30102043Y51529633D01*
X30031722Y51637268D01*
X29879240Y51802906D01*
X29701576Y51941189D01*
X29503574Y52048342D01*
X29503573Y52048343D01*
X29503572Y52048343D01*
X29290636Y52121444D01*
X29068569Y52158500D01*
X28843431Y52158500D01*
X28621363Y52121444D01*
X28408427Y52048343D01*
X28210424Y51941189D01*
X28032760Y51802906D01*
X27880275Y51637266D01*
X27786250Y51493351D01*
X27742333Y51452596D01*
X27684435Y51437189D01*
X27626070Y51450727D01*
X27580867Y51490050D01*
X27530925Y51561374D01*
X27530925Y51561375D01*
X26503680Y50534129D01*
X26448093Y50502035D01*
X26383905Y50502035D01*
X26328318Y50534129D01*
X25301073Y51561374D01*
X25251133Y51490050D01*
X25205929Y51450727D01*
X25147565Y51437188D01*
X25089665Y51452595D01*
X25045748Y51493351D01*
X24951723Y51637268D01*
X24875480Y51720088D01*
X24799240Y51802906D01*
X24655316Y51914928D01*
X25654625Y51914928D01*
X26416000Y51153553D01*
X26416001Y51153553D01*
X27177373Y51914927D01*
X27177373Y51914928D01*
X27093580Y51973600D01*
X26879492Y52073431D01*
X26651318Y52134570D01*
X26415999Y52155158D01*
X26180681Y52134570D01*
X25952507Y52073431D01*
X25738422Y51973601D01*
X25654625Y51914928D01*
X24655316Y51914928D01*
X24621576Y51941189D01*
X24423574Y52048342D01*
X24423573Y52048343D01*
X24423572Y52048343D01*
X24210636Y52121444D01*
X23988569Y52158500D01*
X23763431Y52158500D01*
X23541363Y52121444D01*
X23328427Y52048343D01*
X23130424Y51941189D01*
X22952760Y51802906D01*
X22800279Y51637270D01*
X22709809Y51498795D01*
X22665017Y51457562D01*
X22606000Y51442617D01*
X22546983Y51457562D01*
X22502191Y51498795D01*
X22482043Y51529633D01*
X22411722Y51637268D01*
X22259240Y51802906D01*
X22081576Y51941189D01*
X21883574Y52048342D01*
X21883573Y52048343D01*
X21883572Y52048343D01*
X21670636Y52121444D01*
X21448569Y52158500D01*
X21223431Y52158500D01*
X21001363Y52121444D01*
X20788427Y52048343D01*
X20590424Y51941189D01*
X20412760Y51802906D01*
X20260279Y51637270D01*
X20169809Y51498795D01*
X20125017Y51457562D01*
X20066000Y51442617D01*
X20006983Y51457562D01*
X19962191Y51498795D01*
X19942043Y51529633D01*
X19871722Y51637268D01*
X19719240Y51802906D01*
X19541576Y51941189D01*
X19343574Y52048342D01*
X19343573Y52048343D01*
X19343572Y52048343D01*
X19130636Y52121444D01*
X18908569Y52158500D01*
X18683431Y52158500D01*
X18461363Y52121444D01*
X18248427Y52048343D01*
X18050424Y51941189D01*
X17872760Y51802906D01*
X17720279Y51637270D01*
X17597138Y51448789D01*
X17526000Y51286607D01*
X17506704Y51242616D01*
X17484150Y51153553D01*
X17451435Y51024364D01*
X17432843Y50800000D01*
X17451435Y50575637D01*
X17451435Y50575634D01*
X17451436Y50575632D01*
X17503901Y50368451D01*
X17506705Y50357382D01*
X17597138Y50151212D01*
X17597140Y50151209D01*
X17720278Y49962732D01*
X17872760Y49797094D01*
X18050424Y49658811D01*
X18140176Y49610240D01*
X18182813Y49572193D01*
X18203861Y49519064D01*
X18198848Y49462137D01*
X18168838Y49413505D01*
X17367954Y48612619D01*
X17327726Y48585739D01*
X17280273Y48576300D01*
X11905459Y48576300D01*
X11858006Y48585739D01*
X11817778Y48612619D01*
X10872473Y49557924D01*
X10861779Y49570118D01*
X10842237Y49595585D01*
X10842235Y49595586D01*
X10842235Y49595587D01*
X10816767Y49615130D01*
X10715124Y49693124D01*
X10567099Y49754438D01*
X10547704Y49756992D01*
X10535143Y49758646D01*
X10440081Y49771161D01*
X10440068Y49771161D01*
X10408248Y49775351D01*
X10376428Y49771161D01*
X10360243Y49770100D01*
X7893259Y49770100D01*
X7877074Y49771161D01*
X7845254Y49775351D01*
X7813434Y49771161D01*
X7813420Y49771161D01*
X7716950Y49758461D01*
X7705797Y49756992D01*
X7705786Y49756992D01*
X7686403Y49754439D01*
X7538378Y49693125D01*
X7443181Y49620077D01*
X7411265Y49595586D01*
X7391720Y49570116D01*
X7381029Y49557926D01*
X4774358Y46951255D01*
X4723137Y46920418D01*
X4663441Y46917133D01*
X4609146Y46942164D01*
X4572875Y46989692D01*
X4564449Y47040312D01*
X4563930Y47040271D01*
X4563457Y47046273D01*
X4563059Y47048664D01*
X4563165Y47050000D01*
X4544535Y47286711D01*
X4489105Y47517594D01*
X4398240Y47736963D01*
X4274176Y47939416D01*
X4119969Y48119969D01*
X3939416Y48274176D01*
X3736963Y48398240D01*
X3619685Y48446818D01*
X3517593Y48489106D01*
X3286712Y48544535D01*
X3050000Y48563165D01*
X2813287Y48544535D01*
X2582406Y48489106D01*
X2363035Y48398239D01*
X2160585Y48274177D01*
X1980031Y48119969D01*
X1825823Y47939415D01*
X1701761Y47736965D01*
X1610894Y47517594D01*
X1555465Y47286713D01*
X1555465Y47286711D01*
X1536835Y47050000D01*
X1537601Y47040271D01*
X1555465Y46813288D01*
X1610894Y46582407D01*
X1643395Y46503944D01*
X1701760Y46363037D01*
X1825824Y46160584D01*
X1980031Y45980031D01*
X2160584Y45825824D01*
X2363037Y45701760D01*
X2582406Y45610895D01*
X2813289Y45555465D01*
X3050000Y45536835D01*
X3051336Y45536941D01*
X3053727Y45536543D01*
X3059729Y45536070D01*
X3059688Y45535551D01*
X3110308Y45527125D01*
X3157836Y45490854D01*
X3182867Y45436559D01*
X3179582Y45376863D01*
X3148745Y45325642D01*
X2143671Y44320568D01*
X2131478Y44309875D01*
X2106014Y44290336D01*
X2081522Y44258417D01*
X2081523Y44258419D01*
X2008475Y44163223D01*
X1966964Y44063005D01*
X1947162Y44015198D01*
X1930439Y43888172D01*
X1930439Y43888166D01*
X1926249Y43856346D01*
X1930439Y43824526D01*
X1931500Y43808341D01*
X1931500Y29578005D01*
X1930439Y29561820D01*
X1926249Y29530000D01*
X1930439Y29498180D01*
X1930439Y29498173D01*
X1943207Y29401189D01*
X1947162Y29371150D01*
X2008476Y29223124D01*
X2082188Y29127061D01*
X2105050Y29097268D01*
X2106014Y29096012D01*
X2131478Y29076473D01*
X2143673Y29065778D01*
X2468080Y28741371D01*
X2499950Y28686608D01*
X2500605Y28623250D01*
X2465435Y28484365D01*
X2446843Y28260001D01*
X2465435Y28035637D01*
X2465435Y28035634D01*
X2465436Y28035632D01*
X2498150Y27906447D01*
X2520705Y27817382D01*
X2611138Y27611212D01*
X2611140Y27611209D01*
X2734278Y27422732D01*
X2886760Y27257094D01*
X3064424Y27118811D01*
X3262426Y27011658D01*
X3475365Y26938556D01*
X3697431Y26901500D01*
X3922569Y26901500D01*
X4144635Y26938556D01*
X4357574Y27011658D01*
X4555576Y27118811D01*
X4733240Y27257094D01*
X4885722Y27422732D01*
X4976192Y27561207D01*
X5020981Y27602438D01*
X5079998Y27617384D01*
X5139016Y27602439D01*
X5183807Y27561206D01*
X5274275Y27422735D01*
X5274277Y27422733D01*
X5274278Y27422732D01*
X5426760Y27257094D01*
X5604424Y27118811D01*
X5802426Y27011658D01*
X6015365Y26938556D01*
X6237431Y26901500D01*
X6462567Y26901500D01*
X6462569Y26901500D01*
X6608687Y26925883D01*
X6666924Y26921662D01*
X6716775Y26891255D01*
X29646223Y3961807D01*
X29651357Y3956353D01*
X29691727Y3910785D01*
X29731543Y3883302D01*
X29770062Y3840443D01*
X29785050Y3784801D01*
X29773270Y3728393D01*
X29737264Y3683400D01*
X29556760Y3542907D01*
X29404279Y3377270D01*
X29313809Y3238795D01*
X29269017Y3197562D01*
X29210000Y3182617D01*
X29150983Y3197562D01*
X29106191Y3238795D01*
X29015723Y3377266D01*
X29015722Y3377268D01*
X28863240Y3542906D01*
X28685576Y3681189D01*
X28487574Y3788342D01*
X28487573Y3788343D01*
X28487572Y3788343D01*
X28274636Y3861444D01*
X28052569Y3898500D01*
X27827431Y3898500D01*
X27605363Y3861444D01*
X27392427Y3788343D01*
X27194424Y3681189D01*
X27016760Y3542906D01*
X26864279Y3377270D01*
X26741138Y3188789D01*
X26670000Y3026607D01*
X26650704Y2982616D01*
X26595436Y2764368D01*
X26593156Y2755364D01*
X26561533Y2699033D01*
X26505868Y2666253D01*
X26441269Y2665919D01*
X26385269Y2698123D01*
X20677588Y8405804D01*
X20645282Y8438111D01*
X20612490Y8458715D01*
X20601149Y8466762D01*
X20570869Y8490910D01*
X20535975Y8507714D01*
X20523806Y8514440D01*
X20491016Y8535043D01*
X20454457Y8547836D01*
X20441612Y8553157D01*
X20406719Y8569961D01*
X20368957Y8578580D01*
X20355603Y8582426D01*
X20319047Y8595217D01*
X20319045Y8595218D01*
X20319043Y8595218D01*
X20280561Y8599554D01*
X20266855Y8601883D01*
X20229099Y8610500D01*
X20229097Y8610500D01*
X20183406Y8610500D01*
X12677079Y8610500D01*
X12615079Y8627113D01*
X12569692Y8672500D01*
X12482443Y8823621D01*
X12313442Y9035542D01*
X12313438Y9035546D01*
X12114749Y9219903D01*
X12096859Y9232100D01*
X11890786Y9372599D01*
X11646572Y9490206D01*
X11566676Y9514851D01*
X11387557Y9570102D01*
X11119529Y9610500D01*
X11119528Y9610500D01*
X10848472Y9610500D01*
X10848471Y9610500D01*
X10580442Y9570102D01*
X10321428Y9490206D01*
X10077217Y9372601D01*
X9853255Y9219906D01*
X9654558Y9035542D01*
X9485556Y8823620D01*
X9350028Y8588878D01*
X9251001Y8336562D01*
X9190684Y8072298D01*
X9170428Y7802000D01*
X9190684Y7531703D01*
X9251001Y7267439D01*
X9264225Y7233746D01*
X9350029Y7015121D01*
X9485557Y6780379D01*
X9654558Y6568458D01*
X9853257Y6384093D01*
X10077215Y6231401D01*
X10321428Y6113794D01*
X10553502Y6042209D01*
X10580442Y6033899D01*
X10848471Y5993500D01*
X10848472Y5993500D01*
X11119528Y5993500D01*
X11119529Y5993500D01*
X11253542Y6013700D01*
X11387558Y6033899D01*
X11646572Y6113794D01*
X11890786Y6231401D01*
X12114743Y6384093D01*
X12114746Y6384097D01*
X12114749Y6384098D01*
X12202883Y6465876D01*
X12313442Y6568458D01*
X12482443Y6780379D01*
X12569692Y6931501D01*
X12615079Y6976887D01*
X12677079Y6993500D01*
X19751746Y6993500D01*
X19799199Y6984061D01*
X19839427Y6957181D01*
X26113888Y682720D01*
X26113889Y682719D01*
X26242719Y553889D01*
X26275517Y533281D01*
X26286838Y525248D01*
X26317130Y501091D01*
X26336146Y491934D01*
X26352028Y484285D01*
X26364198Y477559D01*
X26396985Y456957D01*
X26433533Y444169D01*
X26446381Y438847D01*
X26479944Y422685D01*
X26481280Y422041D01*
X26519036Y413424D01*
X26532384Y409579D01*
X26568953Y396783D01*
X26583209Y395177D01*
X26607437Y392447D01*
X26621146Y390119D01*
X26658903Y381500D01*
X26704594Y381500D01*
X26841097Y381500D01*
X44278903Y381500D01*
X44415406Y381500D01*
X44461097Y381500D01*
X44498859Y390120D01*
X44512548Y392447D01*
X44551047Y396783D01*
X44587624Y409583D01*
X44600942Y413419D01*
X44638720Y422041D01*
X44673615Y438847D01*
X44686449Y444164D01*
X44723015Y456957D01*
X44755817Y477570D01*
X44767961Y484281D01*
X44802870Y501091D01*
X44833153Y525243D01*
X44844478Y533279D01*
X44877281Y553889D01*
X45006111Y682719D01*
X45006111Y682720D01*
X45474423Y1151033D01*
X45524273Y1181439D01*
X45582509Y1185659D01*
X45607431Y1181500D01*
X45832569Y1181500D01*
X46054635Y1218556D01*
X46267574Y1291658D01*
X46465576Y1398811D01*
X46643240Y1537094D01*
X46795722Y1702732D01*
X46918860Y1891209D01*
X47009296Y2097384D01*
X47064564Y2315632D01*
X47083156Y2540000D01*
X47064564Y2764368D01*
X47009296Y2982616D01*
X46918860Y3188791D01*
X46795722Y3377268D01*
X46643240Y3542906D01*
X46576336Y3594981D01*
X46541099Y3638372D01*
X46528500Y3692832D01*
X46528500Y7711096D01*
X46519882Y7748852D01*
X46517553Y7762563D01*
X46513217Y7801044D01*
X46513217Y7801047D01*
X46500421Y7837616D01*
X46496575Y7850969D01*
X46487959Y7888720D01*
X46487315Y7890056D01*
X46471153Y7923619D01*
X46465831Y7936467D01*
X46453043Y7973015D01*
X46432441Y8005802D01*
X46425715Y8017972D01*
X46408909Y8052869D01*
X46408909Y8052870D01*
X46384752Y8083162D01*
X46376719Y8094483D01*
X46356111Y8127281D01*
X46227281Y8256111D01*
X40974416Y13508977D01*
X40942752Y13562999D01*
X40941523Y13625605D01*
X40963609Y13717597D01*
X40967183Y13763019D01*
X40991933Y13828129D01*
X41047882Y13869624D01*
X41117375Y13874407D01*
X41178482Y13840969D01*
X50155181Y4864270D01*
X50182061Y4824042D01*
X50191500Y4776589D01*
X50191500Y3829259D01*
X50174023Y3765786D01*
X50126518Y3720205D01*
X50054426Y3681191D01*
X49876760Y3542906D01*
X49724279Y3377270D01*
X49601138Y3188789D01*
X49530000Y3026607D01*
X49510704Y2982616D01*
X49455436Y2764368D01*
X49455435Y2764364D01*
X49436843Y2540000D01*
X49455435Y2315637D01*
X49455435Y2315634D01*
X49455436Y2315632D01*
X49474073Y2242035D01*
X49510705Y2097382D01*
X49601138Y1891212D01*
X49601140Y1891209D01*
X49724278Y1702732D01*
X49876760Y1537094D01*
X50054424Y1398811D01*
X50252426Y1291658D01*
X50465365Y1218556D01*
X50687431Y1181500D01*
X50912569Y1181500D01*
X51134635Y1218556D01*
X51347574Y1291658D01*
X51545576Y1398811D01*
X51723240Y1537094D01*
X51875722Y1702732D01*
X51966190Y1841205D01*
X52010982Y1882439D01*
X52070000Y1897384D01*
X52129018Y1882439D01*
X52173809Y1841205D01*
X52264278Y1702732D01*
X52416760Y1537094D01*
X52594424Y1398811D01*
X52792426Y1291658D01*
X53005365Y1218556D01*
X53227431Y1181500D01*
X53452569Y1181500D01*
X53674635Y1218556D01*
X53887574Y1291658D01*
X54085576Y1398811D01*
X54263240Y1537094D01*
X54415722Y1702732D01*
X54506190Y1841205D01*
X54550982Y1882439D01*
X54610000Y1897384D01*
X54669018Y1882439D01*
X54713809Y1841205D01*
X54804278Y1702732D01*
X54956760Y1537094D01*
X55134424Y1398811D01*
X55332426Y1291658D01*
X55545365Y1218556D01*
X55767431Y1181500D01*
X55992569Y1181500D01*
X56214635Y1218556D01*
X56427574Y1291658D01*
X56625576Y1398811D01*
X56803240Y1537094D01*
X56955722Y1702732D01*
X57046190Y1841205D01*
X57090982Y1882439D01*
X57150000Y1897384D01*
X57209018Y1882439D01*
X57253809Y1841205D01*
X57344278Y1702732D01*
X57496760Y1537094D01*
X57674424Y1398811D01*
X57872426Y1291658D01*
X58085365Y1218556D01*
X58307431Y1181500D01*
X58532569Y1181500D01*
X58754635Y1218556D01*
X58967574Y1291658D01*
X59165576Y1398811D01*
X59343240Y1537094D01*
X59495722Y1702732D01*
X59586190Y1841205D01*
X59630982Y1882439D01*
X59690000Y1897384D01*
X59749018Y1882439D01*
X59793809Y1841205D01*
X59884278Y1702732D01*
X60036760Y1537094D01*
X60214424Y1398811D01*
X60412426Y1291658D01*
X60625365Y1218556D01*
X60847431Y1181500D01*
X61072569Y1181500D01*
X61294635Y1218556D01*
X61507574Y1291658D01*
X61705576Y1398811D01*
X61883240Y1537094D01*
X62035722Y1702732D01*
X62126190Y1841205D01*
X62170982Y1882439D01*
X62230000Y1897384D01*
X62289018Y1882439D01*
X62333809Y1841205D01*
X62424278Y1702732D01*
X62576760Y1537094D01*
X62754424Y1398811D01*
X62952426Y1291658D01*
X63165365Y1218556D01*
X63387431Y1181500D01*
X63612569Y1181500D01*
X63834635Y1218556D01*
X64047574Y1291658D01*
X64245576Y1398811D01*
X64423240Y1537094D01*
X64575722Y1702732D01*
X64698860Y1891209D01*
X64789296Y2097384D01*
X64844564Y2315632D01*
X64863156Y2540000D01*
X64844564Y2764368D01*
X64789296Y2982616D01*
X64698860Y3188791D01*
X64575722Y3377268D01*
X64423240Y3542906D01*
X64245576Y3681189D01*
X64245574Y3681190D01*
X64245573Y3681191D01*
X64173482Y3720205D01*
X64125977Y3765786D01*
X64108500Y3829259D01*
X64108500Y5031988D01*
X64109561Y5048174D01*
X64113751Y5080000D01*
X64112443Y5089936D01*
X64092838Y5238850D01*
X64031524Y5386876D01*
X63958478Y5482071D01*
X63958474Y5482075D01*
X63933987Y5513987D01*
X63908512Y5533535D01*
X63896326Y5544223D01*
X46819225Y22621324D01*
X46808531Y22633518D01*
X46788989Y22658985D01*
X46788987Y22658986D01*
X46788987Y22658987D01*
X46763519Y22678530D01*
X46661876Y22756524D01*
X46513851Y22817838D01*
X46494456Y22820392D01*
X46481895Y22822046D01*
X46386833Y22834561D01*
X46386820Y22834561D01*
X46355000Y22838751D01*
X46323180Y22834561D01*
X46306995Y22833500D01*
X40928090Y22833500D01*
X40866971Y22849609D01*
X40821732Y22893751D01*
X40804127Y22954457D01*
X40818732Y23015953D01*
X40850127Y23074691D01*
X40902659Y23172969D01*
X40963185Y23372498D01*
X40978500Y23527995D01*
X40978499Y24732004D01*
X40963185Y24887502D01*
X40902659Y25087031D01*
X40804369Y25270917D01*
X40672094Y25432094D01*
X40510917Y25564369D01*
X40349083Y25650872D01*
X40327030Y25662660D01*
X40266504Y25681020D01*
X40220741Y25706452D01*
X40189553Y25748505D01*
X40178500Y25799680D01*
X40178500Y27107168D01*
X40191099Y27161628D01*
X40226336Y27205020D01*
X40293240Y27257094D01*
X40445722Y27422732D01*
X40568860Y27611209D01*
X40659296Y27817384D01*
X40714564Y28035632D01*
X40733156Y28260000D01*
X40714564Y28484368D01*
X40659296Y28702616D01*
X40604191Y28828243D01*
X40568860Y28908792D01*
X40545414Y28944679D01*
X40525329Y29007376D01*
X40540168Y29071518D01*
X40585749Y29119023D01*
X40649223Y29136500D01*
X59467285Y29136500D01*
X59514738Y29127061D01*
X59554966Y29100181D01*
X62430263Y26224884D01*
X62459863Y26177467D01*
X62465630Y26121867D01*
X62446393Y26069384D01*
X62423138Y26033789D01*
X62332705Y25827619D01*
X62277435Y25609364D01*
X62258843Y25385000D01*
X62277435Y25160637D01*
X62277435Y25160634D01*
X62277436Y25160632D01*
X62310150Y25031447D01*
X62332705Y24942382D01*
X62423138Y24736212D01*
X62423140Y24736209D01*
X62546278Y24547732D01*
X62698760Y24382094D01*
X62876424Y24243811D01*
X63074426Y24136658D01*
X63287365Y24063556D01*
X63509431Y24026500D01*
X63734569Y24026500D01*
X63956635Y24063556D01*
X64169574Y24136658D01*
X64367576Y24243811D01*
X64401320Y24270075D01*
X65400625Y24270075D01*
X65484420Y24211401D01*
X65698507Y24111570D01*
X65926681Y24050431D01*
X66162000Y24029843D01*
X66397318Y24050431D01*
X66625492Y24111570D01*
X66839576Y24211400D01*
X66923373Y24270075D01*
X66162000Y25031447D01*
X65400625Y24270075D01*
X64401320Y24270075D01*
X64545240Y24382094D01*
X64697722Y24547732D01*
X64791748Y24691651D01*
X64835664Y24732405D01*
X64893563Y24747812D01*
X64951927Y24734274D01*
X64997131Y24694951D01*
X65047072Y24623627D01*
X65047073Y24623627D01*
X66074318Y25650872D01*
X66129905Y25682966D01*
X66194093Y25682966D01*
X66249680Y25650872D01*
X67276925Y24623627D01*
X67335600Y24707424D01*
X67435430Y24921508D01*
X67496569Y25149682D01*
X67517157Y25385000D01*
X67496569Y25620319D01*
X67435430Y25848493D01*
X67335600Y26062576D01*
X67248387Y26187129D01*
X67227271Y26240281D01*
X67232256Y26297256D01*
X67262277Y26345929D01*
X68108332Y27191985D01*
X68120510Y27202665D01*
X68145987Y27222213D01*
X68157969Y27237830D01*
X68157973Y27237833D01*
X68170475Y27254128D01*
X68170477Y27254128D01*
X68223906Y27323759D01*
X68243524Y27349325D01*
X68265940Y27403443D01*
X68307614Y27456306D01*
X68370771Y27479606D01*
X68436795Y27466473D01*
X68486227Y27420778D01*
X68504500Y27355988D01*
X68504500Y5162636D01*
X68495061Y5115183D01*
X68468181Y5074955D01*
X66018418Y2625194D01*
X66003001Y2613364D01*
X65987760Y2595201D01*
X65980463Y2587238D01*
X65971683Y2578458D01*
X65965290Y2568423D01*
X65964501Y2567484D01*
X65960880Y2557536D01*
X65959959Y2547004D01*
X65960275Y2545826D01*
X65964500Y2513732D01*
X65964500Y1005412D01*
X65964028Y994604D01*
X65951400Y850272D01*
X65947647Y828987D01*
X65911553Y694281D01*
X65904160Y673969D01*
X65845224Y547582D01*
X65834417Y528864D01*
X65754430Y414630D01*
X65740536Y398072D01*
X65641928Y299464D01*
X65625370Y285570D01*
X65511136Y205583D01*
X65492418Y194776D01*
X65366031Y135840D01*
X65345719Y128447D01*
X65211013Y92353D01*
X65189728Y88600D01*
X65059599Y77215D01*
X65045394Y75972D01*
X65034588Y75500D01*
X1005412Y75500D01*
X994605Y75972D01*
X978693Y77365D01*
X850271Y88600D01*
X828986Y92353D01*
X694280Y128447D01*
X673968Y135840D01*
X547581Y194776D01*
X528863Y205583D01*
X414629Y285570D01*
X398071Y299464D01*
X299463Y398072D01*
X285569Y414630D01*
X205582Y528864D01*
X194775Y547582D01*
X191834Y553889D01*
X135838Y673972D01*
X128446Y694281D01*
X92352Y828987D01*
X88599Y850273D01*
X75972Y994605D01*
X75500Y1005412D01*
X75500Y1663298D01*
X6898848Y1663298D01*
X7081479Y1538783D01*
X7324542Y1421730D01*
X7582339Y1342209D01*
X7849109Y1302000D01*
X8118891Y1302000D01*
X8385660Y1342209D01*
X8643460Y1421730D01*
X8886523Y1538783D01*
X9069150Y1663298D01*
X7984000Y2748447D01*
X6898848Y1663298D01*
X75500Y1663298D01*
X75500Y3102000D01*
X6178952Y3102000D01*
X6199113Y2832974D01*
X6259146Y2569951D01*
X6357708Y2318822D01*
X6492598Y2085184D01*
X6546295Y2017850D01*
X7630447Y3101999D01*
X7630447Y3102000D01*
X8337553Y3102000D01*
X9421703Y2017849D01*
X9421704Y2017850D01*
X9475400Y2085182D01*
X9610291Y2318822D01*
X9708853Y2569951D01*
X9768886Y2832974D01*
X9789047Y3102000D01*
X9768886Y3371027D01*
X9708853Y3634050D01*
X9610291Y3885179D01*
X9475398Y4118822D01*
X9421704Y4186153D01*
X8337553Y3102000D01*
X7630447Y3102000D01*
X6546295Y4186152D01*
X6492598Y4118818D01*
X6357708Y3885179D01*
X6259146Y3634050D01*
X6199113Y3371027D01*
X6178952Y3102000D01*
X75500Y3102000D01*
X75500Y4540704D01*
X6898848Y4540704D01*
X7984000Y3455553D01*
X7984001Y3455553D01*
X9069150Y4540704D01*
X8886519Y4665220D01*
X8643460Y4782271D01*
X8385660Y4861792D01*
X8118891Y4902000D01*
X7849109Y4902000D01*
X7582339Y4861792D01*
X7324542Y4782271D01*
X7081476Y4665217D01*
X6898848Y4540704D01*
X75500Y4540704D01*
X75500Y6363298D01*
X3898848Y6363298D01*
X4081479Y6238783D01*
X4324542Y6121730D01*
X4582339Y6042209D01*
X4849109Y6002000D01*
X5118891Y6002000D01*
X5385660Y6042209D01*
X5643460Y6121730D01*
X5886523Y6238783D01*
X6069150Y6363298D01*
X4984000Y7448447D01*
X3898848Y6363298D01*
X75500Y6363298D01*
X75500Y7802000D01*
X3178952Y7802000D01*
X3199113Y7532974D01*
X3259146Y7269951D01*
X3357708Y7018822D01*
X3492598Y6785184D01*
X3546295Y6717850D01*
X4630447Y7801999D01*
X4630447Y7802000D01*
X5337553Y7802000D01*
X6421703Y6717849D01*
X6421704Y6717850D01*
X6475400Y6785182D01*
X6610291Y7018822D01*
X6708853Y7269951D01*
X6768886Y7532974D01*
X6789047Y7802000D01*
X6768886Y8071027D01*
X6708853Y8334050D01*
X6610291Y8585179D01*
X6475398Y8818822D01*
X6421704Y8886153D01*
X5337553Y7802000D01*
X4630447Y7802000D01*
X3546295Y8886152D01*
X3492598Y8818818D01*
X3357708Y8585179D01*
X3259146Y8334050D01*
X3199113Y8071027D01*
X3178952Y7802000D01*
X75500Y7802000D01*
X75500Y9240704D01*
X3898848Y9240704D01*
X4984000Y8155553D01*
X4984001Y8155553D01*
X6069150Y9240704D01*
X5886519Y9365220D01*
X5643460Y9482271D01*
X5385660Y9561792D01*
X5118891Y9602000D01*
X4849109Y9602000D01*
X4582339Y9561792D01*
X4324542Y9482271D01*
X4081476Y9365217D01*
X3898848Y9240704D01*
X75500Y9240704D01*
X75500Y50326390D01*
X2179942Y50326390D01*
X2226766Y50289945D01*
X2445393Y50171632D01*
X2680506Y50090917D01*
X2925707Y50050000D01*
X3174293Y50050000D01*
X3419493Y50090917D01*
X3654606Y50171632D01*
X3873233Y50289947D01*
X3920055Y50326390D01*
X8679942Y50326390D01*
X8726766Y50289945D01*
X8945393Y50171632D01*
X9180506Y50090917D01*
X9425707Y50050000D01*
X9674293Y50050000D01*
X9919493Y50090917D01*
X10154606Y50171632D01*
X10373233Y50289947D01*
X10420056Y50326391D01*
X9550000Y51196447D01*
X8679942Y50326391D01*
X8679942Y50326390D01*
X3920055Y50326390D01*
X3920056Y50326391D01*
X3050000Y51196447D01*
X2179942Y50326391D01*
X2179942Y50326390D01*
X75500Y50326390D01*
X75500Y51550000D01*
X1544858Y51550000D01*
X1565386Y51302268D01*
X1626413Y51061279D01*
X1726268Y50833630D01*
X1826563Y50680118D01*
X1826564Y50680118D01*
X2696447Y51549999D01*
X3403553Y51549999D01*
X4273434Y50680118D01*
X4373730Y50833631D01*
X4473586Y51061279D01*
X4534613Y51302268D01*
X4555141Y51550000D01*
X8044858Y51550000D01*
X8065386Y51302268D01*
X8126413Y51061279D01*
X8226268Y50833630D01*
X8326563Y50680118D01*
X8326564Y50680118D01*
X9196447Y51549999D01*
X9903553Y51549999D01*
X10773434Y50680118D01*
X10873730Y50833631D01*
X10973586Y51061279D01*
X11034613Y51302268D01*
X11055141Y51550000D01*
X11034613Y51797733D01*
X10973586Y52038722D01*
X10873730Y52266370D01*
X10773434Y52419884D01*
X9903553Y51550000D01*
X9903553Y51549999D01*
X9196447Y51549999D01*
X9196447Y51550000D01*
X8326564Y52419884D01*
X8226266Y52266366D01*
X8126413Y52038722D01*
X8065386Y51797733D01*
X8044858Y51550000D01*
X4555141Y51550000D01*
X4534613Y51797733D01*
X4473586Y52038722D01*
X4373730Y52266370D01*
X4273434Y52419884D01*
X3403553Y51550000D01*
X3403553Y51549999D01*
X2696447Y51549999D01*
X2696447Y51550000D01*
X1826564Y52419884D01*
X1726266Y52266366D01*
X1626413Y52038722D01*
X1565386Y51797733D01*
X1544858Y51550000D01*
X75500Y51550000D01*
X75500Y52334588D01*
X75972Y52345395D01*
X88599Y52489728D01*
X92352Y52511014D01*
X128446Y52645720D01*
X135836Y52666025D01*
X194778Y52792426D01*
X205578Y52811132D01*
X285574Y52925379D01*
X299457Y52941923D01*
X398077Y53040543D01*
X414621Y53054426D01*
X528868Y53134422D01*
X547574Y53145222D01*
X673975Y53204164D01*
X694275Y53211553D01*
X828986Y53247649D01*
X850269Y53251401D01*
X994604Y53264028D01*
X1005412Y53264500D01*
X1024531Y53264500D01*
X2714675Y53264500D01*
X2773693Y53249555D01*
G37*
%TD.AperFunction*%
%TA.AperFunction,Conductor*%
G36*
X10219016Y27602439D02*
G01*
X10263807Y27561206D01*
X10354275Y27422735D01*
X10354277Y27422733D01*
X10354278Y27422732D01*
X10506760Y27257094D01*
X10684424Y27118811D01*
X10882426Y27011658D01*
X11095365Y26938556D01*
X11317431Y26901500D01*
X11542569Y26901500D01*
X11764635Y26938556D01*
X11785412Y26945690D01*
X11853625Y26949220D01*
X11913360Y26916091D01*
X23350777Y15478674D01*
X23361472Y15466479D01*
X23381013Y15441012D01*
X23412925Y15416525D01*
X23412928Y15416523D01*
X23508124Y15343476D01*
X23612790Y15300122D01*
X23656146Y15282163D01*
X23656149Y15282162D01*
X23675543Y15279609D01*
X23775115Y15266500D01*
X23775116Y15266500D01*
X23783168Y15265440D01*
X23783178Y15265440D01*
X23815000Y15261250D01*
X23846820Y15265440D01*
X23863005Y15266500D01*
X38093022Y15266500D01*
X38159875Y15246935D01*
X38205632Y15194414D01*
X38215853Y15125510D01*
X38187312Y15061968D01*
X38064671Y14918375D01*
X37932385Y14702504D01*
X37835494Y14468591D01*
X37776391Y14222405D01*
X37756526Y13970001D01*
X37776391Y13717596D01*
X37835494Y13471410D01*
X37883939Y13354454D01*
X37932384Y13237498D01*
X38064672Y13021624D01*
X38229102Y12829102D01*
X38421624Y12664672D01*
X38637498Y12532384D01*
X38871409Y12435495D01*
X39117597Y12376391D01*
X39370000Y12356526D01*
X39622403Y12376391D01*
X39714396Y12398477D01*
X39777001Y12397248D01*
X39831024Y12365584D01*
X44875181Y7321427D01*
X44902061Y7281199D01*
X44911500Y7233746D01*
X44911500Y3692832D01*
X44898901Y3638372D01*
X44863663Y3594981D01*
X44841978Y3578101D01*
X44796760Y3542906D01*
X44644275Y3377266D01*
X44550250Y3233351D01*
X44506333Y3192596D01*
X44448435Y3177189D01*
X44390070Y3190727D01*
X44344867Y3230050D01*
X44294925Y3301374D01*
X44294925Y3301375D01*
X43267680Y2274129D01*
X43212093Y2242035D01*
X43147905Y2242035D01*
X43092318Y2274129D01*
X42065072Y3301375D01*
X42065072Y3301374D01*
X42011574Y3224970D01*
X41967256Y3186104D01*
X41909999Y3172093D01*
X41852742Y3186104D01*
X41808424Y3224970D01*
X41754925Y3301374D01*
X41754925Y3301375D01*
X40727680Y2274129D01*
X40672093Y2242035D01*
X40607905Y2242035D01*
X40552318Y2274129D01*
X39525073Y3301374D01*
X39475133Y3230050D01*
X39429929Y3190727D01*
X39371565Y3177188D01*
X39313665Y3192595D01*
X39269748Y3233351D01*
X39175723Y3377268D01*
X39099481Y3460087D01*
X39023240Y3542906D01*
X38879316Y3654928D01*
X39878625Y3654928D01*
X40640000Y2893553D01*
X40640001Y2893553D01*
X41401373Y3654927D01*
X41401373Y3654928D01*
X42418625Y3654928D01*
X43180000Y2893553D01*
X43180001Y2893553D01*
X43941373Y3654927D01*
X43941373Y3654928D01*
X43857580Y3713600D01*
X43643492Y3813431D01*
X43415318Y3874570D01*
X43180000Y3895158D01*
X42944681Y3874570D01*
X42716507Y3813431D01*
X42502422Y3713601D01*
X42418625Y3654928D01*
X41401373Y3654928D01*
X41317580Y3713600D01*
X41103492Y3813431D01*
X40875318Y3874570D01*
X40640000Y3895158D01*
X40404681Y3874570D01*
X40176507Y3813431D01*
X39962422Y3713601D01*
X39878625Y3654928D01*
X38879316Y3654928D01*
X38845576Y3681189D01*
X38647574Y3788342D01*
X38647573Y3788343D01*
X38647572Y3788343D01*
X38434636Y3861444D01*
X38212569Y3898500D01*
X37987431Y3898500D01*
X37765363Y3861444D01*
X37552427Y3788343D01*
X37354424Y3681189D01*
X37176760Y3542906D01*
X37024279Y3377270D01*
X36933809Y3238795D01*
X36889017Y3197562D01*
X36830000Y3182617D01*
X36770983Y3197562D01*
X36726191Y3238795D01*
X36635723Y3377266D01*
X36635722Y3377268D01*
X36483240Y3542906D01*
X36305576Y3681189D01*
X36107574Y3788342D01*
X36107573Y3788343D01*
X36107572Y3788343D01*
X35894636Y3861444D01*
X35672569Y3898500D01*
X35447431Y3898500D01*
X35447430Y3898500D01*
X35301312Y3874119D01*
X35243073Y3878340D01*
X35193223Y3908747D01*
X34173775Y4928195D01*
X34168658Y4933630D01*
X34128273Y4979215D01*
X34128272Y4979216D01*
X34128270Y4979218D01*
X34078170Y5013800D01*
X34072137Y5018239D01*
X34024225Y5055776D01*
X34014760Y5060036D01*
X33995216Y5071059D01*
X33986677Y5076953D01*
X33986675Y5076954D01*
X33929767Y5098537D01*
X33922848Y5101403D01*
X33867329Y5126389D01*
X33857111Y5128262D01*
X33835500Y5134287D01*
X33825802Y5137965D01*
X33765369Y5145304D01*
X33757970Y5146431D01*
X33698095Y5157403D01*
X33637324Y5153726D01*
X33629837Y5153500D01*
X30509832Y5153500D01*
X30462379Y5162939D01*
X30422151Y5189819D01*
X8922151Y26689819D01*
X8891901Y26739182D01*
X8887359Y26796898D01*
X8909514Y26850385D01*
X8953537Y26887985D01*
X8992833Y26897420D01*
X8992435Y26899809D01*
X9002568Y26901500D01*
X9002569Y26901500D01*
X9224635Y26938556D01*
X9437574Y27011658D01*
X9635576Y27118811D01*
X9813240Y27257094D01*
X9965722Y27422732D01*
X10056192Y27561207D01*
X10100981Y27602438D01*
X10159998Y27617384D01*
X10219016Y27602439D01*
G37*
%TD.AperFunction*%
%TA.AperFunction,Conductor*%
G36*
X36917680Y28525872D02*
G01*
X37944925Y27498627D01*
X37994868Y27569952D01*
X38040072Y27609274D01*
X38098436Y27622812D01*
X38156335Y27607405D01*
X38200252Y27566649D01*
X38294276Y27422733D01*
X38376573Y27333337D01*
X38446760Y27257094D01*
X38513663Y27205020D01*
X38548901Y27161628D01*
X38561500Y27107168D01*
X38561500Y25799680D01*
X38550447Y25748505D01*
X38519259Y25706452D01*
X38473496Y25681020D01*
X38412969Y25662660D01*
X38229084Y25564370D01*
X38067906Y25432094D01*
X37935630Y25270916D01*
X37837342Y25087034D01*
X37776814Y24887501D01*
X37761500Y24732005D01*
X37761500Y23527997D01*
X37776814Y23372500D01*
X37837342Y23172967D01*
X37921268Y23015953D01*
X37935873Y22954457D01*
X37918268Y22893751D01*
X37873029Y22849609D01*
X37811910Y22833500D01*
X30468411Y22833500D01*
X30420958Y22842939D01*
X30380730Y22869819D01*
X26560730Y26689819D01*
X26530480Y26739182D01*
X26525938Y26796898D01*
X26548093Y26850385D01*
X26592116Y26887985D01*
X26648411Y26901500D01*
X26782569Y26901500D01*
X27004635Y26938556D01*
X27217574Y27011658D01*
X27415576Y27118811D01*
X27593240Y27257094D01*
X27745722Y27422732D01*
X27836192Y27561207D01*
X27880981Y27602438D01*
X27939998Y27617384D01*
X27999016Y27602439D01*
X28043807Y27561206D01*
X28134275Y27422735D01*
X28134277Y27422733D01*
X28134278Y27422732D01*
X28286760Y27257094D01*
X28464424Y27118811D01*
X28662426Y27011658D01*
X28875365Y26938556D01*
X29097431Y26901500D01*
X29322569Y26901500D01*
X29544635Y26938556D01*
X29757574Y27011658D01*
X29955576Y27118811D01*
X30133240Y27257094D01*
X30285722Y27422732D01*
X30376190Y27561205D01*
X30420982Y27602439D01*
X30480000Y27617384D01*
X30539018Y27602439D01*
X30583809Y27561205D01*
X30645700Y27466473D01*
X30674278Y27422732D01*
X30826760Y27257094D01*
X31004424Y27118811D01*
X31202426Y27011658D01*
X31415365Y26938556D01*
X31637431Y26901500D01*
X31862569Y26901500D01*
X32084635Y26938556D01*
X32297574Y27011658D01*
X32495576Y27118811D01*
X32673240Y27257094D01*
X32825722Y27422732D01*
X32916190Y27561205D01*
X32960982Y27602439D01*
X33020000Y27617384D01*
X33079018Y27602439D01*
X33123809Y27561205D01*
X33185700Y27466473D01*
X33214278Y27422732D01*
X33366760Y27257094D01*
X33544424Y27118811D01*
X33742426Y27011658D01*
X33955365Y26938556D01*
X34177431Y26901500D01*
X34402569Y26901500D01*
X34624635Y26938556D01*
X34837574Y27011658D01*
X35035576Y27118811D01*
X35069320Y27145075D01*
X36068625Y27145075D01*
X36152420Y27086401D01*
X36366507Y26986570D01*
X36594681Y26925431D01*
X36830000Y26904843D01*
X37065318Y26925431D01*
X37293492Y26986570D01*
X37507576Y27086400D01*
X37591373Y27145075D01*
X36830000Y27906447D01*
X36068625Y27145075D01*
X35069320Y27145075D01*
X35213240Y27257094D01*
X35365722Y27422732D01*
X35459748Y27566651D01*
X35503664Y27607405D01*
X35561563Y27622812D01*
X35619927Y27609274D01*
X35665131Y27569951D01*
X35715072Y27498627D01*
X35715073Y27498627D01*
X36742318Y28525872D01*
X36797905Y28557966D01*
X36862093Y28557966D01*
X36917680Y28525872D01*
G37*
%TD.AperFunction*%
%TD*%
M02*
