<?xml version="1.0" encoding="UTF-8" standalone="no"?>
<!-- Created with Inkscape (http://www.inkscape.org/) -->

<svg
   width="0.69999999in"
   height="0.69999999in"
   viewBox="0 0 17.78 17.78"
   version="1.1"
   id="svg1"
   inkscape:version="1.2.2 (732a01da63, 2022-12-09)"
   sodipodi:docname="QR_Code.svg"
   xmlns:inkscape="http://www.inkscape.org/namespaces/inkscape"
   xmlns:sodipodi="http://sodipodi.sourceforge.net/DTD/sodipodi-0.dtd"
   xmlns="http://www.w3.org/2000/svg"
   xmlns:svg="http://www.w3.org/2000/svg">
  <sodipodi:namedview
     id="namedview1"
     pagecolor="#ffffff"
     bordercolor="#000000"
     borderopacity="0.25"
     inkscape:showpageshadow="2"
     inkscape:pageopacity="0.0"
     inkscape:pagecheckerboard="0"
     inkscape:deskcolor="#d1d1d1"
     inkscape:document-units="mm"
     inkscape:zoom="8"
     inkscape:cx="58.6875"
     inkscape:cy="37.75"
     inkscape:window-width="1920"
     inkscape:window-height="1017"
     inkscape:window-x="-8"
     inkscape:window-y="-8"
     inkscape:window-maximized="1"
     inkscape:current-layer="layer1"
     showgrid="false" />
  <defs
     id="defs1" />
  <g
     inkscape:label="Layer 1"
     inkscape:groupmode="layer"
     id="layer1">
    <path
       id="rect176"
       style="fill:#ff0000;stroke:none;stroke-width:0.24027"
       d="M 0,0 V 17.779999 H 17.78 V 0 Z m 1.9221624,1.9221617 h 3.363784 v 3.3637839 h -3.363784 z m 5.2859455,0 H 9.1302703 V 2.4027025 H 7.2081079 V 2.8832433 H 6.2470271 V 2.4027025 h 0.9610808 z m 2.8832431,0 h 0.480541 v 0.4805408 h 0.480541 v 0.4805408 h 0.48054 v 0.4805399 h 0.48054 v 2.4027033 h -0.48054 v 0.4805399 h -0.48054 V 6.7275672 H 10.571892 V 7.208108 h -0.480541 v 0.48054 h 0.480541 v 0.4805408 h 0.480541 V 7.208108 h 0.48054 V 6.7275672 h 0.48054 V 6.2470264 h 0.480541 V 6.7275672 H 12.013513 V 7.208108 h 0.480541 v 0.48054 h 0.961081 v 0.4805408 h 0.480541 v 0.4805408 h 0.961081 V 8.1691888 h 0.48054 V 7.688648 h 0.48054 v 0.9610816 h -0.96108 v 1.4416214 h 0.96108 v 0.961081 h -0.48054 v -0.480541 h -0.961081 v 0.480541 h -0.961081 v -0.480541 h -0.961081 v -0.48054 H 12.013513 V 9.6108102 h 0.480541 v 0.4805408 h 0.48054 V 9.1302694 h 0.480541 V 8.6497296 h -0.961081 v 0.4805398 h -0.961081 v 1.9221626 h 0.48054 v 0.480541 h 0.480541 v -0.480541 h 0.48054 v 0.480541 h 0.961082 v 0.480539 h 0.48054 v -0.480539 h 1.441621 v 0.480539 h -1.441621 v 0.480541 h 0.480541 v 0.480541 h -0.961081 v 0.48054 h 0.48054 v 0.480541 h 0.480541 v 0.480541 h 0.48054 v -0.480541 h 0.48054 v 0.480541 h -0.48054 v 0.48054 h 0.48054 v 0.48054 h -0.48054 v -0.48054 h -0.48054 v 0.961081 h -0.480541 v -0.480541 h -0.48054 v 0.480541 h -1.441622 v -0.961081 h -1.441621 v -0.48054 h -0.480541 v 0.48054 h -0.480541 v 0.48054 h 1.441622 v 0.480541 H 8.6497294 v -0.480541 h 0.4805409 v -0.48054 H 8.6497294 V 12.494053 H 8.1691895 v 0.480541 H 7.6886487 v 0.48054 h 0.4805408 v 1.441622 H 7.6886487 v 0.48054 H 7.2081079 v -0.48054 H 7.6886487 V 13.455134 H 7.2081079 v 0.961082 h -0.48054 v 1.441621 H 5.7664863 v -0.961081 h 0.4805408 v -0.48054 h 0.4805408 v -2.402704 h 0.48054 v 0.480541 H 8.1691895 V 12.013512 H 7.6886487 v -0.96108 H 6.7275679 V 10.571891 H 6.2470271 v 0.480541 H 5.7664863 v 0.96108 h 0.4805408 v 1.441622 H 5.7664863 V 12.013512 H 4.8054055 V 11.532973 H 4.3248647 V 11.052432 H 3.8443248 v 0.96108 H 3.363784 V 11.532973 H 2.8832431 V 11.052432 H 2.4027032 v 0.96108 H 1.9221624 v -1.922161 h 0.4805408 v 0.48054 H 2.8832431 V 9.1302694 H 1.9221624 V 8.1691888 H 2.4027032 V 8.6497296 H 3.363784 V 9.1302694 H 3.8443248 V 8.1691888 H 2.8832431 V 7.208108 H 2.4027032 V 6.2470264 H 1.9221624 V 5.7664865 H 2.8832431 V 6.2470264 H 3.363784 V 7.208108 H 3.8443248 V 8.1691888 H 4.8054055 V 7.688648 H 5.2859464 V 7.208108 H 4.3248647 V 6.7275672 H 3.8443248 V 6.2470264 H 4.3248647 V 5.7664865 H 5.7664863 V 6.2470264 H 4.8054055 V 6.7275672 H 6.2470271 V 5.7664865 H 6.7275679 V 4.8054048 h 0.48054 V 4.3248649 H 8.1691895 V 5.2859456 H 7.6886487 V 6.2470264 H 8.1691895 V 5.7664865 H 9.6108111 V 6.2470264 H 8.1691895 V 6.7275672 H 7.6886487 V 6.2470264 H 7.2081079 V 5.7664865 h -0.48054 v 0.9610807 h 0.48054 V 7.208108 h -0.48054 v 1.9221614 h 0.48054 V 8.6497296 H 8.1691895 V 9.1302694 H 7.6886487 V 10.091351 H 8.1691895 V 9.6108102 H 9.1302703 V 9.1302694 H 8.6497294 V 8.6497296 H 9.1302703 V 8.1691888 H 9.6108111 V 7.208108 H 8.6497294 V 6.7275672 H 10.091351 V 5.7664865 h 1.441622 V 3.3637832 h -0.48054 v 0.4805409 h -0.961082 v 0.4805408 h 0.480541 v 0.4805399 h 0.480541 V 5.2859456 H 10.571892 V 4.8054048 H 10.091351 V 5.2859456 H 9.6108111 V 3.3637832 H 8.6497294 V 3.8443241 H 9.1302703 V 4.3248649 H 8.6497294 V 3.8443241 H 7.6886487 V 2.8832433 H 8.1691895 V 3.3637832 H 8.6497294 V 2.8832433 h 1.4416216 z m 0,0.9610816 v 0.4805399 h 0.480541 V 2.8832433 Z M 9.6108111,8.1691888 V 8.6497296 H 10.091351 V 8.1691888 Z M 9.1302703,9.6108102 v 0.9610808 h 0.4805408 v -0.48054 H 10.091351 V 9.6108102 h 0.480541 V 9.1302694 H 9.6108111 V 9.6108102 Z M 10.571892,9.1302694 h 0.961081 V 8.1691888 h -0.48054 v 0.4805408 h -0.480541 z m 0,0.4805408 v 0.4805408 h 0.480541 V 9.6108102 Z m 0,0.4805408 h -0.480541 v 0.48054 h 0.480541 z m -2.4027025,0 v 0.48054 H 7.6886487 v 0.480541 h 0.4805408 v 0.480541 h 0.4805399 v 0.480539 h 0.4805409 v 0.480541 h 0.9610807 v -0.96108 H 9.1302703 V 11.052432 H 8.6497294 v -0.961081 z m 1.9221615,1.441622 h 0.480541 v 0.480539 h 0.480541 v -0.480539 h 0.48054 v -0.480541 h -1.441622 z m 0.961082,0.480539 v 0.480541 h 0.48054 v -0.480541 z m 0,0.480541 h -0.480541 v 0.480541 h 0.480541 z m -0.480541,0.480541 h -0.480541 v 0.48054 H 9.6108111 v 0.480541 H 11.052433 V 13.455134 H 10.571892 Z M 9.6108111,13.935675 H 9.1302703 v 0.480541 h 0.4805408 z m 0,0.480541 v 0.48054 h 0.4805399 v -0.48054 z m 0,-0.961082 v -0.48054 H 9.1302703 v 0.48054 z M 7.6886487,10.571891 v -0.48054 H 7.2081079 V 9.6108102 h -0.48054 V 9.1302694 H 5.7664863 V 8.6497296 H 5.2859464 V 9.1302694 H 4.8054055 V 8.6497296 H 4.3248647 v 0.9610806 h 1.4416216 v 0.9610808 h 0.4805408 v -0.48054 h 0.4805408 v 0.48054 z M 4.8054055,8.6497296 H 5.2859464 V 8.1691888 H 4.8054055 Z M 5.2859464,8.1691888 H 5.7664863 V 8.6497296 H 6.2470271 V 7.208108 H 5.7664863 v 0.48054 H 5.2859464 Z M 6.2470271,7.208108 H 6.7275679 V 6.7275672 H 6.2470271 Z M 7.6886487,5.2859456 V 4.8054048 H 7.2081079 V 5.2859456 Z M 2.8832431,10.571891 v 0.480541 h 0.9610817 v -0.480541 z m 1.9221624,0.961082 H 5.2859464 V 11.052432 H 4.8054055 Z m 9.1302705,3.844323 v -0.48054 h -0.480541 v 0.48054 z M 12.494054,8.6497296 V 7.688648 H 12.013513 V 8.6497296 Z M 12.013513,7.688648 v -0.48054 h -0.48054 v 0.48054 z m 2.402703,2.883243 v -0.48054 h -0.48054 v 0.48054 z m -0.48054,-0.48054 V 9.6108102 h -0.480541 v 0.4805408 z m 0,-0.4805408 h 0.48054 V 9.1302694 h -0.48054 z M 11.532973,1.9221617 h 0.48054 v 0.4805408 h -0.48054 z m 0.961081,0 h 3.363783 V 5.2859456 H 12.494054 Z M 2.4027032,2.4027025 V 4.8054048 H 4.8054055 V 2.4027025 Z m 10.5718908,0 v 2.4027023 h 2.402703 V 2.4027025 Z M 2.8832431,2.8832433 H 4.3248647 V 4.3248649 H 2.8832431 Z m 10.5718919,0 h 1.441622 V 4.3248649 H 13.455135 Z M 5.7664863,3.3637832 H 6.2470271 V 3.8443241 H 6.7275679 V 4.3248649 H 5.7664863 Z m 0,1.4416216 H 6.2470271 V 5.2859456 H 5.7664863 Z m 2.8832431,0 H 9.1302703 V 5.2859456 H 8.6497294 Z m 4.8054056,0.9610817 h 0.961081 v 0.4805399 h 0.961081 V 6.7275672 H 14.416216 V 6.2470264 h -0.48054 V 7.208108 h 0.48054 v 0.48054 h -0.48054 V 7.208108 H 13.455135 V 6.7275672 H 12.974594 V 6.2470264 h 0.480541 z M 7.6886487,7.208108 H 8.1691895 V 8.1691888 H 7.2081079 V 7.688648 h 0.4805408 z m 7.6886483,1.9221614 h 0.48054 v 0.4805408 h -0.48054 z M 4.8054055,10.091351 v 0.48054 h 0.4805409 v -0.48054 z m 7.2081075,1.922161 v 1.441622 h 1.441622 V 12.013512 Z M 1.9221624,12.494053 h 3.363784 v 3.363784 h -3.363784 z m 10.5718916,0 h 0.48054 v 0.480541 h -0.48054 z M 2.4027032,12.974594 v 2.402702 h 2.4027023 v -2.402702 z m 0.4805399,0.48054 h 1.4416216 v 1.441622 H 2.8832431 Z m 9.6108109,0.480541 v 0.480541 h 1.441622 v -0.480541 z" />
  </g>
</svg>
